<svg width="80" height="80" viewBox="0 0 80 80" fill="none" xmlns="http://www.w3.org/2000/svg">
<path d="M39.892 -0.0488494C40.0434 -0.0485649 40.1947 -0.0482805 40.3507 -0.0479874C42.5903 -0.0409035 44.7695 0.0379593 46.9731 0.468087C47.1831 0.505768 47.1831 0.505768 47.3973 0.54421C56.7311 2.23314 65.7066 7.54807 71.4741 15.1374C71.5391 15.2217 71.6041 15.306 71.6711 15.3929C72.8701 16.9527 73.9223 18.585 74.9073 20.2872C74.9688 20.3929 75.0304 20.4986 75.0938 20.6075C77.151 24.1841 78.4939 28.1752 79.3257 32.206C79.3487 32.3169 79.3717 32.4278 79.3954 32.5421C79.8613 34.9832 79.9596 37.4232 79.9499 39.9015C79.9495 40.128 79.9495 40.128 79.949 40.359C79.942 42.5958 79.8625 44.7721 79.433 46.9728C79.4078 47.1128 79.3827 47.2528 79.3568 47.397C77.6679 56.7308 72.353 65.7062 64.7636 71.4737C64.6793 71.5387 64.595 71.6037 64.5081 71.6707C62.9483 72.8698 61.316 73.922 59.6137 74.9069C59.508 74.9684 59.4023 75.03 59.2935 75.0934C55.2486 77.4199 50.6461 78.9116 46.0368 79.5886C45.8488 79.6163 45.6608 79.6439 45.4671 79.6725C43.6479 79.922 41.8432 79.9566 40.0091 79.9495C39.782 79.9491 39.782 79.9491 39.5504 79.9486C37.3107 79.9415 35.1316 79.8627 32.928 79.4325C32.788 79.4074 32.648 79.3823 32.5038 79.3564C23.17 77.6675 14.1945 72.3526 8.42702 64.7633C8.36199 64.6789 8.29697 64.5946 8.22997 64.5078C7.03094 62.948 5.97873 61.3157 4.99377 59.6134C4.93223 59.5077 4.8707 59.402 4.8073 59.2931C2.75012 55.7165 1.40717 51.7254 0.575401 47.6946C0.552393 47.5837 0.529384 47.4728 0.505678 47.3585C0.0397918 44.9174 -0.0585509 42.4774 -0.048827 39.9991C-0.0485426 39.8481 -0.0482581 39.6971 -0.047965 39.5416C-0.0408757 37.3049 0.0385398 35.1285 0.468112 32.9278C0.505793 32.7178 0.505793 32.7178 0.544235 32.5036C2.23318 23.1698 7.54813 14.1944 15.1375 8.42696C15.2218 8.36193 15.3061 8.2969 15.393 8.2299C16.9528 7.03088 18.5851 5.97868 20.2874 4.99372C20.393 4.93219 20.4987 4.87065 20.6076 4.80726C24.6525 2.48077 29.2549 0.989078 33.8643 0.312031C34.0523 0.284358 34.2403 0.256685 34.434 0.228173C36.2532 -0.0213562 38.0579 -0.0560132 39.892 -0.0488494ZM31.0553 15.4495C30.8969 15.5856 30.8969 15.5856 30.7353 15.7244C28.3902 17.8908 26.9465 21.151 26.7979 24.3185C26.6928 28.1607 27.9369 31.6638 30.5871 34.4883C33.292 37.0636 36.6594 38.3253 40.3686 38.2988C43.2934 38.2195 45.8858 37.1777 48.2216 35.4247C48.3095 35.3623 48.3974 35.3 48.488 35.2357C50.8809 33.3864 52.4784 30.1924 52.9935 27.2653C53.4304 23.418 52.5697 19.8458 50.1406 16.7888C47.9088 14.0655 44.6752 12.4404 41.199 12.0162C37.4149 11.806 33.917 12.9425 31.0553 15.4495ZM22.0621 49.5248C19.9771 52.0274 18.7013 55.3783 18.9115 58.6557C19.1879 60.67 20.2918 61.9742 21.8479 63.2027C22.5073 63.6978 23.1829 64.1619 23.8767 64.6072C23.9676 64.6657 24.0585 64.7243 24.1522 64.7846C30.7179 68.9667 38.6533 70.4037 46.2596 68.7377C50.7868 67.6841 57.4524 65.2961 60.0819 61.174C61.2228 59.3009 61.0868 57.0578 60.6281 54.9805C59.797 51.6463 57.5914 48.6402 54.6826 46.8285C51.5587 44.9694 48.607 44.8723 45.0712 44.8819C44.6603 44.8816 44.2493 44.8812 43.8384 44.8806C42.9806 44.8797 42.1228 44.8808 41.265 44.8831C40.2797 44.8856 39.2944 44.8848 38.3091 44.8822C37.3529 44.8798 36.3968 44.8801 35.4406 44.8815C35.0375 44.8818 34.6343 44.8814 34.2312 44.8803C29.3985 44.87 25.4058 45.7708 22.0621 49.5248Z" fill="black"/>
</svg>
