<svg width="36" height="36" viewBox="0 0 36 36" fill="none" xmlns="http://www.w3.org/2000/svg">
<g clip-path="url(#clip0_83_10771)">
<path d="M31.5 11.25H4.5C4.20163 11.25 3.91548 11.1315 3.7045 10.9205C3.49353 10.7095 3.375 10.4234 3.375 10.125C3.375 9.82663 3.49353 9.54048 3.7045 9.32951C3.91548 9.11853 4.20163 9 4.5 9H31.5C31.7984 9 32.0845 9.11853 32.2955 9.32951C32.5065 9.54048 32.625 9.82663 32.625 10.125C32.625 10.4234 32.5065 10.7095 32.2955 10.9205C32.0845 11.1315 31.7984 11.25 31.5 11.25Z" fill="white"/>
<path d="M31.5 19.125H4.5C4.20163 19.125 3.91548 19.0065 3.7045 18.7955C3.49353 18.5845 3.375 18.2984 3.375 18C3.375 17.7016 3.49353 17.4155 3.7045 17.2045C3.91548 16.9935 4.20163 16.875 4.5 16.875H31.5C31.7984 16.875 32.0845 16.9935 32.2955 17.2045C32.5065 17.4155 32.625 17.7016 32.625 18C32.625 18.2984 32.5065 18.5845 32.2955 18.7955C32.0845 19.0065 31.7984 19.125 31.5 19.125Z" fill="white"/>
<path d="M31.5 27H4.5C4.20163 27 3.91548 26.8815 3.7045 26.6705C3.49353 26.4595 3.375 26.1734 3.375 25.875C3.375 25.5766 3.49353 25.2905 3.7045 25.0795C3.91548 24.8685 4.20163 24.75 4.5 24.75H31.5C31.7984 24.75 32.0845 24.8685 32.2955 25.0795C32.5065 25.2905 32.625 25.5766 32.625 25.875C32.625 26.1734 32.5065 26.4595 32.2955 26.6705C32.0845 26.8815 31.7984 27 31.5 27Z" fill="white"/>
</g>
<defs>
<clipPath id="clip0_83_10771">
<rect width="36" height="36" fill="white"/>
</clipPath>
</defs>
</svg>
