<svg width="39" height="36" viewBox="0 0 39 36" fill="none" xmlns="http://www.w3.org/2000/svg">
<path d="M24.9002 7.25381C24.9002 5.32998 24.0257 3.48495 22.4691 2.12459C20.9126 0.764239 18.8014 0 16.6001 0C14.3988 0 12.2876 0.764239 10.7311 2.12459C9.17452 3.48495 8.30005 5.32998 8.30005 7.25381H0V25.3883C0 26.3503 0.437234 27.2728 1.21551 27.953C1.9938 28.6331 3.04937 29.0153 4.15003 29.0153H19.3668V26.5973H4.15003C3.78314 26.5973 3.43128 26.4699 3.17186 26.2432C2.91243 26.0165 2.76668 25.709 2.76668 25.3883V9.67175H8.30005V12.0897H11.0667V9.67175H22.1335V12.0897H24.9002V9.67175H30.4335V16.9256H33.2002V7.25381H24.9002ZM11.0667 7.25381C11.0667 5.97126 11.6497 4.74124 12.6874 3.83433C13.7251 2.92743 15.1326 2.41794 16.6001 2.41794C18.0676 2.41794 19.4751 2.92743 20.5128 3.83433C21.5505 4.74124 22.1335 5.97126 22.1335 7.25381H11.0667Z" fill="#F5F5F7"/>
<path d="M26.2835 19.3435V22.9704H22.1335V25.3884H26.2835V29.0153H29.0502V25.3884H33.2002V22.9704H29.0502V19.3435H26.2835Z" fill="#F5F5F7"/>
<circle cx="29" cy="26" r="10" fill="#D9D9D9"/>
<path d="M37 26C37 30.4183 33.4183 34 29 34C24.5817 34 21 30.4183 21 26C21 21.5817 24.5817 18 29 18C33.4183 18 37 21.5817 37 26Z" fill="#A63D40"/>
</svg>
