<svg width="84" height="106" viewBox="0 0 84 106" fill="none" xmlns="http://www.w3.org/2000/svg">
<path d="M2.82631 4.94185C0.102574 7.64815 -3.41498 13.5405 3.44576 22.6801C3.5289 23.354 3.33565 25.4272 3.16337 27.2694C2.37138 35.7523 0.725291 53.4044 9.23952 69.2164C16.7147 83.0962 29.311 88.65 37.6463 92.325C41.5892 94.0636 44.9936 95.565 45.7756 97.0727C47.7569 100.895 50.2828 103.263 53.0797 103.921C55.1796 104.414 57.3505 103.891 59.3589 102.408C60.7215 101.401 61.5221 100.041 61.9367 98.5159C63.2024 93.8607 60.8652 87.691 59.9303 85.5297C59.7817 84.9087 60.0936 82.1816 60.3678 79.7767C61.6163 68.8454 64.2134 46.1006 51.5566 31.9338C38.7284 17.5755 27.0521 13.2697 21.4407 11.2006C20.4046 10.8188 19.2304 10.3856 18.97 10.1799C18.6876 9.95746 18.1623 9.36322 17.606 8.73341C14.7855 5.53854 8.91329 -1.10752 2.82631 4.94185ZM15.4424 11.1247C16.1423 11.9173 16.6958 12.5428 17.179 12.9237C17.7792 13.3962 18.7603 13.7586 20.3863 14.3579C25.7927 16.3517 37.0415 20.4996 49.4033 34.3362C61.0885 47.4146 58.7035 68.2987 57.4227 79.5178C56.9105 84.0027 56.7214 85.869 57.2143 87.0102C58.8037 90.7014 60.7202 97.5178 57.8106 99.6652C56.4879 100.642 55.1489 100.98 53.8299 100.67C51.8608 100.207 49.9204 98.3017 48.3661 95.3029C47.1025 92.8642 43.6422 91.3398 38.8546 89.2283C30.3908 85.4966 18.7986 80.3859 11.8066 67.4016C3.78173 52.4997 5.30201 36.2036 6.11789 27.4489C6.49972 23.3497 6.65775 21.6537 5.87524 20.6245C2.99668 16.8439 1.93564 13.5362 2.69546 10.7416C3.02785 9.5191 3.70879 8.39586 4.73704 7.37271C8.36952 3.76378 12.0178 7.24691 15.4424 11.1247Z" fill="black" fill-opacity="0.2"/>
<path d="M7.98052 10.6223C7.39474 11.2942 7.38456 12.3412 7.95368 12.9655C8.11728 13.1444 11.9412 17.4379 10.9327 24.7992C10.3209 29.26 7.70644 52.2115 16.2786 65.9599C20.808 73.225 27.7168 79.2562 36.858 83.9532C36.8907 83.9719 36.92 83.9954 36.9545 84.0111C36.9919 84.0277 37.0263 84.0399 37.0637 84.0564C39.0005 85.0436 41.0301 85.9753 43.1649 86.8425C49.576 89.4462 51.8956 91.8931 53.5609 94.9979C53.9733 95.7667 54.8825 95.9847 55.5916 95.486C55.9286 95.2488 56.1587 94.8942 56.2648 94.5039C56.3826 94.0706 56.3468 93.5943 56.1303 93.1896C54.9447 90.9781 53.5302 89.2291 51.604 87.7073C53.3486 80.6415 58.1484 60.2855 45.9692 39.9969C35.0846 21.861 14.5706 17.8071 13.5384 17.6137C12.4835 13.1837 10.215 10.6764 10.0745 10.5249C9.49958 9.90707 8.56601 9.95143 7.98052 10.6223ZM18.744 63.9712C17.8286 62.5037 17.06 60.9015 16.4052 59.2187C17.2039 57.5836 18.5293 53.8048 17.5598 47.976C16.8732 43.8579 17.6719 39.629 19.5489 37.4547C20.7233 36.0932 22.2749 35.5585 24.1602 35.8647C26.9135 36.3112 28.3272 38.6219 29.6933 40.8565C31.2453 43.3945 33.0043 46.2708 36.6207 45.1944C38.2496 44.7097 41.5439 45.9816 44.4398 49.293C46.1485 51.247 49.9268 56.545 48.1201 63.5167C47.6215 65.4406 47.1909 67.3021 46.7738 69.1026C45.4278 74.92 44.2641 79.9434 42.0619 81.2307C41.1338 81.7728 39.891 81.6783 38.2731 80.9554C29.5557 76.4904 22.9999 70.7968 18.744 63.9712ZM44.3017 83.7125C44.228 83.6832 44.1583 83.6504 44.0856 83.6213C46.0903 81.9983 47.283 79.0417 48.3137 75.2508C48.7694 73.5747 49.1948 71.7361 49.6476 69.7816C50.0149 68.1944 50.3998 66.5534 50.824 64.8844C51.5925 74.0459 50.0055 81.7296 48.9919 85.9532C47.6442 85.1786 46.1029 84.4443 44.3017 83.7125ZM43.4765 41.936C44.2646 43.2489 44.9708 44.5626 45.6136 45.8729C42.4409 42.7385 38.6999 41.1841 35.9905 41.9911C34.5028 42.4332 33.7614 41.4933 32.1721 38.8937C30.6279 36.3684 28.7066 33.2257 24.7287 32.5802C21.8599 32.1155 19.3467 33.0264 17.4584 35.216C14.8767 38.2107 13.7687 43.5208 14.6375 48.7401C15.001 50.924 14.9875 52.7114 14.8172 54.1298C11.7818 41.6589 13.5925 27.166 13.8695 25.1412C14.065 23.7128 14.0977 22.3877 14.0331 21.1503C18.4397 22.2535 34.6314 27.2024 43.4765 41.936Z" fill="black" fill-opacity="0.2"/>
<path d="M43.2714 66.3822C43.5589 65.3248 43.7543 64.197 43.8424 63.0324C44.2088 58.1829 42.7034 53.822 39.7126 51.0661C36.2695 47.8941 31.2055 47.3022 27.3968 49.6265C23.8624 51.7824 22.022 55.9389 22.3445 61.0286C22.6847 66.3905 25.2228 70.6801 29.3068 72.7971C32.7988 74.6069 36.8889 74.532 39.4842 72.6097C41.1907 71.3437 42.5349 69.091 43.2714 66.3822ZM30.664 69.7722C28.8187 68.816 25.6697 66.3568 25.3062 60.6297C25.0692 56.8887 26.2788 54.0086 28.7168 52.522C31.476 50.8378 35.1926 51.3109 37.7544 53.6703C40.0273 55.7638 41.1671 59.1347 40.8813 62.9182C40.6498 65.9841 39.4904 68.7133 37.929 69.8696C36.4812 70.9419 33.5201 71.252 30.664 69.7722Z" fill="black" fill-opacity="0.2"/>
</svg>
