<svg width="271" height="217" viewBox="0 0 271 217" fill="none" xmlns="http://www.w3.org/2000/svg">
<g opacity="0.2" clip-path="url(#clip0_1_511)">
<path d="M22.6229 54.0688C21.8319 55.9074 21.5349 57.3598 21.9568 59.3446C22.4582 60.5461 23.053 61.6911 23.6592 62.8425C23.8134 63.1449 23.9676 63.4474 24.1266 63.7589C28.3617 71.9381 34.4853 78.6629 41.2511 84.8284C41.1402 85.0248 41.0294 85.2212 40.9152 85.4235C38.6208 90.8196 39.8032 98.1437 41.8547 103.396C44.2158 108.736 48.0015 112.444 52.4806 116.056C52.7675 116.287 53.0544 116.518 53.3499 116.757C53.6691 117.014 53.9883 117.271 54.3172 117.536C55.2529 118.307 56.158 119.109 57.0608 119.918C68.1491 129.854 80.1957 138.347 93.3822 145.278C93.7635 145.478 94.1447 145.679 94.5375 145.886C102.858 150.227 111.422 153.817 120.345 156.722C120.625 156.813 120.904 156.904 121.193 156.998C126.952 158.851 132.847 160.191 138.818 161.148C139.885 161.323 140.93 161.532 141.985 161.765C160.764 165.462 181.963 161.71 197.952 151.244C200.11 149.748 202.187 148.144 204.259 146.53C204.538 146.313 204.817 146.096 205.105 145.873C209.67 142.315 213.833 138.631 217.529 134.152C217.743 133.895 217.957 133.637 218.177 133.372C219.527 131.724 220.798 130.031 222.022 128.288C222.178 128.067 222.334 127.847 222.495 127.62C226.408 122.035 229.398 115.868 231.685 109.458C232.902 106.061 234.247 103.062 236.304 100.075C236.474 99.8246 236.645 99.5741 236.821 99.316C239.282 95.7449 241.941 92.4362 244.949 89.3081C246.676 87.4707 247.522 85.9173 247.745 83.3462C247.614 81.3562 246.78 80.1829 245.432 78.7159C243.675 77.4592 242.057 77.0154 239.924 77.3526C229.482 79.9986 221.575 87.0005 215.08 95.2833C206.739 105.92 196.839 115.689 184.533 121.678C184.292 121.796 184.051 121.915 183.803 122.036C173.229 127.103 162.519 126.128 151.694 122.45C147.773 121.062 144.02 119.315 140.313 117.435C140.061 117.308 139.808 117.181 139.548 117.05C129.385 111.893 120.428 105.087 111.63 97.9097C105.601 92.9932 99.414 88.3338 92.9168 84.0496C92.5199 83.7873 92.5199 83.7873 92.1149 83.5197C90.8279 82.6704 89.5375 81.8271 88.2398 80.9942C85.5225 79.2302 83.2183 77.3812 80.9646 75.0526C78.1717 72.2256 74.5575 70.627 70.7863 69.5296C70.5194 69.4465 70.2524 69.3634 69.9774 69.2778C65.9815 68.2388 61.4582 68.6748 57.3911 69.0946C51.8722 69.648 46.925 68.1947 42.5246 64.7168C41.5654 63.8252 40.7994 62.8553 39.9956 61.8211C39.8331 61.6121 39.6705 61.4032 39.503 61.1879C39.1603 60.7466 38.8184 60.3047 38.4772 59.8622C37.9608 59.1934 37.4414 58.5272 36.9216 57.8611C35.2704 55.7346 33.7033 53.6134 32.3552 51.2776C32.0295 50.7585 31.6952 50.2444 31.343 49.7428C31.1918 49.5179 31.0405 49.2929 30.8847 49.0611C30.2808 48.6038 30.2808 48.6038 29.2384 48.5852C26.4562 49.2711 24.1314 51.7104 22.6229 54.0688ZM28.79 54.0435C29.0095 54.3901 29.0095 54.3901 29.2334 54.7438C34.2672 62.601 40.2346 70.7985 49.7503 73.2135C53.0876 73.8821 56.1765 73.8614 59.5355 73.4691C64.4242 72.9028 68.7153 73.1855 73.2857 75.2051C73.7409 75.4041 73.7409 75.4041 74.2054 75.607C76.2642 76.6056 77.681 77.9584 79.1504 79.6975C74.4112 81.8543 68.728 82.9176 63.6813 81.2284C63.3342 81.8073 62.9937 82.3902 62.6568 82.975C62.499 83.2066 62.3413 83.4382 62.1787 83.6768C62.0965 83.9456 62.0142 84.2143 61.9294 84.4912C62.416 85.3629 62.416 85.3629 63.2009 86.3602C64.7415 88.5197 65.5953 90.6476 66.4021 93.1653C67.0261 95.1087 67.7917 96.9209 68.7054 98.7465C65.8403 99.7402 62.775 99.1602 60.0474 97.9382C58.2988 97.0207 56.7944 95.8464 55.2815 94.5842C54.5633 94.013 54.5633 94.013 54.0357 93.9464C51.9929 95.2271 51.695 96.6298 51.1086 98.8719C50.4932 101.885 50.2997 104.934 50.6544 107.991C48.5104 107.274 47.7221 105.388 46.6696 103.468C44.2341 97.974 44.064 93.1286 44.8996 87.2645C44.9404 86.9752 44.9812 86.686 45.0232 86.388C45.1662 85.503 45.1662 85.503 45.6521 84.3717C45.7382 83.2509 45.7382 83.2509 45.2809 82.5772C44.5985 81.843 43.8872 81.1739 43.1362 80.5104C42.9324 80.3254 42.7286 80.1403 42.5187 79.9496C42.1187 79.5885 41.7173 79.2291 41.3145 78.8712C35.6543 73.7654 27.1759 64.8519 26.28 56.9425C26.8028 55.3808 27.4789 54.9836 28.79 54.0435ZM68.4243 86.1152C68.8242 86.1159 68.8242 86.1159 69.2322 86.1167C72.5737 86.0467 76.6064 85.7842 79.4392 83.8344C80.6188 83.0927 81.4161 82.732 82.8075 82.5712C85.2585 83.311 87.3482 85.1108 89.3839 86.6008C90.0347 87.0596 90.686 87.5176 91.3378 87.9748C97.8545 92.5962 104.125 97.5741 110.356 102.572C114.326 105.753 118.327 108.859 122.469 111.813C122.852 112.086 123.235 112.359 123.63 112.641C138.301 122.998 156.226 132.254 174.734 129.265C193.273 125.992 207.107 112.398 218.386 98.1814C224.51 90.4683 231.947 83.1851 242.098 81.7789C243.013 82.7497 243.013 82.7497 243.266 84.0105C242.987 85.09 242.51 85.5968 241.753 86.4128C241.344 86.862 241.344 86.862 240.927 87.3203C240.633 87.6388 240.339 87.9574 240.037 88.2856C234.184 94.7956 229.864 101.428 226.777 109.614C219.776 128.116 206.327 141.475 189.377 151.234C189.099 151.396 188.82 151.559 188.534 151.726C179.295 157.081 168.212 158.485 157.675 158.219C157.405 158.212 157.134 158.206 156.855 158.199C153.563 158.109 150.318 157.89 147.057 157.414C145.654 157.232 144.25 157.061 142.845 156.901C139.279 156.488 135.836 155.903 132.351 155.022C131.851 154.902 131.35 154.783 130.849 154.664C121.684 152.472 112.796 149.397 104.184 145.577C103.32 145.196 102.452 144.823 101.583 144.452C86.6694 137.985 65.1428 126.399 55.9916 112.417C55.6075 111.389 55.3877 110.365 55.1978 109.285C55.1174 108.855 55.1174 108.855 55.0354 108.417C54.6036 105.865 54.4701 103.32 55.0496 100.774C55.3437 100.546 55.6378 100.318 55.9409 100.083C56.1317 100.194 56.3224 100.306 56.519 100.421C61.5566 103.258 66.0048 103.946 71.6609 102.626C72.8859 102.192 73.6686 101.727 74.6061 100.832C74.7961 99.3266 73.9525 98.6341 73.085 97.4905C70.6708 94.1636 69.0896 90.1834 68.4243 86.1152Z" fill="black"/>
<path d="M110.696 118.52C110.433 119.408 110.433 119.408 110.727 120.4C112.8 122.314 115.1 123.728 117.531 125.145C117.914 125.369 118.297 125.593 118.692 125.824C126.37 130.236 126.37 130.236 130.304 130.912C131.448 130.202 131.448 130.202 132.383 129.298C132.517 128.243 132.517 128.243 131.878 127.207C130.751 126.001 129.888 125.617 128.347 125.053C127.841 124.858 127.337 124.662 126.833 124.463C126.577 124.363 126.321 124.262 126.057 124.158C122.28 122.61 118.8 120.473 115.391 118.248C115.001 117.996 115.001 117.996 114.602 117.739C114.371 117.588 114.14 117.436 113.902 117.28C112.574 116.6 111.644 117.617 110.696 118.52Z" fill="black" fill-opacity="0.5"/>
<path d="M83.1007 100.821C81.3842 103.272 79.5609 106.164 79.1799 109.181C80.8672 111.002 80.8672 111.002 81.618 111.097C83.4145 109.938 84.2711 108.636 85.181 106.756C86.4111 104.338 87.7795 102.44 89.638 100.45C90.3394 99.5548 90.5542 99.1404 90.5055 98.015C89.944 97.0229 89.944 97.0229 89.1226 96.2324C86.2761 95.8127 84.6465 98.8028 83.1007 100.821Z" fill="black" fill-opacity="0.5"/>
<path d="M92.1136 104.382C89.313 108.056 89.313 108.056 88.9735 110.149C89.5681 111.2 90.0028 111.778 91.1186 112.263C93.0647 111.952 94.4131 109.459 95.5143 107.96C95.7965 107.58 96.0788 107.2 96.3696 106.808C97.0258 105.806 97.0258 105.806 97.159 104.751C96.4451 103.639 96.4451 103.639 95.5456 102.671C93.9309 102.787 93.2023 103.252 92.1136 104.382Z" fill="black" fill-opacity="0.5"/>
<path d="M101.683 110.314C101.051 111.358 100.927 111.841 101.205 113.034C102.196 113.812 102.196 113.812 103.182 114.355C105.39 113.275 105.39 113.275 105.823 112.277C105.632 111.076 105.179 110.511 104.309 109.674C103.088 109.433 102.649 109.526 101.683 110.314Z" fill="black" fill-opacity="0.5"/>
</g>
<defs>
<clipPath id="clip0_1_511">
<rect width="192.522" height="192.522" fill="white" transform="matrix(-0.790111 0.612964 0.612964 0.790111 152.793 -53.5789)"/>
</clipPath>
</defs>
</svg>
