<svg width="80" height="80" viewBox="0 0 80 80" fill="none" xmlns="http://www.w3.org/2000/svg">
<g clip-path="url(#clip0_1_565)">
<path d="M45.2443 72.1318H9.93829C8.99784 72.1318 8.23517 71.366 8.23517 70.4218C8.23517 69.4776 8.99784 68.7119 9.93829 68.7119H45.2443C58.311 68.7119 68.9404 58.0398 68.9404 44.9207C68.9404 31.8016 58.3101 21.1286 45.2443 21.1286H9.93829C8.99784 21.1286 8.23517 20.3629 8.23517 19.4187C8.23517 18.4745 8.99784 17.7087 9.93829 17.7087H45.2443C60.1883 17.7087 72.3466 29.9158 72.3466 44.9207C72.3466 59.9247 60.1883 72.1318 45.2443 72.1318Z" fill="#0A0A0A"/>
<path d="M45.2442 48.7896C44.2567 48.7896 43.2691 48.4121 42.5171 47.6571C41.014 46.1471 41.014 43.6919 42.5162 42.1828L42.518 42.181C44.0211 40.6736 46.4682 40.6745 47.9696 42.181C49.4736 43.691 49.4736 46.1471 47.9705 47.6562C47.2185 48.4121 46.2309 48.7896 45.2442 48.7896Z" fill="#0A0A0A"/>
<path d="M40.4185 51.474C39.9829 51.474 39.5464 51.3071 39.214 50.9733C38.5491 50.3058 38.5491 49.2232 39.214 48.5557L42.5162 45.2402C43.1811 44.5726 44.2594 44.5726 44.9243 45.2402C45.5891 45.9077 45.5891 46.9903 44.9243 47.6578L41.622 50.9733C41.2905 51.3071 40.8549 51.474 40.4185 51.474Z" fill="#0A0A0A"/>
<path d="M46.766 45.1009C46.3305 45.1009 45.8949 44.9341 45.5616 44.6003C44.8967 43.9327 44.8967 42.8502 45.5616 42.1826L57.7386 29.9577C58.4034 29.2901 59.4817 29.2901 60.1466 29.9577C60.8115 30.6253 60.8115 31.7078 60.1466 32.3754L47.9696 44.6003C47.6372 44.9341 47.2016 45.1009 46.766 45.1009Z" fill="#0A0A0A"/>
<path d="M31.5447 60.3835H6.4992C5.55875 60.3835 4.79608 59.6178 4.79608 58.6736C4.79608 57.7293 5.55875 56.9636 6.4992 56.9636H31.5456C32.486 56.9636 33.2487 57.7293 33.2487 58.6736C33.2487 59.6178 32.486 60.3835 31.5447 60.3835Z" fill="#0A0A0A"/>
<path d="M58.9421 60.3834C58.5066 60.3834 58.071 60.2166 57.7377 59.8828L56.1154 58.254C55.4505 57.5865 55.4505 56.5039 56.1154 55.8364C56.7803 55.1688 57.8586 55.1688 58.5234 55.8364L60.1457 57.4651C60.8106 58.1327 60.8106 59.2152 60.1457 59.8828C59.8141 60.2166 59.3786 60.3834 58.9421 60.3834Z" fill="#0A0A0A"/>
<path d="M31.5447 32.8762H6.4992C5.55875 32.8762 4.79608 32.1105 4.79608 31.1663C4.79608 30.222 5.55875 29.4563 6.4992 29.4563H31.5456C32.486 29.4563 33.2487 30.222 33.2487 31.1663C33.2487 32.1105 32.486 32.8762 31.5447 32.8762Z" fill="#0A0A0A"/>
<path d="M45.2443 29.482C44.3038 29.482 43.5411 28.7162 43.5411 27.772V25.4695C43.5411 24.5253 44.3038 23.7595 45.2443 23.7595C46.1847 23.7595 46.9474 24.5253 46.9474 25.4695V27.772C46.9474 28.7162 46.1847 29.482 45.2443 29.482Z" fill="#0A0A0A"/>
<path d="M45.2443 66.08C44.3038 66.08 43.5411 65.3142 43.5411 64.37V62.0683C43.5411 61.1241 44.3038 60.3584 45.2443 60.3584C46.1847 60.3584 46.9474 61.1241 46.9474 62.0683V64.37C46.9474 65.3142 46.1847 66.08 45.2443 66.08Z" fill="#0A0A0A"/>
<path d="M64.6159 46.6299H62.3235C61.383 46.6299 60.6204 45.8641 60.6204 44.9199C60.6204 43.9757 61.383 43.21 62.3235 43.21H64.6159C65.5564 43.21 66.3191 43.9757 66.3191 44.9199C66.3191 45.865 65.5564 46.6299 64.6159 46.6299Z" fill="#0A0A0A"/>
<path d="M28.1642 46.6299H2.1427C1.20225 46.6299 0.439575 45.865 0.439575 44.9199C0.439575 43.9757 1.20225 43.21 2.1427 43.21H28.1642C29.1046 43.21 29.8673 43.9757 29.8673 44.9199C29.8673 45.865 29.1055 46.6299 28.1642 46.6299Z" fill="#0A0A0A"/>
<path d="M45.3616 80.5977C44.3252 80.5977 43.4843 79.7534 43.4843 78.7128C43.4843 77.6722 44.3252 76.8279 45.3616 76.8279C53.7323 76.8279 61.6026 73.5553 67.5226 67.6124C79.7414 55.3429 79.7414 35.3803 67.5226 23.1126C62.7519 18.3237 56.7119 15.2608 50.055 14.2541C49.1368 14.1148 48.4568 13.3232 48.4568 12.3906V8.75562C48.4568 7.71501 49.2976 6.87075 50.3341 6.87075H52.0523V4.3674H38.67V6.87075H40.3883C41.4247 6.87075 42.2656 7.71501 42.2656 8.75562V12.3888C42.2656 13.4294 41.4247 14.2737 40.3883 14.2737C39.3518 14.2737 38.5109 13.4294 38.5109 12.3888V10.6405H36.7927C35.7562 10.6405 34.9153 9.79623 34.9153 8.75562V2.48253C34.9153 1.44192 35.7562 0.597656 36.7927 0.597656H53.9297C54.9661 0.597656 55.807 1.44192 55.807 2.48253V8.75562C55.807 9.79623 54.9661 10.6405 53.9297 10.6405H52.2114V10.8047C59.0364 12.1568 65.2195 15.4696 70.1769 20.4468C83.8605 34.1853 83.8605 56.5396 70.1769 70.2782C63.5484 76.9323 54.735 80.5977 45.3616 80.5977Z" fill="#0A0A0A"/>
</g>
<defs>
<clipPath id="clip0_1_565">
<rect width="80" height="80" fill="white"/>
</clipPath>
</defs>
</svg>
