<svg width="80" height="80" viewBox="0 0 80 80" fill="none" xmlns="http://www.w3.org/2000/svg">
<g clip-path="url(#clip0_1_532)">
<path d="M59.8117 12.5907L58.3405 15.4065C58.1278 15.8064 57.7202 16.0624 57.2593 16.1104L53.8385 16.4944L56.3554 18.6221C56.7099 18.9261 56.8517 19.3581 56.763 19.758L56.1072 22.8137L59.1381 21.3099C59.5635 21.1019 60.0775 21.1179 60.4675 21.3259L63.4807 22.8137L62.8249 19.758C62.7362 19.3101 62.9135 18.8781 63.268 18.5901L65.7494 16.4944L62.3286 16.1104C61.7968 16.0464 61.3714 15.7264 61.2119 15.3105L59.8117 12.5907ZM56.1781 13.7426L58.5532 9.16708C59.0318 8.22318 60.5384 8.20718 61.0347 9.16708L63.4098 13.7426L68.9753 14.3666C70.1097 14.4946 70.606 15.7744 69.7552 16.4944L65.6608 19.966L66.7243 24.9415C66.937 25.9654 65.7317 26.7653 64.7214 26.2534L59.794 23.8056L54.8842 26.2534C53.8739 26.7493 52.6509 25.9654 52.8814 24.9415L53.9448 19.966L49.9213 16.5583C48.9997 15.8384 49.4251 14.5105 50.6303 14.3666L56.1781 13.7426ZM59.8117 0C70.9604 0 80 8.15918 80 18.2222C80 27.4053 72.4493 35.0685 62.5235 36.2844C69.2057 47.8512 66.7774 62.0098 56.5681 71.2409C43.6291 82.9197 22.6609 82.9197 9.70422 71.2409C-3.21701 59.578 -3.25246 40.6359 9.70422 28.9411C17.4853 21.9338 28.7227 18.7341 39.8183 20.7979C38.099 9.82302 47.5108 0 59.8117 0ZM59.4926 36.4444C56.444 36.3964 53.4485 35.7404 50.7544 34.5245L44.5862 36.6203C43.4873 36.9883 42.3884 36.0284 42.8315 35.0045L44.728 30.333C42.7783 28.3492 41.3249 26.0294 40.4741 23.4697C26.5603 20.366 12.292 26.4294 5.96433 37.8202H10.0764C10.8386 37.8202 11.4412 38.3802 11.4412 39.0521V40.38H18.8501C19.6123 40.38 20.2149 40.9239 20.2149 41.6438C23.2458 41.4039 25.3728 40.7959 26.9857 39.564C28.8822 38.1082 30.2293 35.6924 31.5941 31.8848C32.0904 30.493 32.7462 29.2931 34.5364 28.9571C36.1316 28.6371 37.7445 29.0371 38.9498 30.045C41.6794 32.3328 40.6868 36.7963 39.6588 39.868H46.341C50.7721 39.868 52.1724 44.4116 49.815 46.8913C51.8356 48.5392 51.9065 51.4829 49.7618 53.0827C51.5875 55.1305 50.9671 58.4582 48.2907 59.61C49.8327 62.2178 48.2198 65.8974 44.2672 65.8974H31.4346C25.2133 65.8974 23.8839 63.1617 20.2326 63.0977V63.4177C20.2326 64.1056 19.6123 64.6655 18.8678 64.6655H11.4412V65.9934C11.4412 66.6813 10.8209 67.2413 10.0764 67.2413H9.40291C20.7112 80.008 41.8035 81.0799 54.6184 69.5131C64.3137 60.7299 66.3166 47.1473 59.4926 36.4444ZM72.1303 7.08729C65.324 0.943905 54.2816 0.943905 47.4754 7.08729C40.7046 13.1987 40.7046 23.1337 47.2627 29.1651C47.6171 29.5011 47.7767 29.997 47.5817 30.461L46.4119 33.3407L50.2758 32.0288C50.6658 31.8688 51.1089 31.8848 51.4988 32.0768C62.9667 37.6922 77.235 30.253 77.235 18.2222C77.235 13.8706 75.2852 9.93501 72.1303 7.08729ZM17.4676 42.8757H11.4412V62.1698H17.4676V42.8757ZM8.69392 40.3H4.74134C1.33821 48.3472 2.33079 57.4343 7.43548 64.7295H8.69392V40.3ZM20.2149 60.6019C24.7524 60.6179 25.8513 63.4017 31.4169 63.4017H44.2495C46.7486 63.4017 46.7486 59.994 44.2495 59.994V57.5143H46.1815C48.6806 57.5143 48.6806 54.1066 46.1815 54.1066V51.6268C49.62 51.6268 49.1592 48.2192 46.3233 48.2192V45.7554C48.8224 45.7554 48.8224 42.3478 46.3233 42.3478L37.6205 42.3318C36.7165 42.2358 36.1848 41.4359 36.4684 40.6999C37.266 38.6201 39.5347 32.2208 36.1671 31.3729C35.7417 31.2609 34.9795 31.2449 34.6782 31.6288C33.8983 32.6207 32.8348 38.3482 28.7582 41.4679C26.6135 43.0997 23.9548 43.8516 20.2149 44.1396V60.6019Z" fill="black"/>
</g>
<defs>
<clipPath id="clip0_1_532">
<rect width="80" height="80" fill="white"/>
</clipPath>
</defs>
</svg>
