<svg width="80" height="70" viewBox="0 0 80 70" fill="none" xmlns="http://www.w3.org/2000/svg">
<path d="M24.7884 2.72695C30.4969 2.72695 35.1413 7.4764 35.1413 13.3139V18.0888C35.1413 23.9263 30.4969 28.6757 24.7884 28.6757C19.08 28.6757 14.4356 23.9263 14.4356 18.0888V13.3139C14.4356 7.4764 19.08 2.72695 24.7884 2.72695ZM24.7884 0C17.6276 0 11.7689 5.99112 11.7689 13.3139V18.0888C11.7689 25.4116 17.6276 31.4027 24.7884 31.4027C31.9493 31.4027 37.808 25.4116 37.808 18.0888V13.3139C37.808 5.99203 31.9493 0 24.7884 0Z" fill="black"/>
<path d="M32.5147 36.0685C40.7751 37.7255 46.9102 45.2656 46.9102 53.9364V67.273H2.66667V53.9364C2.66667 45.2656 8.80089 37.7255 17.0622 36.0685C19.5076 37.2156 22.1022 37.7964 24.7884 37.7964C27.4747 37.7964 30.0693 37.2165 32.5147 36.0685ZM32.1191 33.2324C29.9164 34.3986 27.4276 35.0704 24.7876 35.0704C22.1476 35.0704 19.6587 34.3996 17.456 33.2324C7.61333 34.735 0 43.4694 0 53.9364V67.7084C0 68.9692 1.008 69.9999 2.24089 69.9999H47.336C48.5689 69.9999 49.5769 68.9692 49.5769 67.7084V53.9364C49.5769 43.4694 41.9627 34.735 32.1191 33.2324Z" fill="black"/>
<path d="M54.4628 68.9999C54.5372 68.5815 54.5769 68.15 54.5769 67.7084V53.9364C54.5769 46.4819 51.4031 39.6174 46.3069 34.8132C46.711 34.6482 47.1082 34.4678 47.4974 34.2721C56.6912 35.8362 63.7884 44.069 63.7884 53.9364V67.7084C63.7884 68.4381 63.2072 68.9999 62.5475 68.9999H54.4628Z" stroke="black" stroke-width="2"/>
<path d="M42.808 18.0898V13.3149C42.808 8.64192 41.0838 4.37997 38.2629 1.1342C38.8308 1.04691 39.4105 1.00098 40 1.00098C46.5876 1.00098 52.0196 6.52319 52.0196 13.3149V18.0898C52.0196 24.8815 46.5876 30.4037 40 30.4037C39.9832 30.4037 39.9608 30.4027 39.9133 30.3993C39.4981 30.1978 39.0764 30.0065 38.6481 29.8267C41.2421 26.6391 42.808 22.5488 42.808 18.0898Z" stroke="black" stroke-width="2"/>
<path d="M69.6744 68.9999C69.7488 68.5815 69.7885 68.15 69.7885 67.7084V53.9364C69.7885 46.4819 66.6147 39.6174 61.5184 34.8132C61.9226 34.6482 62.3197 34.4678 62.7089 34.2721C71.9036 35.8362 79 44.069 79 53.9364V67.7084C79 68.4381 78.4188 68.9999 77.7591 68.9999H69.6744Z" stroke="black" stroke-width="2"/>
<path d="M58.0196 18.0898V13.3149C58.0196 8.64192 56.2953 4.37997 53.4745 1.1342C54.0424 1.04691 54.6221 1.00098 55.2116 1.00098C61.7992 1.00098 67.2311 6.52319 67.2311 13.3149V18.0898C67.2311 24.8815 61.7992 30.4037 55.2116 30.4037C55.1948 30.4037 55.1724 30.4027 55.1248 30.3993C54.7096 30.1978 54.288 30.0065 53.8597 29.8267C56.4537 26.6391 58.0196 22.5488 58.0196 18.0898Z" stroke="black" stroke-width="2"/>
</svg>
