<svg width="80" height="80" viewBox="0 0 80 80" fill="none" xmlns="http://www.w3.org/2000/svg">
<path d="M42.5056 3.15161L42.5056 3.15165L51.5285 22.2692C52.3601 24.0314 53.9858 25.2849 55.9038 25.5759C55.9039 25.576 55.9041 25.576 55.9042 25.576L76.0805 28.6418C78.3161 28.9817 79.3871 31.994 77.6234 33.7912L77.6233 33.7913L63.0234 48.6723L63.0231 48.6726C61.666 50.0566 61.0599 52.0319 61.3757 53.9527C61.3757 53.953 61.3757 53.9533 61.3758 53.9535L64.8216 74.9654L64.8217 74.9657C65.2486 77.5663 62.7017 79.2173 60.7729 78.1577L42.7274 68.2379L42.7269 68.2376C41.0223 67.3014 38.9773 67.3014 37.2727 68.2376L37.2722 68.2379L19.2263 78.1579L19.2262 78.158C17.2987 79.2179 14.7509 77.5675 15.178 74.9657L15.178 74.9654L18.6238 53.9535C18.9399 52.0324 18.3338 50.0568 16.9766 48.6726L16.9763 48.6723L2.37658 33.7916C2.3765 33.7915 2.37642 33.7914 2.37634 33.7913C0.611537 31.9914 1.68487 28.9804 3.91838 28.6419L3.91894 28.6418L24.0955 25.576C24.0956 25.576 24.0957 25.576 24.0958 25.5759C26.0138 25.2849 27.6395 24.0314 28.4711 22.2693C28.4711 22.2693 28.4711 22.2693 28.4711 22.2692L37.494 3.15165L37.4943 3.15106C38.5318 0.950253 41.4661 0.948857 42.5056 3.15161Z" stroke="#0A0A0A" stroke-width="3"/>
</svg>
