<svg width="150" height="150" viewBox="0 0 150 150" fill="none" xmlns="http://www.w3.org/2000/svg">
<g clip-path="url(#clip0_113_32187)">
<path d="M149.76 81.3488C147.211 76.2312 144.269 71.1441 141.007 66.1993C144.051 62.6404 144.684 57.448 142.466 53.1199C131.253 31.3372 111.659 16.3556 100.979 9.36493C96.8972 6.6884 91.514 7.16984 87.8838 10.5381L86.4417 11.8816C75.5236 4.30623 67.9349 0.395706 67.6047 0.2268C66.7332 -0.220321 65.683 0.00880496 65.0549 0.780598L56.0841 11.795C55.6768 12.295 55.5028 12.9577 55.6084 13.6045C55.7144 14.2517 56.0891 14.8163 56.6323 15.1466C61.6053 18.1722 66.6804 21.6733 71.7473 25.5715L71.7301 25.5874C68.9902 28.1406 67.7323 31.9014 68.1482 35.5335C65.2632 35.3175 62.3589 36.3087 60.0926 38.4268L58.6526 39.7685C47.7345 32.1931 40.1458 28.2826 39.8156 28.1137C38.9442 27.6669 37.8942 27.8957 37.2655 28.6675L28.2947 39.6822C27.8877 40.1822 27.7137 40.8449 27.8193 41.492C27.9253 42.1389 28.3004 42.7035 28.8432 43.0338C33.8163 46.0589 38.8911 49.56 43.9583 53.4584L43.9366 53.4786C41.2005 56.0363 39.9461 59.8064 40.3664 63.4444C37.4869 63.241 34.5555 64.2177 32.3074 66.3125L30.865 67.6563C19.9461 60.0804 12.3567 56.1695 12.0265 56.0006C11.1551 55.5537 10.1051 55.7826 9.47642 56.5544L0.50565 67.5691C0.0986415 68.0691 -0.0754104 68.7317 0.030264 69.3789C0.136234 70.0258 0.511274 70.5904 1.05415 70.9206C6.02772 73.9461 11.103 77.4476 16.1707 81.3465L16.1525 81.3633C13.7058 83.6429 12.369 86.9143 12.4847 90.3385C12.599 93.725 14.1299 96.8499 16.6848 98.912C31.9276 111.212 43.4091 126.592 50.357 137.327C52.12 140.051 54.9238 141.849 58.049 142.26C58.5054 142.32 58.9622 142.349 59.4168 142.349C62.0845 142.349 64.6798 141.332 66.6989 139.459L69.5191 136.843C74.9973 144.162 78.1139 148.971 78.1472 149.023C78.4717 149.525 78.9784 149.867 79.55 149.968C79.6687 149.99 79.7877 150 79.9064 150C80.3599 150 80.8048 149.848 81.1733 149.562L93.5668 139.924C94.4021 139.274 94.6626 138.088 94.1822 137.123C91.6336 132.006 88.6907 126.918 85.4278 121.971C87.2382 119.853 88.1988 117.164 88.2093 114.419C90.5118 114.2 92.7083 113.219 94.4853 111.573L97.3079 108.956C102.786 116.275 105.903 121.084 105.936 121.136C106.261 121.638 106.768 121.98 107.339 122.082C107.458 122.103 107.577 122.113 107.695 122.113C108.149 122.113 108.594 121.961 108.962 121.675L121.356 112.037C122.191 111.387 122.452 110.201 121.971 109.236C119.423 104.119 116.48 99.0318 113.219 94.0875C115.004 91.9917 115.975 89.3054 115.983 86.5326C118.3 86.3168 120.504 85.3352 122.276 83.6843L125.097 81.0687C130.575 88.3879 133.692 93.1977 133.725 93.2491C134.05 93.7513 134.557 94.093 135.128 94.1947C135.247 94.2157 135.366 94.2262 135.485 94.2262C135.938 94.2262 136.383 94.0744 136.751 93.7878L149.145 84.15C149.98 83.5003 150.241 82.3139 149.76 81.3488ZM60.9457 12.6664L67.1968 4.99144C69.7936 6.41907 75.6591 9.78423 83.1647 14.9346L74.9805 22.5592C70.2896 18.916 65.5838 15.5966 60.9457 12.6664ZM33.1566 40.5536L39.4077 32.8783C42.0046 34.3063 47.87 37.6712 55.3756 42.8215L47.1916 50.446C42.5007 46.8026 37.7951 43.4833 33.1566 40.5536ZM5.36756 68.4405L11.6186 60.7652C14.2157 62.1932 20.0817 65.5584 27.588 70.7094L19.404 78.3342C14.7126 74.6902 10.0065 71.3705 5.36756 68.4405ZM63.8815 136.144C62.4323 137.488 60.4976 138.114 58.5786 137.862C56.6664 137.611 54.951 136.511 53.8724 134.844C46.7504 123.84 34.9679 108.064 19.279 95.404C17.7261 94.1505 16.7952 92.2473 16.7256 90.1824C16.6546 88.0794 17.4751 86.0708 18.977 84.6713L32.4643 72.106C32.4977 72.0749 32.5323 72.0466 32.564 72.0131L35.1319 69.6207C36.392 68.4466 38.0014 67.8443 39.6152 67.8443C40.8389 67.8443 42.0652 68.1906 43.1445 68.8965C53.473 75.6559 72.4041 90.1134 83.1456 110.994C83.4205 111.528 83.6236 112.084 83.7593 112.649C83.7627 112.664 83.7668 112.678 83.7704 112.693C84.3528 115.186 83.606 117.849 81.7085 119.609L68.4786 131.88L68.4723 131.884C68.4654 131.89 68.4606 131.897 68.4538 131.903L63.8815 136.144ZM80.3972 144.639C78.967 142.527 76.3543 138.767 72.6988 133.894L82.2782 125.008C84.9531 129.101 87.3994 133.288 89.5734 137.503L80.3972 144.639ZM91.6688 108.257C90.4668 109.371 88.952 109.979 87.3837 110.021C87.2351 109.641 87.0734 109.264 86.8836 108.895C75.6791 87.1147 56.0817 72.1324 45.3974 65.1402C45.3113 65.0838 45.2214 65.0371 45.1341 64.9835C43.9037 62.2234 44.5473 58.8561 46.7638 56.7844L48.6514 55.0258L48.6537 55.0236L60.2286 44.2399C60.2731 44.1997 60.3185 44.1619 60.3601 44.1174L62.9195 41.7329C64.9871 39.801 67.9161 39.3885 70.3851 40.6865C70.6 40.7988 70.7637 40.8943 70.933 41.0094C81.2592 47.7681 100.187 62.225 110.932 83.0968C111.201 83.6275 111.406 84.1894 111.542 84.7752L111.544 84.7823C112.147 87.3311 111.362 89.9917 109.497 91.725L96.2655 103.995L96.2614 103.997C96.2569 104.001 96.2538 104.006 96.2494 104.009L91.6688 108.257ZM108.186 116.752C106.756 114.64 104.143 110.881 100.488 106.007L110.068 97.1229C112.742 101.214 115.188 105.401 117.362 109.616L108.186 116.752ZM119.456 80.3723C118.261 81.485 116.747 82.0922 115.171 82.1334C115.024 81.7524 114.862 81.3762 114.675 81.0087C103.462 59.2259 83.8679 44.2446 73.219 37.275C73.1239 37.2101 73.0209 37.1475 72.9189 37.0846C71.687 34.3284 72.3318 30.967 74.5549 28.8957L76.4407 27.1387L76.4423 27.1373L88.0194 16.3514C88.0632 16.3118 88.1078 16.2747 88.1488 16.2309L90.7053 13.8491C92.9307 11.7836 96.2282 11.4837 98.7241 13.1203C109.05 19.8791 127.978 34.3359 138.726 55.2158C140.217 58.1252 139.626 61.6697 137.288 63.836L124.054 76.1081L124.051 76.1105C124.047 76.1135 124.044 76.1176 124.041 76.1208L119.456 80.3723ZM135.975 88.8648C134.545 86.7532 131.932 82.9937 128.277 78.12L137.857 69.2359C140.531 73.3274 142.977 77.5144 145.151 81.7291L135.975 88.8648Z" fill="black" fill-opacity="0.2"/>
<path d="M123.333 43.5311C111.025 26.312 95.2558 18.2873 94.5907 17.954C93.5357 17.4253 92.2688 17.8906 91.7615 18.9933C91.2544 20.0962 91.6993 21.42 92.7546 21.9506C92.9085 22.0279 108.274 29.8735 119.932 46.1835C120.349 46.7664 120.987 47.0737 121.634 47.0737C122.075 47.0737 122.521 46.9302 122.902 46.6334C123.841 45.9009 124.034 44.5122 123.333 43.5311Z" fill="black" fill-opacity="0.2"/>
<path d="M100.393 85.5628C100.636 85.5628 100.884 85.5185 101.126 85.4255C102.226 85.0022 102.789 83.7282 102.383 82.5795C97.6611 69.1912 77.1435 53.6731 76.2726 53.0188C75.3207 52.3046 73.9954 52.5309 73.3117 53.525C72.6276 54.5188 72.8443 55.9038 73.7956 56.6184C73.9984 56.7708 94.1283 71.997 98.4015 84.1119C98.7173 85.0077 99.5289 85.5628 100.393 85.5628Z" fill="black" fill-opacity="0.2"/>
<path d="M75.0344 119.75C75.2854 119.75 75.5406 119.703 75.7889 119.604C76.8842 119.169 77.4338 117.888 77.0171 116.744C73.5905 107.343 67.6748 98.3861 59.4337 90.1233C58.5877 89.2755 57.2447 89.3045 56.4337 90.1873C55.622 91.0704 55.6495 92.4736 56.4949 93.3212C64.2796 101.126 69.8499 109.538 73.0512 118.321C73.3735 119.206 74.1793 119.75 75.0344 119.75Z" fill="black" fill-opacity="0.2"/>
<path d="M49.2201 81.1998C43.408 76.7648 39.1206 74.4516 38.9409 74.3551C37.8987 73.7967 36.6205 74.2262 36.0857 75.3146C35.5502 76.403 35.961 77.7391 37.003 78.2988C37.0441 78.3211 41.1953 80.5659 46.717 84.7793C47.0944 85.0674 47.5325 85.206 47.9668 85.206C48.6209 85.206 49.2665 84.8909 49.6818 84.2969C50.373 83.3086 50.1664 81.9218 49.2201 81.1998Z" fill="black" fill-opacity="0.2"/>
</g>
<defs>
<clipPath id="clip0_113_32187">
<rect width="150" height="150" fill="white"/>
</clipPath>
</defs>
</svg>
