<svg width="150" height="114" viewBox="0 0 150 114" fill="none" xmlns="http://www.w3.org/2000/svg">
<g clip-path="url(#clip0_113_32187)">
<path d="M149.76 45.3488C147.211 40.2312 144.269 35.1441 141.007 30.1993C144.051 26.6404 144.684 21.448 142.466 17.1199C131.253 -4.66279 111.659 -19.6444 100.979 -26.6351C96.8972 -29.3116 91.514 -28.8302 87.8838 -25.4619L86.4417 -24.1184C75.5236 -31.6938 67.9349 -35.6043 67.6047 -35.7732C66.7332 -36.2203 65.683 -35.9912 65.0549 -35.2194L56.0841 -24.205C55.6768 -23.705 55.5028 -23.0423 55.6084 -22.3955C55.7144 -21.7483 56.0891 -21.1837 56.6323 -20.8534C61.6053 -17.8278 66.6804 -14.3267 71.7473 -10.4285L71.7301 -10.4126C68.9902 -7.85942 67.7323 -4.09855 68.1482 -0.466473C65.2632 -0.682533 62.3589 0.30872 60.0926 2.42682L58.6526 3.76849C47.7345 -3.80689 40.1458 -7.71741 39.8156 -7.88632C38.9442 -8.33313 37.8942 -8.10431 37.2655 -7.33252L28.2947 3.68222C27.8877 4.18222 27.7137 4.84486 27.8193 5.49204C27.9253 6.13891 28.3004 6.70353 28.8432 7.03377C33.8163 10.0589 38.8911 13.56 43.9583 17.4584L43.9366 17.4786C41.2005 20.0363 39.9461 23.8064 40.3664 27.4444C37.4869 27.241 34.5555 28.2177 32.3074 30.3125L30.865 31.6563C19.9461 24.0804 12.3567 20.1695 12.0265 20.0006C11.1551 19.5537 10.1051 19.7826 9.47642 20.5544L0.50565 31.5691C0.0986415 32.0691 -0.0754104 32.7317 0.030264 33.3789C0.136234 34.0258 0.511274 34.5904 1.05415 34.9206C6.02772 37.9461 11.103 41.4476 16.1707 45.3465L16.1525 45.3633C13.7058 47.6429 12.369 50.9143 12.4847 54.3385C12.599 57.725 14.1299 60.8499 16.6848 62.912C31.9276 75.2125 43.4091 90.5918 50.357 101.327C52.12 104.051 54.9238 105.849 58.049 106.26C58.5054 106.32 58.9622 106.349 59.4168 106.349C62.0845 106.349 64.6798 105.332 66.6989 103.459L69.5191 100.843C74.9973 108.162 78.1139 112.971 78.1472 113.023C78.4717 113.525 78.9784 113.867 79.55 113.968C79.6687 113.99 79.7877 114 79.9064 114C80.3599 114 80.8048 113.848 81.1733 113.562L93.5668 103.924C94.4021 103.274 94.6626 102.088 94.1822 101.123C91.6336 96.0059 88.6907 90.9177 85.4278 85.9711C87.2382 83.8534 88.1988 81.1639 88.2093 78.4195C90.5118 78.1996 92.7083 77.2189 94.4853 75.573L97.3079 72.9556C102.786 80.2747 105.903 85.0843 105.936 85.136C106.261 85.6382 106.768 85.9799 107.339 86.0816C107.458 86.1026 107.577 86.1131 107.695 86.1131C108.149 86.1131 108.594 85.9613 108.962 85.6747L121.356 76.0368C122.191 75.3872 122.452 74.2007 121.971 73.2357C119.423 68.1185 116.48 63.0318 113.219 58.0875C115.004 55.9917 115.975 53.3054 115.983 50.5326C118.3 50.3168 120.504 49.3352 122.276 47.6843L125.097 45.0687C130.575 52.3879 133.692 57.1977 133.725 57.2491C134.05 57.7513 134.557 58.093 135.128 58.1947C135.247 58.2157 135.366 58.2262 135.485 58.2262C135.938 58.2262 136.383 58.0744 136.751 57.7878L149.145 48.15C149.98 47.5003 150.241 46.3139 149.76 45.3488ZM60.9457 -23.3336L67.1968 -31.0086C69.7936 -29.5809 75.6591 -26.2158 83.1647 -21.0654L74.9805 -13.4408C70.2896 -17.084 65.5838 -20.4034 60.9457 -23.3336ZM33.1566 4.55358L39.4077 -3.12167C42.0046 -1.69374 47.87 1.67118 55.3756 6.82149L47.1916 14.446C42.5007 10.8026 37.7951 7.48328 33.1566 4.55358ZM5.36756 32.4405L11.6186 24.7652C14.2157 26.1932 20.0817 29.5584 27.588 34.7094L19.404 42.3342C14.7126 38.6902 10.0065 35.3705 5.36756 32.4405ZM63.8815 100.144C62.4323 101.488 60.4976 102.114 58.5786 101.862C56.6664 101.611 54.951 100.511 53.8724 98.8443C46.7504 87.8398 34.9679 72.0644 19.279 59.404C17.7261 58.1505 16.7952 56.2473 16.7256 54.1824C16.6546 52.0794 17.4751 50.0708 18.977 48.6713L32.4643 36.106C32.4977 36.0749 32.5323 36.0466 32.564 36.0131L35.1319 33.6207C36.392 32.4466 38.0014 31.8443 39.6152 31.8443C40.8389 31.8443 42.0652 32.1906 43.1445 32.8965C53.473 39.6559 72.4041 54.1134 83.1456 74.9936C83.4205 75.5279 83.6236 76.0842 83.7593 76.6494C83.7627 76.6642 83.7668 76.6785 83.7704 76.6931C84.3528 79.1855 83.606 81.8489 81.7085 83.6088L68.4786 95.8801L68.4723 95.8842C68.4654 95.8899 68.4606 95.8972 68.4538 95.9029L63.8815 100.144ZM80.3972 108.639C78.967 106.527 76.3543 102.767 72.6988 97.8936L82.2782 89.0084C84.9531 93.1013 87.3994 97.2885 89.5734 101.503L80.3972 108.639ZM91.6688 72.257C90.4668 73.3708 88.952 73.9789 87.3837 74.0215C87.2351 73.6412 87.0734 73.2642 86.8836 72.8952C75.6791 51.1147 56.0817 36.1324 45.3974 29.1402C45.3113 29.0838 45.2214 29.0371 45.1341 28.9835C43.9037 26.2234 44.5473 22.8561 46.7638 20.7844L48.6514 19.0258L48.6537 19.0236L60.2286 8.23993C60.2731 8.19973 60.3185 8.16193 60.3601 8.1174L62.9195 5.73291C64.9871 3.80096 67.9161 3.38847 70.3851 4.68654C70.6 4.79878 70.7637 4.89433 70.933 5.00936C81.2592 11.7681 100.187 26.225 110.932 47.0968C111.201 47.6275 111.406 48.1894 111.542 48.7752L111.544 48.7823C112.147 51.3311 111.362 53.9917 109.497 55.725L96.2655 67.9946L96.2614 67.9973C96.2569 68.001 96.2538 68.0058 96.2494 68.0095L91.6688 72.257ZM108.186 80.7517C106.756 78.6399 104.143 74.8806 100.488 70.0067L110.068 61.1229C112.742 65.2144 115.188 69.4013 117.362 73.616L108.186 80.7517ZM119.456 44.3723C118.261 45.485 116.747 46.0922 115.171 46.1334C115.024 45.7524 114.862 45.3762 114.675 45.0087C103.462 23.2259 83.8679 8.24464 73.219 1.27501C73.1239 1.21007 73.0209 1.14753 72.9189 1.08461C71.687 -1.67163 72.3318 -5.03299 74.5549 -7.10432L76.4407 -8.86126L76.4423 -8.86265L88.0194 -19.6486C88.0632 -19.6882 88.1078 -19.7253 88.1488 -19.7691L90.7053 -22.1509C92.9307 -24.2164 96.2282 -24.5163 98.7241 -22.8797C109.05 -16.1209 127.978 -1.66405 138.726 19.2158C140.217 22.1252 139.626 25.6697 137.288 27.836L124.054 40.1081L124.051 40.1105C124.047 40.1135 124.044 40.1176 124.041 40.1208L119.456 44.3723ZM135.975 52.8648C134.545 50.7532 131.932 46.9937 128.277 42.12L137.857 33.2359C140.531 37.3274 142.977 41.5144 145.151 45.7291L135.975 52.8648Z" fill="black" fill-opacity="0.2"/>
<path d="M123.333 7.53107C111.025 -9.688 95.2558 -17.7127 94.5907 -18.046C93.5357 -18.5747 92.2688 -18.1094 91.7615 -17.0067C91.2544 -15.9038 91.6993 -14.58 92.7546 -14.0494C92.9085 -13.9721 108.274 -6.1265 119.932 10.1835C120.349 10.7664 120.987 11.0737 121.634 11.0737C122.075 11.0737 122.521 10.9302 122.902 10.6334C123.841 9.90087 124.034 8.5122 123.333 7.53107Z" fill="black" fill-opacity="0.2"/>
<path d="M100.393 49.5628C100.636 49.5628 100.884 49.5185 101.126 49.4255C102.226 49.0022 102.789 47.7282 102.383 46.5795C97.6611 33.1912 77.1435 17.6731 76.2726 17.0188C75.3207 16.3046 73.9954 16.5309 73.3117 17.525C72.6276 18.5188 72.8443 19.9038 73.7956 20.6184C73.9984 20.7708 94.1283 35.997 98.4015 48.1119C98.7173 49.0077 99.5289 49.5628 100.393 49.5628Z" fill="black" fill-opacity="0.2"/>
<path d="M75.0344 83.7498C75.2854 83.7498 75.5406 83.7028 75.7889 83.6042C76.8842 83.1685 77.4338 81.8881 77.0171 80.7443C73.5905 71.3427 67.6748 62.3861 59.4337 54.1233C58.5877 53.2755 57.2447 53.3045 56.4337 54.1873C55.622 55.0704 55.6495 56.4736 56.4949 57.3212C64.2796 65.1263 69.8499 73.5378 73.0512 82.3213C73.3735 83.2059 74.1793 83.7498 75.0344 83.7498Z" fill="black" fill-opacity="0.2"/>
<path d="M49.2201 45.1998C43.408 40.7648 39.1206 38.4516 38.9409 38.3551C37.8987 37.7967 36.6205 38.2262 36.0857 39.3146C35.5502 40.403 35.961 41.7391 37.003 42.2988C37.0441 42.3211 41.1953 44.5659 46.717 48.7793C47.0944 49.0674 47.5325 49.206 47.9668 49.206C48.6209 49.206 49.2665 48.8909 49.6818 48.2969C50.373 47.3086 50.1664 45.9218 49.2201 45.1998Z" fill="black" fill-opacity="0.2"/>
</g>
<defs>
<clipPath id="clip0_113_32187">
<rect width="150" height="150" fill="white" transform="translate(0 -36)"/>
</clipPath>
</defs>
</svg>
