<svg width="80" height="80" viewBox="0 0 80 80" fill="none" xmlns="http://www.w3.org/2000/svg">
<g clip-path="url(#clip0_1_539)">
<path d="M64.0857 10.8332C59.0101 6.60556 52.8948 3.72134 46.4009 2.49228C40.047 1.28979 33.4356 1.68228 27.2814 3.62744C26.5664 3.85353 26.1701 4.61603 26.3961 5.33103C26.622 6.04603 27.3848 6.44243 28.0997 6.21649C33.8275 4.40603 39.9812 4.04056 45.8959 5.16009C51.9371 6.30353 57.626 8.98665 62.3477 12.9195C62.6015 13.1309 62.9096 13.2338 63.2158 13.2338C63.6049 13.2338 63.9913 13.0674 64.2597 12.7451C64.7399 12.1691 64.6618 11.313 64.0857 10.8332Z" fill="black"/>
<path d="M69.1098 15.8455C68.6289 15.2708 67.7725 15.1947 67.1975 15.6757C66.6225 16.1568 66.5464 17.013 67.0275 17.588C72.8353 24.5288 75.8248 33.3517 75.4454 42.4319C75.0639 51.5661 71.2909 60.1595 64.8217 66.6285C58.4091 73.0412 49.893 76.8107 40.8421 77.2427C31.8529 77.6721 23.0782 74.7898 16.1356 69.1271C15.5546 68.6531 14.6995 68.7401 14.2256 69.3212C13.7517 69.9023 13.8385 70.7573 14.4196 71.2312C21.3966 76.9218 30.0916 79.9996 39.088 79.9996C39.714 79.9996 40.3432 79.9846 40.9716 79.9546C50.6985 79.4904 59.8505 75.4395 66.7417 68.5484C73.6937 61.5964 77.7484 52.3615 78.1583 42.545C78.5659 32.788 75.3525 23.306 69.1098 15.8455Z" fill="black"/>
<path d="M24.2186 6.18385C23.8988 5.50557 23.0896 5.2151 22.4116 5.53526C18.346 7.45307 14.6585 10.0515 11.4516 13.2584C4.56053 20.1498 0.509604 29.3018 0.0453861 39.0285C-0.415707 48.6885 2.68226 58.1181 8.76896 65.5805C9.03724 65.9097 9.42802 66.0801 9.82177 66.0801C10.1235 66.0801 10.4271 65.98 10.679 65.7745C11.2601 65.3006 11.3469 64.4456 10.873 63.8645C5.21053 56.9219 2.32835 48.1475 2.75741 39.1578C3.18944 30.1071 6.95897 21.5909 13.3716 15.1782C16.3568 12.1931 19.7882 9.77478 23.5702 7.99072C24.2482 7.67104 24.5388 6.86197 24.2186 6.18385Z" fill="black"/>
<path d="M63.2405 31.9609C62.9803 31.2576 62.1995 30.8985 61.4963 31.1582C60.793 31.4184 60.4338 32.199 60.6936 32.9024C61.7625 35.7934 62.2356 38.8274 62.0999 41.9199C62.0669 42.669 62.6474 43.3029 63.3966 43.3357C63.4169 43.3366 63.4372 43.3369 63.4572 43.3369C64.1795 43.3371 64.7803 42.7679 64.8123 42.0391C64.9642 38.5837 64.4355 35.1927 63.2405 31.9609Z" fill="black"/>
<path d="M63.1252 45.2766C62.3955 45.102 61.6635 45.5521 61.4893 46.2815C60.504 50.4026 58.3907 54.1732 55.3782 57.1857C49.0396 63.5243 39.5088 65.6102 31.0964 62.5C30.3929 62.2401 29.6123 62.5993 29.3523 63.3027C29.0921 64.006 29.4517 64.7868 30.155 65.0468C33.0504 66.1172 36.0628 66.6368 39.0546 66.6368C45.7793 66.6368 52.3941 64.0093 57.298 59.1055C60.6655 55.738 63.0279 51.5219 64.1299 46.9129C64.3041 46.1835 63.8543 45.4512 63.1252 45.2766Z" fill="black"/>
<path d="M48.0401 16.7605C38.6371 13.2841 27.9821 15.6166 20.8956 22.703C13.81 29.7886 11.478 40.443 14.9544 49.8461C15.157 50.3942 15.6759 50.7333 16.228 50.7333C16.3844 50.7333 16.5433 50.7061 16.6986 50.6487C17.4019 50.3886 17.7612 49.6079 17.5012 48.9047C14.3911 40.4925 16.4773 30.9614 22.8156 24.623C29.1546 18.2836 38.6865 16.1969 47.0987 19.3071C47.8015 19.5666 48.5827 19.2077 48.8427 18.5044C49.1029 17.8013 48.7434 17.0205 48.0401 16.7605Z" fill="black"/>
<path d="M77.9803 2.01925C75.2878 -0.673085 70.907 -0.673085 68.2145 2.01925C65.8505 4.38331 65.5622 8.04877 67.3494 10.7303L58.9789 19.1008L58.4033 18.5252C57.4035 17.5253 56.0739 16.9744 54.6597 16.9744C53.2455 16.9744 51.916 17.525 50.9161 18.5252C49.9163 19.525 49.3653 20.8545 49.3653 22.2687C49.3653 23.683 49.916 25.0125 50.9161 26.0123L51.4918 26.588L47.5796 30.5L44.2202 27.1406C43.6901 26.6105 42.8304 26.6105 42.3004 27.1406L36.7329 32.7081C36.2027 33.2383 36.2027 34.0979 36.7329 34.6279L40.0922 37.9873L36.1802 41.899L35.6046 41.3234C34.6048 40.3236 33.2752 39.7728 31.861 39.7728C30.4468 39.7728 29.1173 40.3234 28.1174 41.3234C27.1176 42.3232 26.5668 43.6528 26.5668 45.067C26.5668 46.4812 27.1174 47.8107 28.1174 48.8106L28.693 49.3862L24.7812 53.2981L21.4218 49.9387C20.8917 49.4085 20.032 49.4085 19.502 49.9387C18.9718 50.4688 18.9718 51.3285 19.502 51.8585L27.181 59.5377L23.5335 63.1852L16.8143 56.466L18.5171 54.7632C19.0473 54.2331 19.0473 53.3734 18.5171 52.8434C17.987 52.3131 17.1273 52.3132 16.5973 52.8434L13.9346 55.506C13.4045 56.0362 13.4045 56.8959 13.9346 57.4259L17.2939 60.7852L6.13809 71.9421C5.60794 72.4722 5.60794 73.3319 6.13809 73.8619C6.40309 74.1269 6.75059 74.2596 7.09794 74.2596C7.44528 74.2596 7.79278 74.1271 8.05778 73.8619L19.2137 62.706L22.5738 66.0658C22.8284 66.3205 23.1737 66.4635 23.5337 66.4635C23.8937 66.4635 24.2392 66.3205 24.4935 66.0658L30.061 60.4984C30.5912 59.9682 30.5912 59.1085 30.061 58.5785L26.7012 55.2185L30.6132 51.3068L31.1893 51.8829C32.1891 52.8827 33.5187 53.4335 34.9329 53.4335C36.3471 53.4335 37.6766 52.8829 38.6765 51.8829C39.6763 50.8831 40.2271 49.5535 40.2271 48.1393C40.2271 46.7251 39.6765 45.3956 38.6765 44.3957L38.1004 43.8193L42.0121 39.9075L45.3719 43.2673C45.6369 43.5323 45.9844 43.665 46.3318 43.665C46.6791 43.665 47.0266 43.5325 47.2916 43.2673L52.8591 37.6998C53.3893 37.1697 53.3893 36.31 52.8591 35.78L49.4993 32.42L53.4113 28.5079L53.9874 29.0844C54.9872 30.0842 56.3167 30.6351 57.731 30.6351C59.1452 30.6351 60.4747 30.0845 61.4745 29.0844C62.4744 28.0845 63.0253 26.755 63.0253 25.3408C63.0253 23.9266 62.4747 22.597 61.4745 21.5972L60.8985 21.0211L70.1341 11.7855C70.6642 11.2553 70.6642 10.3956 70.1341 9.86564C69.3425 9.07408 68.9069 8.0219 68.9069 6.90253C68.9069 5.78315 69.3428 4.73097 70.1341 3.93941C71.7678 2.30566 74.4264 2.30582 76.0601 3.93941C77.6939 5.57315 77.6939 8.23174 76.0601 9.86549C75.53 10.3956 75.53 11.2553 76.0601 11.7853C76.5903 12.3156 77.45 12.3155 77.98 11.7853C80.6726 9.09252 80.6726 4.71159 77.9803 2.01925ZM36.7569 49.9629C36.2699 50.4499 35.6219 50.7182 34.933 50.7182C34.2441 50.7182 33.5965 50.4499 33.1093 49.9629L30.0376 46.8912C29.5505 46.4042 29.2823 45.7562 29.2823 45.0674C29.2821 44.3785 29.5504 43.7309 30.0376 43.2435C30.5246 42.7565 31.1726 42.4882 31.8613 42.4882C32.5502 42.4882 33.1979 42.7565 33.6852 43.2435L36.7569 46.3153C37.244 46.8023 37.5122 47.4503 37.5122 48.1392C37.5122 48.8281 37.244 49.4759 36.7569 49.9629ZM49.9797 36.74L46.3322 40.3875L39.613 33.6683L43.2605 30.0208L49.9797 36.74ZM59.5552 27.1645C59.0681 27.6519 58.4202 27.9198 57.7314 27.9198C57.0425 27.9198 56.3949 27.6515 55.9075 27.1645L52.8358 24.0928C52.3488 23.6058 52.0805 22.9578 52.0805 22.2689C52.0805 21.5802 52.3488 20.9325 52.8358 20.4453C53.3228 19.9583 53.9707 19.69 54.6597 19.69C55.3488 19.69 55.9963 19.9583 56.4835 20.4453L59.5552 23.517C60.0422 24.0041 60.3105 24.652 60.3105 25.3408C60.3105 26.0295 60.0422 26.6772 59.5552 27.1645Z" fill="black"/>
</g>
<defs>
<clipPath id="clip0_1_539">
<rect width="80" height="80" fill="white"/>
</clipPath>
</defs>
</svg>
