<svg width="214" height="140" viewBox="0 0 214 140" fill="none" xmlns="http://www.w3.org/2000/svg">
<g clip-path="url(#clip0_1_500)">
<path d="M184.898 115.397C185.62 122.099 183.237 127.195 179.133 132.401C177.949 133.695 177.949 133.695 176.741 135.015C175.867 135.97 174.993 136.925 174.092 137.909C173.639 138.397 173.185 138.884 172.718 139.386C171.341 140.869 169.981 142.365 168.622 143.864C157.418 156.01 145.628 161.509 129.146 162.373C101.116 163.358 79.0977 153.004 58.7787 134.299C46.462 122.749 38.4052 110.375 37.2874 93.0696C37.3917 79.198 43.5164 70.6682 52.5755 60.8125C54.0111 59.2435 55.4217 57.6544 56.8325 56.0629C63.2258 48.9894 69.5972 44.1285 78.7784 41.1544C92.0729 41.3297 101.286 49.0848 110.403 57.8185C123.215 69.7982 135.17 77.5924 152.074 82.9482C166.657 87.6394 181.25 99.8869 184.898 115.397ZM144.998 86.123C129.303 80.7652 119.111 73.0785 107.212 61.6473C100.162 54.9204 92.3304 47.9677 82.2043 46.8482C81.2915 47.354 80.3787 47.8597 79.4383 48.3808C78.9522 47.9343 78.4662 47.4878 77.9655 47.0277C70.9457 49.3434 66.4174 53.6843 62.2251 59.7258C57.5389 69.8441 57.8108 79.5276 61.3807 89.929C65.8316 100.245 72.4517 107.863 80.7253 115.341C82.1387 116.627 82.1387 116.627 83.5807 117.939C90.7285 124.291 97.563 129.138 106.371 132.877C107.211 133.272 108.051 133.667 108.916 134.074C125.744 141.366 147.621 142.093 164.753 135.846C171.103 132.917 177.112 128.131 179.631 121.401C180.257 116.032 178.154 111.023 175.325 106.602C166.674 96.0639 157.97 90.2462 144.998 86.123ZM160.542 141.907C158.609 142.318 156.682 142.76 154.758 143.214C134.049 147.476 111.966 142.603 93.9801 131.693C77.1798 120.552 59.6879 104.892 55.1816 84.4245C54.8367 82.5732 54.8367 82.5732 53.2319 81.3388C53.6784 80.8528 54.1249 80.3667 54.585 79.866C54.5473 77.5093 54.4416 75.1531 54.2859 72.8013C54.2227 71.3885 54.1621 69.9755 54.1064 68.5624C47.0798 75.4987 43.8641 80.924 43.0236 90.9716C43.2625 106.99 50.7712 119.681 62.0732 130.681C80.2819 147.711 101.723 157.47 126.973 156.776C128.834 156.697 128.834 156.697 130.732 156.616C131.725 156.574 132.717 156.532 133.74 156.489C142.743 155.806 151.942 153.014 158.068 146.17C158.671 145.5 159.274 144.831 159.896 144.141C160.352 143.627 160.808 143.113 161.278 142.584C161.035 142.36 160.792 142.137 160.542 141.907Z" fill="black" fill-opacity="0.2"/>
<path d="M138.547 90.4657C140.244 92.661 141.545 94.5661 142.59 97.1507C144.267 100.125 145.738 100.33 148.916 101.35C149.888 102.244 150.86 103.137 151.862 104.057C150.887 105.85 150.887 105.85 149.892 107.679C148.25 107.515 146.608 107.351 144.917 107.182C145.156 110.038 145.317 111.702 146.629 114.187C148.818 115.685 151.015 116.648 153.461 117.668C157.187 119.232 160.533 121.296 164.003 123.359C163.028 125.152 163.028 125.152 162.033 126.981C157.514 126.176 153.431 124.86 149.137 123.281C149.476 124.376 149.814 125.471 150.162 126.599C150.389 127.816 150.616 129.033 150.849 130.286C149.956 131.258 149.063 132.23 148.143 133.232C146.387 132.562 146.387 132.562 144.521 131.262C143.962 128.955 143.962 128.955 143.644 126.212C142.913 122.593 142.507 121.18 139.541 118.899C137.003 117.62 134.492 116.495 131.823 115.521C131.842 118.74 132.372 121.485 133.268 124.572C133.499 125.378 133.73 126.184 133.968 127.014C134.147 127.622 134.326 128.229 134.511 128.855C133.375 129.603 132.239 130.352 131.068 131.124C127.861 127.506 126.72 124.691 125.775 119.98C124.568 114.925 124.568 114.925 121.108 111.109C120.126 110.655 119.143 110.2 118.131 109.731C117.291 109.212 116.452 108.693 115.587 108.158C114.988 107.804 114.389 107.45 113.772 107.085C113.622 110.404 113.759 112.316 115.487 115.196C118.219 118.012 121.06 120.029 124.321 122.209C123.346 124.002 123.346 124.002 122.351 125.831C121.48 125.59 120.608 125.35 119.71 125.102C116.715 124.366 116.715 124.366 114.561 125.718C113.886 126.316 113.886 126.316 113.197 126.926C112.486 125.993 111.775 125.059 111.042 124.098C108.926 121.559 106.995 120.074 104.042 118.6C102.952 118.018 101.861 117.437 100.738 116.838C100.699 115.905 100.659 114.972 100.618 114.012C101.288 113.283 101.958 112.554 102.648 111.802C105.263 111.913 105.263 111.913 107.623 112.3C106.625 107.684 105.395 105.426 101.553 102.648C98.9462 101.427 96.3411 100.436 93.632 99.4449C93.6555 103.887 94.4386 107.815 95.5834 112.102C94.4473 112.85 93.3112 113.599 92.1407 114.371C88.5396 110.095 87.6784 105.383 86.3236 100.061C84.7714 96.3481 83.469 95.4751 79.9398 93.655C79.0975 93.219 78.2552 92.783 77.3874 92.3337C76.5746 91.9494 75.7619 91.5651 74.9246 91.1691C74.0987 90.7761 73.2728 90.3832 72.4219 89.9784C71.8029 89.6881 71.184 89.3977 70.5462 89.0985C70.5067 88.166 70.4672 87.2334 70.4266 86.2726C71.0963 85.5436 71.7661 84.8146 72.4562 84.0635C75.7794 85.3241 79.1025 86.5847 82.5263 87.8835C82.0724 83.0575 82.0724 83.0575 79.1028 79.5024C77.0444 78.3454 74.9556 77.2972 72.8337 76.2623C71.126 75.1692 69.4231 74.0682 67.7388 72.9394C68.6121 71.5011 69.4854 70.0628 70.3852 68.5809C73.3753 69.6216 75.2701 70.3529 77.6294 72.5206C78.0375 71.299 78.0375 71.299 78.4538 70.0528C78.8121 69.2056 79.1703 68.3584 79.5394 67.4855C80.229 67.2228 80.9185 66.96 81.6289 66.6893C85.3632 71.3084 85.3632 71.3084 85.4305 72.898C89.8694 76.4454 93.762 78.4464 99.1826 80.1009C98.909 79.2421 98.6355 78.3833 98.3536 77.4985C98.0175 76.3687 97.6813 75.2389 97.335 74.0748C96.9921 72.9563 96.6491 71.8377 96.2958 70.6852C95.8182 67.504 95.8182 67.504 97.0467 64.9141C97.7486 64.0386 97.7486 64.0386 98.4647 63.1455C102.681 66.059 103.128 69.7967 104.034 74.5432C104.158 75.2627 104.282 75.9823 104.41 76.7237C105.299 80.8646 105.299 80.8646 108.002 83.9908C111.042 85.7052 113.729 86.5857 117.173 87.1242C116.891 85.9684 116.608 84.8126 116.317 83.6218C117.21 82.6498 118.104 81.6777 119.024 80.6762C119.976 81.103 120.928 81.5298 121.909 81.9695C122.253 83.1812 122.596 84.3928 122.95 85.6411C123.904 88.9984 124.293 89.5972 127.154 91.9655C128.156 92.5215 129.157 93.0776 130.189 93.6505C131.029 94.1697 131.868 94.6888 132.733 95.2237C133.332 95.5779 133.931 95.9321 134.548 96.297C134.823 94.5336 134.823 94.5336 135.105 92.7347C136.861 91.3775 136.861 91.3775 138.547 90.4657ZM131.391 100.102C130.409 99.7157 129.426 99.3295 128.414 98.9315C127.283 98.5045 127.283 98.5045 126.13 98.0689C126.768 103.521 126.768 103.521 128.698 108.576C131.233 110.056 131.233 110.056 134.201 111.086C135.189 111.465 136.178 111.845 137.196 112.236C137.958 112.512 138.72 112.788 139.504 113.073C139.486 105.346 138.674 102.916 131.391 100.102ZM112.622 92.4481C111.362 92.0471 111.362 92.0471 110.077 91.638C109.437 91.4425 108.798 91.2469 108.139 91.0455C108.719 96.9286 108.719 96.9286 112.12 101.493C115.172 102.766 118.272 103.744 121.454 104.637C121.4 101.838 121.094 99.6603 120.418 96.8952C117.561 94.2705 116.19 93.5647 112.622 92.4481ZM94.3247 84.4645C92.5409 83.771 92.5409 83.771 90.7211 83.0634C89.803 82.71 88.8848 82.3566 87.9388 81.9924C88.1785 83.515 88.1785 83.515 88.4229 85.0683C88.9145 88.3208 88.9145 88.3208 88.9744 89.7337C92.8336 94.3137 97.9648 95.7525 103.463 97.6131C103.356 94.4695 103.094 91.529 102.367 88.4589C100.055 86.3343 97.2364 85.5917 94.3247 84.4645Z" fill="black" fill-opacity="0.2"/>
<path d="M60.9961 114.274C61.6578 115.078 62.3195 115.882 63.0013 116.71C69.332 124.379 77.178 130.901 85.2968 136.6C84.3218 138.393 84.3218 138.393 83.327 140.222C76.8454 139.209 72.2943 134.407 67.5933 130.095C66.7942 129.386 66.7942 129.386 65.9789 128.663C62.2069 125.216 59.5474 121.636 56.8769 117.279C59.5831 114.334 59.5831 114.334 60.9961 114.274Z" fill="black" fill-opacity="0.2"/>
<path d="M169.913 112.493C168.198 114.111 168.198 114.111 165.793 115.498C163.107 114.929 163.107 114.929 160.275 113.653C159.335 113.249 158.396 112.844 157.428 112.427C154.99 111.004 153.995 110.031 152.718 107.559C153.611 106.587 154.504 105.615 155.424 104.614C157.556 105.397 159.682 106.194 161.806 106.997C162.991 107.44 164.176 107.882 165.396 108.338C168.38 109.727 168.38 109.727 169.913 112.493Z" fill="black" fill-opacity="0.2"/>
<path d="M101.935 145.096C100.575 146.088 99.216 147.08 97.8154 148.102C96.4 147.524 94.9901 146.932 93.5826 146.335C92.4041 145.843 92.4041 145.843 91.2017 145.341C89.1583 144.222 89.1583 144.222 87.6257 141.456C88.985 140.464 90.3443 139.472 91.7449 138.45C95.6529 140.286 98.9224 141.972 101.935 145.096Z" fill="black" fill-opacity="0.2"/>
<path d="M79.001 54.7688C81.1158 57.455 82.0299 58.9842 82.8624 62.3905C81.5031 63.3823 80.1438 64.374 78.7432 65.3959C76.6284 62.7097 75.7144 61.1805 74.8818 57.7742C76.2411 56.7824 77.6005 55.7907 79.001 54.7688Z" fill="black" fill-opacity="0.2"/>
</g>
<defs>
<clipPath id="clip0_1_500">
<rect width="151" height="151" fill="white" transform="translate(102.161) rotate(42.5754)"/>
</clipPath>
</defs>
</svg>
