<svg width="89" height="89" viewBox="0 0 89 89" fill="none" xmlns="http://www.w3.org/2000/svg">
<g clip-path="url(#clip0_1_507)">
<path d="M38.1009 0.488964C43.0292 3.26148 45.9687 9.5608 47.9766 14.6016C48.2373 14.6064 48.498 14.6097 48.7588 14.6125C48.904 14.6145 49.0492 14.6165 49.1988 14.6186C49.7296 14.6105 49.7296 14.6105 50.309 14.5168C55.3713 13.8487 60.3938 14.7644 65.0762 16.691C66.5754 17.2501 68.1797 17.235 69.6426 16.585C70.3609 16.1557 70.8914 15.57 71.4434 14.9493C71.7351 14.6419 71.9324 14.444 72.3125 14.254C73.0472 14.2469 73.6833 14.3068 74.3115 14.6994C74.6858 15.3076 74.8104 15.8118 74.7461 16.5137C73.9441 19.3166 71.9711 21.84 69.8789 23.8145C70.3842 24.3388 70.9169 24.7959 71.4868 25.2486C72.3401 25.9404 73.1169 26.6733 73.8769 27.4649C74.0204 27.6083 74.1638 27.7517 74.3115 27.8995C74.4549 28.0429 74.5983 28.1863 74.7461 28.3341C74.8859 28.4618 74.8859 28.4618 75.0286 28.5921C80.694 33.927 84.2761 42.6254 84.5246 50.3264C84.7747 59.8627 81.9978 68.6529 75.4536 75.7443C75.1312 76.0959 74.8242 76.4557 74.5179 76.8212C69.1027 82.9889 60.8666 86.7339 52.9632 88.3482C52.8348 88.3745 52.7064 88.4008 52.5741 88.4278C52.1435 88.5106 51.7124 88.5833 51.2793 88.6524C51.0853 88.6834 50.8914 88.7143 50.6916 88.7462C48.6684 89.0348 46.6609 89.0694 44.6195 89.0653C44.3552 89.0651 44.3552 89.0651 44.0856 89.065C41.2701 89.058 38.5681 88.9075 35.8086 88.3048C35.6302 88.2666 35.4518 88.2284 35.268 88.1891C28.2585 86.6509 21.8821 83.5067 16.5137 78.7442C16.3687 78.6157 16.3687 78.6157 16.2207 78.4846C10.4771 73.3606 6.72845 66.7637 5.041 59.2755C5.00958 59.141 4.97815 59.0065 4.94577 58.8679C4.02199 54.7412 4.08409 49.6554 5.041 45.543C5.08575 45.3422 5.08575 45.3422 5.1314 45.1372C5.84876 41.9812 6.98131 39.0017 8.51757 36.1563C8.57333 36.0518 8.6291 35.9472 8.68656 35.8395C10.746 32.004 13.5832 28.9495 16.6683 25.914C17.0826 25.5061 17.494 25.0956 17.9043 24.6837C17.7403 24.4971 17.7403 24.4971 17.5729 24.3068C15.6642 22.0848 13.1285 18.7494 13.1485 15.684C13.2484 15.0646 13.5971 14.7958 14.0801 14.4278C14.6275 14.1541 15.0396 14.1935 15.6445 14.254C16.2692 14.6788 16.6375 15.0587 17.1003 15.6555C17.8567 16.5018 18.8497 16.9521 19.9794 17.0705C21.7198 17.1101 23.2667 16.5317 24.8683 15.9162C28.2971 14.6071 31.6528 14.3958 35.2871 14.4278C34.9979 13.9241 34.7081 13.4208 34.418 12.9177C34.3312 12.767 34.2445 12.6163 34.1551 12.461C33.6558 11.5973 33.1412 10.7487 32.6036 9.90828C31.3583 7.90511 30.7776 5.6987 31.2015 3.34559C31.5584 2.02486 32.0697 1.06901 33.2663 0.358593C34.8727 -0.354008 36.5242 -0.234056 38.1009 0.488964ZM35.1133 3.65046C34.6999 4.29642 34.6936 4.80679 34.7656 5.56257C35.1823 7.06442 35.9286 8.33129 36.7429 9.64753C38.6198 12.7444 40.3197 15.9216 41.7398 19.2554C41.8332 19.4746 41.9275 19.6934 42.0228 19.9118C42.9323 22.01 42.9323 22.01 42.5879 23.293C42.4032 23.6298 42.4032 23.6298 42.0664 23.8145C40.8955 24.0789 40.8955 24.0789 40.2392 23.8084C39.6726 23.361 39.4191 22.8364 39.1222 22.1958C39.0626 22.0736 39.003 21.9515 38.9416 21.8256C38.6476 21.2149 38.3776 20.6012 38.1376 19.9672C38.0943 19.8557 38.0511 19.7442 38.0065 19.6293C37.89 19.3225 37.7803 19.0131 37.6711 18.7036C37.4105 18.2031 37.4105 18.2031 36.8604 18.102C36.6259 18.0882 36.3911 18.0811 36.1562 18.0782C36.0069 18.072 35.8575 18.0659 35.7036 18.0596C31.8821 17.9323 28.6075 18.4355 25.0397 19.7695C23.2361 20.4423 21.5537 20.7128 19.6426 20.8594C21.6459 23.6847 24.539 25.675 27.9755 26.3344C30.1759 26.6481 32.3485 26.4788 34.5096 26.0193C35.2925 25.8652 36.0603 25.7512 36.8516 25.9005C37.2994 26.2282 37.4768 26.4556 37.7207 26.9434C37.8694 27.9841 37.4219 28.5594 36.8516 29.377C36.4982 29.8332 36.1271 30.273 35.7543 30.7133C33.2282 33.6782 33.2282 33.6782 31.9844 37.1993C35.3366 36.1312 39.749 34.625 41.8926 31.6368C42.0944 31.1427 42.256 30.6453 42.4174 30.1368C42.5879 29.7247 42.5879 29.7247 43.0768 29.3336C43.7546 29.1741 44.1784 29.1787 44.8476 29.377C45.3957 29.8642 45.578 30.3318 45.7711 31.0175C46.1415 32.1786 46.8242 32.6026 47.8672 33.1754C49.2157 33.8632 50.4612 34.26 51.9746 34.418C52.4202 34.475 52.8656 34.5329 53.3109 34.5919C53.6376 34.6342 53.6376 34.6342 53.9709 34.6774C54.709 34.784 55.4226 34.9356 56.1465 35.1134C55.4903 32.7349 54.1943 30.9542 52.4961 29.2032C52.1787 28.8489 51.8669 28.491 51.5584 28.129C51.2831 27.8082 51.2831 27.8082 50.9731 27.5179C50.3774 26.9208 50.1702 26.5402 50.1603 25.6832C50.1861 25.1797 50.2493 24.8185 50.4101 24.336C51.5602 23.8978 52.4264 24.0346 53.6042 24.3034C57.7327 25.1997 61.8378 25.0473 65.4877 22.7111C66.1837 22.2027 66.8393 21.6466 67.4453 21.0333C67.4453 20.9759 67.4453 20.9185 67.4453 20.8594C67.2699 20.84 67.0944 20.8205 66.9136 20.8004C65.017 20.5536 63.3227 20.0157 61.5352 19.3432C60.2123 18.849 58.9386 18.4588 57.5371 18.252C57.3348 18.2202 57.1324 18.1884 56.924 18.1556C55.8865 18.03 54.8432 18.0531 53.7998 18.0565C53.5939 18.0558 53.3879 18.0551 53.1758 18.0544C51.9536 18.0521 51.9536 18.0521 50.7381 18.1624C49.8346 18.2823 48.9414 18.3044 48.0309 18.3172C47.7652 18.327 47.7652 18.327 47.4941 18.3369C47.3228 18.3389 47.1515 18.3409 46.975 18.343C46.7439 18.3482 46.7439 18.3482 46.5081 18.3535C45.8619 18.2057 45.6128 17.8881 45.1953 17.3829C44.9168 16.8711 44.9168 16.8711 44.6772 16.3053C44.587 16.0966 44.4967 15.8878 44.4037 15.6728C44.3574 15.5635 44.3111 15.4542 44.2634 15.3415C44.0202 14.7695 43.7692 14.201 43.5175 13.6327C43.4678 13.5205 43.4181 13.4083 43.3669 13.2927C41.9381 10.0922 39.5471 5.12903 36.1562 3.65046C35.5685 3.56202 35.5685 3.56202 35.1133 3.65046ZM65.4028 26.7261C62.6686 28.0001 59.8249 28.3167 56.8418 28.5079C57.2494 29.2571 57.6556 29.9963 58.1346 30.7025C59.6515 33.1256 60.6165 36.5953 60.4922 39.4591C60.3336 39.9474 60.2046 40.2612 59.8621 40.6433C59.2489 40.9499 58.7157 41.0179 58.0586 40.8497C57.6762 40.5872 57.3598 40.2926 57.0258 39.971C55.4621 38.4934 53.8267 38.0966 51.7465 37.9055C49.779 37.7205 48.1096 37.2076 46.336 36.341C46.2208 36.2847 46.1056 36.2285 45.9869 36.1705C45.2283 35.7828 44.6154 35.3318 43.9785 34.7657C43.8315 34.9019 43.6845 35.0382 43.5331 35.1785C41.3042 37.0762 38.7072 38.4326 35.9933 39.4916C34.011 40.2661 32.5429 41.2351 31.0928 42.8181C30.1238 43.8743 30.1238 43.8743 29.3443 43.9895C28.2161 43.971 28.2161 43.971 27.8125 43.8048C26.7457 41.6712 27.7407 38.5134 28.4318 36.3519C29.1843 34.1145 30.3687 32.054 31.6367 30.0723C31.4431 30.0658 31.2495 30.0593 31.05 30.0526C27.7164 29.919 24.3473 29.4581 21.5744 27.4486C21.2067 27.2489 21.2067 27.2489 20.7894 27.3814C20.2288 27.7009 19.7797 28.0972 19.3166 28.5405C19.2196 28.6322 19.1226 28.7239 19.0227 28.8184C18.8145 29.0163 18.607 29.2149 18.4002 29.4143C18.1852 29.6215 17.9694 29.8277 17.7526 30.033C12.0549 35.4392 8.34429 42.9807 8.10405 50.8883C8.03658 53.7972 8.12346 56.62 8.86522 59.4493C8.9211 59.6693 8.9211 59.6693 8.97811 59.8937C11.2946 68.8158 17.5059 75.9409 25.3407 80.5681C28.9188 82.6261 32.9773 84.0475 37.0254 84.8282C37.1513 84.8542 37.2772 84.8802 37.407 84.907C42.276 85.8774 47.8358 85.7314 52.6699 84.6544C52.8184 84.6218 52.967 84.5893 53.12 84.5557C58.176 83.4124 63.3705 81.298 67.4453 78.0489C67.5903 77.9369 67.7353 77.8248 67.8846 77.7094C71.5224 74.8619 74.5129 71.6137 76.832 67.6192C76.9006 67.5011 76.9692 67.383 77.0399 67.2614C79.6221 62.7514 80.9096 57.7471 80.8844 52.5614C80.884 52.4229 80.8836 52.2845 80.8833 52.1419C80.8743 50.0767 80.807 48.0782 80.3086 46.0645C80.2568 45.8497 80.2568 45.8497 80.2039 45.6306C78.2871 37.8899 73.4911 30.6333 66.75 26.2481C66.2296 26.2481 65.868 26.497 65.4028 26.7261Z" fill="black" fill-opacity="0.2"/>
<path d="M14.7754 50.7577C15.3727 51.2382 15.6924 51.5715 15.8184 52.3222C15.8344 52.6367 15.8499 52.9512 15.8599 53.266C16.0746 59.4964 18.8149 64.9838 22.9453 69.5312C23.0567 69.6571 23.168 69.783 23.2828 69.9128C28.0198 74.9783 35.7369 78.0321 42.5926 78.2742C42.8792 78.2832 43.1657 78.2909 43.4523 78.2973C44.3846 78.3332 45.0663 78.4696 45.8906 78.9179C46.2533 79.4618 46.3022 79.6555 46.3252 80.2868C46.3342 80.4333 46.3431 80.5799 46.3524 80.7308C46.2148 81.2697 45.9786 81.5456 45.5349 81.8777C44.8551 82.2162 44.1469 82.1656 43.4027 82.1446C43.2282 82.1417 43.0537 82.1388 42.8738 82.1358C35.949 81.9291 28.6344 79.3955 23.293 74.9198C23.1164 74.7751 22.9398 74.6303 22.7579 74.4812C17.5841 70.208 13.9409 64.4642 12.5835 57.8642C12.5251 57.5825 12.4611 57.3019 12.3961 57.0216C12.153 55.8446 12.1164 54.6611 12.0919 53.4629C12.0829 53.2124 12.0829 53.2124 12.0738 52.9569C12.0689 52.1417 12.0709 51.7553 12.5747 51.0884C13.3549 50.5305 13.8557 50.5357 14.7754 50.7577Z" fill="black" fill-opacity="0.2"/>
<path d="M52.6699 77.8751C53.2464 78.2594 53.3458 78.4939 53.5173 79.1679C53.5435 79.9125 53.4386 80.3559 52.9646 80.932C52.4302 81.3778 51.7809 81.3718 51.1055 81.3517C50.5864 81.1418 50.3409 80.9696 50.0082 80.526C49.8014 79.8493 49.8083 79.2075 49.9973 78.527C50.7331 77.5904 51.6165 77.6202 52.6699 77.8751Z" fill="black" fill-opacity="0.2"/>
</g>
<defs>
<clipPath id="clip0_1_507">
<rect width="89" height="89" fill="white"/>
</clipPath>
</defs>
</svg>
