<svg width="40" height="40" viewBox="0 0 40 40" fill="none" xmlns="http://www.w3.org/2000/svg">
<path d="M38.0968 0.760105C36.5229 -0.162473 33.4097 -1.05143 30.1807 3.28583C29.8877 3.40944 28.928 3.58136 28.0751 3.73386C24.1481 4.43668 15.9766 5.90012 9.95439 11.8467C4.66831 17.0672 3.80085 23.6138 3.22689 27.9459C2.95528 29.9951 2.72069 31.7645 2.14256 32.3177C0.676639 33.7196 -0.0625785 35.1906 0.00414914 36.5716C0.0547162 37.6083 0.572377 38.5498 1.50187 39.2948C2.13266 39.8001 2.84998 40 3.59128 40C5.85429 40 8.33207 38.1368 9.18493 37.4302C9.44559 37.2829 10.7155 37.0836 11.8353 36.9074C16.9253 36.1075 27.5163 34.4427 32.2586 26.7813C37.0651 19.0161 37.4894 13.0539 37.6933 10.1886C37.7308 9.65958 37.7736 9.06 37.8325 8.91318C37.8961 8.75405 38.0957 8.43531 38.3074 8.09764C39.3813 6.38556 41.6146 2.8217 38.0968 0.760105ZM36.9483 7.39528C36.6819 7.8201 36.4718 8.15589 36.3629 8.42821C36.2279 8.76636 36.1919 9.26743 36.133 10.0977C35.9365 12.8583 35.5277 18.6021 30.8959 26.0851C26.518 33.1583 16.7934 34.6867 11.5694 35.5079C9.48104 35.8361 8.61514 35.9838 8.16473 36.3566C6.70715 37.56 3.88321 39.3095 2.53719 38.2301C1.92518 37.7395 1.59884 37.1608 1.56704 36.5095C1.52012 35.5372 2.12692 34.3963 3.27693 33.2966C4.21216 32.4025 4.44988 30.6042 4.77987 28.1159C5.36269 23.7171 6.16082 17.6924 11.106 12.809C16.7815 7.20442 24.3253 5.85371 28.378 5.12767C30.2756 4.78763 31.0606 4.64697 31.423 4.15394C32.7533 2.34099 34.1067 1.4312 35.4652 1.4312C36.0595 1.4312 36.6543 1.60549 37.2491 1.95358C39.3479 3.18401 38.2516 5.31664 36.9483 7.39528Z" />
<path d="M36.2055 3.86874C35.8265 3.68167 35.3531 3.80907 35.1457 4.15196C35.0862 4.25047 33.6474 6.56686 30.1979 7.02767C28.1075 7.30663 17.4211 8.98934 12.3368 14.7024C9.64997 17.7212 7.82852 21.6885 6.8985 26.5235C6.89433 26.5411 6.88755 26.5576 6.88495 26.5756C6.88234 26.5951 6.8813 26.6126 6.87869 26.632C6.68529 27.6554 6.52889 28.7149 6.41525 29.8151C6.07431 33.1189 5.27254 34.5042 4.08916 35.6688C3.79619 35.9572 3.816 36.4067 4.13296 36.6729C4.28361 36.7993 4.47337 36.8613 4.66313 36.8613C4.87374 36.8613 5.08382 36.7846 5.23813 36.6331C6.08109 35.8038 6.68581 34.9267 7.12162 33.8407C10.5336 33.7588 20.3337 33.4178 27.8979 25.2055C34.6598 17.8656 33.8226 7.83375 33.7757 7.33031C35.6357 6.28175 36.4713 4.91256 36.5214 4.82826C36.7252 4.48348 36.584 4.05582 36.2055 3.86874ZM13.5535 15.5956C14.0962 14.9856 14.7187 14.4268 15.3922 13.9105C16.2331 14.0749 18.1087 14.2132 20.6105 13.0277C22.3777 12.1895 24.3879 12.0266 25.6119 12.6233C26.3783 12.9965 26.8209 13.6491 26.9277 14.5627C27.0841 15.8968 26.2261 16.8445 25.3961 17.7605C24.4536 18.801 23.3854 19.9802 24.3405 21.5228C24.7706 22.2175 24.6251 23.9069 23.5085 25.6687C22.8495 26.7082 20.952 29.1302 17.5744 29.1715C16.6423 29.1828 15.7472 29.2179 14.8813 29.2515C12.084 29.3609 9.66822 29.4547 8.8018 28.5951C8.43689 28.2328 8.31803 27.6441 8.43376 26.802C9.31425 22.1929 11.0294 18.432 13.5535 15.5956ZM7.97396 29.9477C7.97761 29.9098 7.98335 29.8733 7.987 29.8359C8.97905 30.5615 10.4669 30.7419 12.3097 30.7419C13.1245 30.7419 14.0086 30.7073 14.9486 30.6709C15.7118 30.641 16.5015 30.6126 17.3091 30.5989C13.2788 32.1116 9.60879 32.3446 7.57308 32.4071C7.74719 31.6839 7.87804 30.8759 7.97396 29.9477ZM26.6999 24.2933C26.2104 24.8247 25.71 25.3182 25.2027 25.7819C26.2036 23.914 26.4184 21.9817 25.7027 20.8261C25.3101 20.1915 25.6375 19.7288 26.603 18.6631C27.5408 17.6279 28.708 16.3397 28.4823 14.4121C28.3191 13.0221 27.582 11.9707 26.3496 11.3706C24.6642 10.5503 22.1265 10.7061 19.8864 11.768C18.9491 12.2122 18.1416 12.4315 17.48 12.5314C22.7077 9.54914 29.4764 8.56073 30.4252 8.4338C31.0946 8.34429 31.6962 8.19226 32.2456 8.00614C32.3207 10.1904 32.193 18.3293 26.6999 24.2933Z"/>
<path d="M15.6528 27.2828C16.1668 27.2828 16.7006 27.2311 17.237 27.1251C19.4708 26.6832 21.2412 25.4343 22.0951 23.6985C23.0778 21.7004 22.6868 19.2756 21.1443 17.8012C19.7133 16.433 17.6004 16.1034 15.3478 16.8952C12.9748 17.7297 11.3707 19.4489 10.9469 21.6114C10.5846 23.4603 11.1497 25.349 12.3534 26.3109C13.1458 26.9432 14.3359 27.2828 15.6528 27.2828ZM12.4869 21.8595C12.6782 20.8825 13.3778 19.1107 15.9124 18.2194C17.5681 17.6374 19.0236 17.8353 20.0104 18.7792C21.1281 19.8472 21.3976 21.6317 20.6667 23.1184C20.0182 24.4374 18.6467 25.3917 16.9039 25.7364C15.4917 26.0159 14.1107 25.8222 13.3866 25.2434C12.7152 24.7068 12.1908 23.3717 12.4869 21.8595Z"/>
</svg>
