<svg xmlns="http://www.w3.org/2000/svg" width="40" height="40" fill="#fff"><path d="M9.107.197c.684.415 1.118.98 1.494 1.673l.282.5c.047.087.095.172.144.26.237.425.482.846.726 1.267l.295.512a2807.942 2807.942 0 0 0 1.175 2.036l.146.254.586 1.016.291.505c.228.393.455.787.681 1.181l.24.418.301.523c.2.349.403.695.62 1.034.162.265.162.265.162.42h.306a3754.37 3754.37 0 0 1 8.084-.02h.178l2.856-.01a986.7 986.7 0 0 1 2.93-.006c.603 0 1.206-.002 1.809-.005.462-.003.924-.003 1.386-.002.19 0 .379-.001.569-.003.258-.002.517-.001.775 0l.229-.004c.36.005.514.01.806.238.415.561.326 1.344.316 2.01l-.002.272c-.002.219-.004.437-.008.656l.281-.006c.344-.007.689-.012 1.033-.016.149-.002.298-.004.447-.008.214-.004.428-.006.643-.008l.2-.006c.345 0 .479.01.759.23.166.222.206.321.202.595l.003.196c-.078.293-.202.4-.443.585-.258.054-.51.046-.773.038l-.224-.001a59.462 59.462 0 0 1-.707-.012l-.48-.006c-.392-.004-.783-.01-1.175-.019l-.027.167c-.36 2.116-1.61 4.239-3.176 5.693l-.19.19-.2.2-.12.13c-2.158 2.29-5.505 3.608-8.523 4.226l-.229.047c-1.248.242-2.486.315-3.756.31l-.217-.001c-1.124-.004-2.22-.053-3.328-.259l-.216-.038c-3.382-.608-6.52-2.115-9.002-4.493l-.12-.113c-1.649-1.565-2.879-3.6-3.396-5.824v-.235l-.302.007c-.37.007-.741.011-1.112.015l-.48.008c-.231.005-.462.007-.692.009l-.217.006c-.356 0-.507-.006-.797-.23-.162-.222-.203-.324-.199-.596l-.003-.195c.078-.292.205-.4.443-.586.241-.053.475-.046.721-.038l.209.001c.219.003.438.008.657.013l.446.005c.364.004.728.01 1.092.019l-.003-.159-.007-.725-.004-.25c-.009-1.379-.009-1.379.334-1.805.284-.234.43-.236.794-.238l.17-.002c.182-.002.365-.002.548-.001l.382-.004c.334-.003.669-.004 1.003-.004.342 0 .683-.004 1.024-.007.67-.005 1.34-.007 2.009-.008l-.502-.878-.17-.298c-.58-1.016-1.165-2.03-1.75-3.043l-.89-1.544-.559-.96-.255-.44-.118-.2c-.443-.764-.581-1.53-.393-2.406.254-.776.686-1.299 1.392-1.7.748-.353 1.826-.44 2.586-.053Zm-2.31 1.99c-.126.38-.158.689.011 1.053l.118.206.13.23.131.23.23.411.24.424.132.234c.355.628.718 1.251 1.083 1.874.38.65.755 1.305 1.128 1.96.432.757.868 1.511 1.308 2.263l.13.22.113.194c.06.102.115.205.168.31h2.656l-.625-1.093c-.12-.218-.242-.436-.361-.654a84.674 84.674 0 0 0-1.077-1.878 181.14 181.14 0 0 1-1.062-1.843c-.485-.85-.974-1.697-1.469-2.541a65.477 65.477 0 0 1-.584-1.014 32.73 32.73 0 0 1-.19-.338c-.208-.36-.43-.607-.804-.794-.63-.103-1.002.053-1.406.547ZM5.157 13.36c0 3.297.921 5.756 3.222 8.091 2.144 2.131 5.027 3.437 7.964 4.038l.174.036c1.148.22 2.287.287 3.454.282h.207c4.267-.018 8.352-1.433 11.463-4.4l.202-.187c1.67-1.592 2.66-3.725 3-5.985V13.36H5.157ZM15.201 28.628c.409.094.705.438.943.77.12.195.231.395.34.597l.121.218c.318.578.618 1.163.905 1.756.112.23.227.458.342.687l.195.39c.715-.344 1.135-.723 1.406-1.483.073-.283.136-.568.187-.855.082-.414.215-.643.516-.942.39-.13.674-.131 1.045.05.292.176.508.39.733.643l.12.134c.397.444.765.91 1.126 1.383.1.132.202.263.303.394.284.372.536.72.736 1.146.189-.188.377-.377.561-.57.527-.547 1.1-1.005 1.704-1.462l.337-.257.337-.255.16-.122.15-.113.134-.1c.4-.271.75-.31 1.226-.246.284.165.433.32.547.625.023.226.025.451.03.678.032.828.23 1.39.83 1.978.208.15.428.273.654.395.367.206.718.405 1.045.674.228.203.228.203.443.167.718-.23 1.198-.9 1.529-1.543.109-.22.217-.438.319-.66.179-.381.384-.713.775-.908.31-.03.509-.017.796.107.486.454.6 1.197.742 1.826l.05.215c.17.731.233 1.422.238 2.173l.001.161c.003 1.15-.032 2.564-.655 3.565-.314.209-.569.21-.938.156-.224-.14-.35-.233-.468-.469-.045-.489.04-.925.156-1.396.224-.995.37-2.298.078-3.291l-.106.146c-.625.822-1.45 1.577-2.463 1.873-.519.026-.907-.288-1.303-.589a9.069 9.069 0 0 0-1.138-.722c-1.066-.596-1.793-1.411-2.177-2.583a19.806 19.806 0 0 1-.079-.313l-.81.695c-.158.136-.317.27-.476.405-.613.52-1.06 1.108-1.49 1.783-.154.24-.264.395-.505.555-.18.031-.18.031-.38.039l-.2.012c-.299-.076-.433-.27-.592-.52a6.595 6.595 0 0 1-.263-.6c-.455-1.088-1.156-1.954-1.924-2.837l-.095.194c-.637 1.25-1.539 2.06-2.874 2.54-.37.1-.589.137-.937-.042-.283-.232-.409-.45-.567-.774l-.088-.172a43.1 43.1 0 0 1-.283-.575l-.107-.218c-.64-1.317-.64-1.317-.752-1.657h-.157l-.026.17c-.25 1.07-1.192 2.054-2.083 2.643-.384.235-.775.46-1.167.683-.521.297-1.026.606-1.504.97-.352.253-.582.269-1 .222-.635-.272-1.144-.784-1.641-1.25a62.038 62.038 0 0 0-.478-.414 13.078 13.078 0 0 1-.538-.524l-.03.213c-.173 1.052-.609 1.892-1.2 2.77-.502.75-.667 1.51-.74 2.4-.08.313-.2.437-.452.633-.195.052-.195.052-.39.049l-.196.003c-.291-.078-.406-.204-.586-.443a2.733 2.733 0 0 1-.044-.615l.004-.177c.055-1.319.653-2.353 1.363-3.429.41-.636.57-1.277.552-2.033l-.004-.267a82.862 82.862 0 0 0-.013-.55c-.006-.546.008-.929.378-1.356.295-.14.57-.136.89-.088.766.367 1.386 1.223 1.908 1.88.207.237.425.437.665.64.106.09.209.182.309.278l.14.131c.04.04.08.08.123.12.135.091.135.091.313.068.274-.09.507-.23.75-.383l.312-.192.161-.1c.158-.096.317-.19.477-.282 1.15-.667 1.937-1.4 2.341-2.707l.09-.366.048-.199c.031-.132.06-.264.089-.397.143-.609.471-1.015 1.146-.957Z"/><path d="m25 4.575.156.03c.25.132.34.304.469.551.009.254.009.254-.02.537-.048.846.286 1.612.579 2.392.149.442.16.862.164 1.324l.005.197c.002.4-.037.673-.26 1.019-.247.22-.368.234-.702.234-.237-.023-.332-.092-.526-.238-.227-.296-.214-.519-.202-.875-.005-.919-.306-1.736-.614-2.593-.222-.685-.278-1.561.014-2.231.265-.337.518-.438.937-.347ZM31.504 3.179c.19.142.267.279.37.493.002.243.002.243-.023.527-.044.87.295 1.674.583 2.481.148.436.161.826.164 1.284l.005.212c.002.476-.059.75-.391 1.106-.266.137-.518.146-.806.093-.22-.14-.352-.236-.469-.469a50.199 50.199 0 0 1-.003-.442c-.01-.995-.3-1.866-.635-2.795-.224-.69-.253-1.493.016-2.173.249-.447.74-.454 1.189-.317ZM18.828 2.734c.264.157.264.157.469.391.066.28.085.507.068.792-.029.594.132 1.096.318 1.654l.173.537.078.236c.13.432.158.826.159 1.273l.003.177c0 .428-.04.732-.34 1.059-.292.171-.518.2-.85.131-.22-.14-.352-.235-.468-.468a43.25 43.25 0 0 1-.003-.411c-.012-.993-.317-1.885-.636-2.818-.195-.627-.289-1.475-.05-2.103.279-.423.581-.52 1.08-.45Z"/></svg>