<svg xmlns="http://www.w3.org/2000/svg" width="40" height="40" fill="#fff"><path d="M19.913 2.627h.279c6.076.013 12.473 1.684 16.911 6.04 1.835 1.848 2.903 4.196 2.904 6.804-.016 1.014-.201 1.98-.425 2.967l-.047.213c-.82 3.721-2.544 7.188-5.183 9.943l-.12.125c-1.51 1.586-3.348 2.78-5.34 3.674l-.181.08c-.24.105-.42.183-.683.183l.002.26a235.093 235.093 0 0 1 .01 1.372 90.994 90.994 0 0 1 .005.783c0 .552 0 .552-.173.788-1.882 1.244-4.558 1.491-6.756 1.5l-.253.002c-.268.002-.536.002-.803.002h-.277c-1.3 0-2.575-.016-3.856-.254a144.56 144.56 0 0 0-.233-.041c-3.155-.584-3.155-.584-3.678-1.33-.104-.281-.09-.558-.086-.854v-.193l.005-.609.002-.413.008-1.013-.175-.03c-1.584-.348-3.177-1.478-4.431-2.47l-.127-.1c-1.114-.883-2.138-1.903-2.978-3.05-.095-.13-.192-.257-.289-.384-1.705-2.272-2.838-5.04-3.477-7.794l-.064-.274c-.65-2.822-.606-5.4.923-7.929.467-.732 1.01-1.379 1.614-2.001l.264-.28c3.25-3.42 8.498-4.992 13.034-5.531l.17-.02c1.168-.137 2.329-.168 3.504-.166Zm-4.143 1.67-.271.04c-1.34.206-2.647.504-3.944.897l-.25.076c-2.5.776-4.787 1.969-6.777 3.674l-.147.124c-.353.298-.65.615-.946.97l-.151.178c-1.477 1.782-2.047 3.712-1.879 5.994.185 1.597 1.008 3.012 2.03 4.219l.163.192c3.491 3.998 9.304 5.596 14.43 5.943 6.002.34 12.763-.862 17.39-4.967 1.578-1.43 3.01-3.399 3.164-5.603.068-2.37-.529-4.32-2.18-6.078a39.491 39.491 0 0 1-.544-.569c-1.926-1.996-4.588-3.263-7.206-4.074l-.2-.064c-1.813-.571-3.687-.92-5.577-1.108l-.196-.023c-.866-.088-1.74-.074-2.61-.075h-.264c-1.36.001-2.688.047-4.034.254ZM3.046 22.187c.158.536.377 1.017.64 1.51l.115.218a12.894 12.894 0 0 0 1.054 1.678c.432.586.89 1.145 1.392 1.673l.13.139c1.47 1.547 3.165 2.718 5.1 3.61l.151.071c4.884 2.263 11.188 2.025 16.175.263 1.393-.516 2.727-1.209 3.895-2.13l.221-.172c.402-.32.786-.659 1.165-1.005l.123-.111c1.593-1.476 2.934-3.565 3.722-5.587l-.078-.156-.205.22c-4.242 4.236-11.023 5.585-16.782 5.585-4.972-.023-10.452-1.046-14.554-4.008-.076-.055-.151-.11-.23-.165-.52-.383-1.013-.79-1.502-1.212a8.996 8.996 0 0 0-.532-.42ZM13.35 33.204v1.719c3.865 1.65 9.403 1.549 13.272 0v-1.719c-.528.066-.528.066-1.046.163-3.89.824-7.827.84-11.7-.119-.228-.054-.228-.054-.526-.044Z"/><path d="M19.96 5.293h.236c1.304 0 2.575.065 3.866.254l.235.033c3.885.56 7.828 1.984 10.703 4.732l.176.162c1.268 1.2 2.147 2.854 2.204 4.614.018 1.768-.625 3.264-1.755 4.6l-.132.164c-.286.351-.615.64-.962.93l-.19.163c-3.572 3.015-8.713 4.36-13.325 4.446l-.218.005c-5.32.102-11.2-1.042-15.33-4.615l-.201-.17c-1.283-1.11-2.314-2.67-2.61-4.361-.138-1.97.298-3.672 1.601-5.182C5.38 9.81 6.648 8.852 8.125 8.047l.149-.082c2.755-1.494 5.888-2.266 8.992-2.574l.217-.023c.825-.074 1.65-.074 2.478-.075ZM6.095 11.25c-.106.129-.21.259-.313.39.341-.123.645-.296.957-.478 3.976-2.262 8.64-3.131 13.174-3.135h.228a31.791 31.791 0 0 1 4.334.286c3.159.406 6.17 1.42 8.968 2.932.228.122.455.229.699.318-2.668-3.269-7.74-4.334-11.7-4.79-.785-.079-1.574-.073-2.363-.074h-.23c-4.65.005-10.339 1.103-13.754 4.551Zm2.187.625-.175.085a15.295 15.295 0 0 0-4.043 2.884c-.127 1.549.478 2.849 1.46 4.022 3.007 3.495 8.228 4.708 12.617 5.077.333.023.666.035 1 .041l.19.005c5.073.117 10.72-1.038 14.576-4.536l.157-.137c1.077-.997 1.843-2.436 1.928-3.901-.011-.372-.023-.618-.283-.893a9.753 9.753 0 0 0-.395-.303 54.93 54.93 0 0 1-.294-.236c-4.192-3.346-9.647-4.623-14.931-4.628h-.183c-3.994.006-8.022.756-11.624 2.52Z"/><path d="M31.719 16.016c.209.166.294.29.342.554.051 1.019-.416 1.94-1.063 2.695-1.932 2.036-4.88 2.812-7.56 3.235l-.17.027c-.767.118-1.537.155-2.311.188l-.29.013-.275.01-.246.01c-.309-.018-.53-.09-.756-.302-.135-.262-.134-.437-.093-.727.213-.281.336-.38.685-.452.114-.007.23-.013.344-.017a726.689 726.689 0 0 1 .586-.034c.347-.017.693-.04 1.039-.065l.207-.013c2.624-.183 5.854-.9 7.725-2.9.459-.553.624-1.06.757-1.765.065-.23.108-.318.297-.457.3-.1.476-.075.782 0ZM18.863 10.617c.212-.007.423-.012.634-.017l.203-.006c.324-.003.49.003.77.179.189.2.23.27.248.545-.015.241-.032.362-.171.557-.267.171-.503.182-.816.195a694.485 694.485 0 0 1-.468.022c-2.895.135-6.463.553-8.716 2.595l-.167.149c-.642.601-.878 1.17-1.015 2.036-.068.237-.068.237-.212.384-.262.136-.51.144-.794.088-.234-.142-.234-.142-.39-.39-.163-.87.21-1.733.69-2.44 1.923-2.482 5.347-3.359 8.318-3.741a23.38 23.38 0 0 1 1.886-.156ZM20.366 13.945l.198.005c1.569.053 3.282.377 4.402 1.558.347.418.473.823.425 1.367-.095.261-.15.308-.39.469-.543.06-.543.06-.846-.161-.17-.23-.17-.23-.273-.503-.232-.482-.668-.639-1.148-.83-.858-.293-1.737-.404-2.64-.428a1.157 1.157 0 0 1-.64-.266c-.196-.293-.199-.434-.157-.781.314-.427.575-.449 1.07-.43ZM15.703 16.016c.25.176.305.274.366.576.154.424.408.56.806.752 1.023.395 2.052.543 3.145.598.213.027.346.07.527.183.18.252.193.478.156.781-.14.211-.24.355-.469.469-1.684.105-3.634-.19-4.97-1.289-.438-.422-.624-.81-.663-1.422.011-.25.075-.385.243-.57.277-.218.53-.16.86-.078Z"/></svg>