<svg xmlns="http://www.w3.org/2000/svg" width="40" height="40" fill="none" stroke="#fff"><path d="M9.503 17.429c.157-.176.358-.335.681-.556 1.165-.146 2.24-.116 3.364.142.38.463.568.869.666 1.294.107.46.115.966.101 1.65-.152.375-.308.615-.496.816-.197.21-.444.396-.815.652-1.377.244-2.44.273-3.516-.374-.453-.94-.505-1.764-.41-2.886.14-.352.27-.564.425-.738ZM12.79 7.199h.001c.316.222.53.393.696.588.198.231.35.521.483 1.035l.05.91v.025l.005.024.075.495c-.165.54-.473.897-.975 1.326-.905.475-1.862.458-2.985.286-.431-.2-.58-.276-.699-.373-.111-.092-.204-.21-.447-.552-.154-1.034-.186-1.738-.004-2.305.172-.536.56-1.02 1.436-1.54.414-.065.607-.094.782-.105.148-.01.285-.007.545.004h.001v.001l.002.001.001.002.001.001.001.001.002.002.001.001.001.002h.001v.001h.002v.002l.002.001v.001h.001v.002h.002v.001l.002.002.001.001v.001h.001l.001.002.002.001.001.002.001.001.001.001.002.002.001.001.001.002h.001v.001l.002.001v.002h.002v.001h.001v.002h.002v.002h.002v.002h.001v.001h.002v.002l.002.001v.001h.001v.002h.001l.001.001v.001h.002v.002h.001v.001h.001l.001.002.002.001v.001h.001v.002h.001l.001.001.002.002.001.001v.001h.001l.001.002.002.001v.002h.002v.001l.001.001.002.002v.001h.002v.002h.001V7.1l.002.001v.002h.002v.001h.001v.002h.002v.002h.002v.002h.001v.001l.002.001v.002h.002v.001h.001v.002h.002v.002h.002v.002h.001v.001h.002v.002l.002.001v.001h.001v.002h.002v.001l.002.002.001.001v.001h.002v.002l.002.001v.001h.001v.002h.002v.001l.002.002.001.001v.001h.002v.002l.002.001v.001h.001v.002h.002v.001l.002.002.001.001v.001h.002v.002h.001v.001l.001.001h.001v.002h.002v.001h.001v.002h.001l.001.001v.001h.002v.002h.001v.001l.001.001h.001v.002h.002v.001h.001v.002h.002v.002h.002v.002h.001v.001l.002.001v.002h.002v.001h.001v.002h.002v.001l.001.001.001.002h.001v.001l.002.001.001.002.001.001.001.001.002.002.001.001.002.002v.001l.002.001.001.002.002.001v.001h.001v.002h.001l.001.001v.001h.002v.002h.001v.001h.002v.002l.002.001v.001h.001v.002h.002v.001l.001.001.001.002h.001v.001l.002.001.001.002.002.001v.001l.002.002.001.001.002.002.001.001v.001h.001l.001.002.002.001v.001h.001v.002h.002v.002h.002v.002h.001v.001l.002.001.001.002.002.001v.001l.002.002.001.001.002.002.001.001v.001h.001l.001.002.002.001v.001l.338.37.369-.338.001-.001h.001v-.002h.002V7.29h.001V7.29l.002-.001.001-.002h.001l.001-.002h.001l.001-.001.002-.001v-.001h.001l.001-.002.002-.001.001-.001v-.001h.002v-.001l.001-.001.002-.002.001-.001h.001V7.27l.002-.001.001-.002.002-.001.001-.001.001-.001.002-.001v-.001h.001V7.26h.002V7.26h.001v-.001l.002-.001.001-.002h.001v-.001h.002v-.001l.001-.001.002-.001V7.25h.001l.001-.002.002-.001.001-.001v-.001h.002v-.002h.001l.002-.002.001-.001h.001V7.24l.002-.001.001-.002.002-.001.001-.001.001-.001.002-.002h.001V7.23h.002v-.001h.001v-.001l.002-.001.001-.002h.001v-.001h.002v-.001l.001-.001.002-.002h.001l.001-.002.002-.001.001-.001v-.001h.002v-.002h.001v-.001h.002V7.21l.001-.001h.001v-.002h.002v-.001h.001v-.001l.002-.001.001-.001.001-.001.002-.002.001-.001.002-.001ZM9.471 29.97c-.24-1.252-.254-2.142.31-3.145 1.17-.56 2.272-.607 3.631-.407.376.232.5.316.595.42.097.106.171.242.38.66.24 1.253.254 2.143-.31 3.147-1.17.56-2.272.606-3.632.407-.375-.232-.5-.317-.594-.42-.097-.106-.171-.242-.38-.661ZM12.193 32.57h.007l.962-.077c.446.048.58.068.692.113.105.044.201.115.512.371.196.3.241.38.263.457.017.064.022.137.014.364-.757.554-1.502.595-2.65.652h-.006l-.989.06c-.431-.02-.66-.035-.854-.095-.146-.045-.292-.123-.495-.308a7.046 7.046 0 0 1-.076-.504 4.11 4.11 0 0 1-.016-.336c.806-.525 1.516-.623 2.636-.696ZM11.857 23.007h.006l.975-.066c.457.03.714.076.925.165.186.078.37.205.633.458.038.192.045.252.042.307a1.307 1.307 0 0 1-.067.291c-.8.581-1.547.66-2.706.736h-.007l-.962.078c-.446-.047-.58-.067-.692-.113-.104-.043-.201-.115-.512-.371-.196-.299-.241-.38-.263-.457-.017-.064-.022-.137-.014-.364.756-.551 1.502-.601 2.642-.664ZM10.988 13.563h.002c.858.003 1.7-.024 2.56-.107.343.511.503.756.582.915a.38.38 0 0 1 .047.144c-.116.15-.17.212-.238.275a4.506 4.506 0 0 1-.448.332c-.702.082-1.325.117-2.03.107h-.02l-.597.017c-.192-.001-.313-.001-.433-.008-.195-.01-.39-.037-.886-.111-.221-.26-.32-.421-.373-.577-.05-.15-.072-.327-.067-.636.543-.345 1.053-.357 1.9-.35ZM11.224 3.891h.002l1.036-.044c.301-.01.512-.015.673-.013.163.002.244.013.292.026.065.017.1.034.354.27.217.278.247.33.263.38.016.054.02.126.008.419-.122.166-.175.23-.24.29-.08.072-.182.142-.442.313-.704.083-1.329.118-2.036.109h-.02l-.598.016c-.191 0-.312 0-.432-.007-.195-.01-.39-.038-.886-.112-.221-.26-.32-.421-.373-.577-.051-.15-.073-.33-.067-.644.56-.37 1.195-.388 2.033-.412.138-.004.282-.008.433-.014ZM12.459 38.18v.003a64.96 64.96 0 0 0 .065 3.715l-.279.15c-.293-.603-.318-1.208-.354-2.064l-.005-.13v-.003l-.047-.978c-.017-.897-.02-1.757.048-2.625a2.016 2.016 0 0 1 .282-.19c.313.604.304 1.167.29 2.065v.057ZM10.879.76V.756L10.877.08l.004-.235.44-.266c.271.788.327 1.525.348 2.448l-.366.197c-.214-.248-.302-.38-.35-.51-.066-.172-.077-.376-.074-.955ZM17.694 17.78c.157-.176.358-.335.681-.556 1.165-.146 2.24-.117 3.364.142.38.463.568.869.667 1.294.106.46.114.966.1 1.65-.152.375-.308.615-.496.816-.197.21-.444.396-.815.651-1.376.244-2.44.274-3.515-.373-.453-.94-.506-1.764-.41-2.886.14-.352.269-.564.424-.738ZM20.982 7.55v-.001c.316.222.53.394.696.589.198.231.35.521.483 1.035l.05.91v.025l.005.024.075.495c-.165.54-.473.897-.975 1.326-.905.475-1.862.458-2.985.286-.431-.2-.58-.276-.698-.373-.112-.092-.204-.211-.448-.553C17.03 10.28 17 9.576 17.18 9.01c.172-.536.56-1.02 1.436-1.54.415-.065.607-.094.782-.106a4.87 4.87 0 0 1 .546.005l.001.001.002.002v.001l.002.001.001.002.001.001h.001v.002h.002v.001l.001.001.001.002h.001v.001h.002v.002l.002.001v.001h.001v.002h.002v.001l.002.002.001.001v.001h.001l.001.002.002.001.001.002.001.001.001.001.002.002.001.001.001.002h.001v.001l.002.001v.002h.002v.001h.001v.002h.002v.002h.002v.002h.001v.001h.002v.002l.002.001v.001h.001v.002h.001l.001.001.002.002.001.001v.001h.001l.001.002.002.001.001.002.001.001.001.001.002.002.001.001.001.002h.001v.001l.002.001v.002h.002v.001l.001.001.002.002v.001h.002v.002h.001v.001l.002.001v.002h.002v.001h.001v.002h.002v.002h.002v.002h.001v.001h.002v.002l.002.001v.001h.001v.002h.002v.002h.002v.002h.001v.001h.002v.002l.002.001v.001h.001v.002h.002v.001l.002.002.001.001v.001h.002v.002l.002.001v.001h.001v.002h.002v.001l.002.002.001.001v.001h.002V7.5l.002.001.001.002.002.001v.001h.001v.002h.001l.001.001v.001h.002v.002h.001v.001h.001l.001.002.002.001v.001h.001v.002h.001l.001.001v.001h.002v.002h.001v.001h.002v.002l.002.001v.001h.001v.002h.002v.002h.002v.002h.001v.001l.002.001.001.002.001.001h.001v.002h.002v.001l.001.001.001.002h.001v.001l.002.001.001.002.002.001v.002h.002v.001l.001.001.002.002.001.001v.001h.001l.001.002.002.001v.001h.001v.002h.002v.002h.002v.002h.001v.001h.002v.002h.001v.001l.001.001h.001v.002h.002v.001l.001.001.002.002v.001l.002.001.001.002.002.001v.001h.001v.002h.001l.001.001.002.002.001.001v.001h.002v.002l.002.001v.001h.001v.002h.002v.001l.001.001.001.002h.001v.001l.002.001.001.002.002.001v.001h.001v.002h.001l.001.001v.001h.002v.002h.001v.001h.002l.337.37.369-.337.001-.001.001-.001h.001v-.001l.002-.001.001-.002.002-.001.001-.001v-.001h.002v-.001l.001-.001h.001v-.002h.002v-.001h.001V7.63l.002-.001.001-.002h.001v-.001h.002v-.001l.001-.001.002-.001v-.001h.001V7.62h.002V7.62h.001l.001-.001v-.001h.002v-.002h.001l.002-.002.001-.001h.001v-.001l.002-.001.001-.002.002-.001.001-.001v-.001h.002v-.002h.002v-.002h.002V7.6h.001V7.6l.002-.001.001-.002h.001v-.001h.002v-.001l.001-.001.002-.002h.001V7.59h.002v-.001h.001l.001-.001v-.001h.002v-.002h.001v-.001h.002v-.001l.001-.001h.001V7.58h.002l.001-.002.002-.001.001-.001.001-.001.002-.002.001-.001.002-.001V7.57h.001v-.002h.002l.001-.002h.001v-.001h.002v-.001l.001-.001.002-.002.001-.001h.001v-.001l.002-.001.001-.002.002-.001.001-.001v-.001h.002v-.001l.001-.001h.001v-.002ZM17.662 30.322c-.24-1.253-.254-2.143.31-3.147 1.17-.56 2.272-.606 3.632-.407.375.232.5.317.594.42.097.106.171.243.38.661.24 1.253.254 2.143-.31 3.147-1.17.56-2.272.606-3.631.407-.375-.232-.5-.317-.595-.42-.097-.107-.17-.243-.38-.662ZM20.384 32.922l.007-.001.962-.078c.446.048.581.068.692.114.105.043.201.115.512.371.196.299.242.38.263.457.018.064.022.137.014.364-.757.554-1.502.594-2.65.652h-.006l-.988.06c-.432-.02-.66-.035-.855-.095-.146-.045-.292-.123-.495-.308a6.98 6.98 0 0 1-.076-.504 4.06 4.06 0 0 1-.016-.336c.806-.525 1.516-.623 2.636-.697ZM20.049 23.357h.006l.974-.066c.457.032.714.077.925.166.186.078.37.205.633.458.038.191.045.251.043.306a1.295 1.295 0 0 1-.067.292c-.801.581-1.547.66-2.706.736h-.008l-.962.078c-.446-.048-.58-.068-.692-.113-.104-.044-.201-.115-.512-.371-.196-.3-.241-.38-.262-.457-.018-.064-.023-.137-.015-.364.756-.551 1.502-.601 2.643-.665ZM19.179 13.914h.002c.858.002 1.7-.024 2.56-.107.343.511.503.756.582.915a.384.384 0 0 1 .047.144 2.01 2.01 0 0 1-.238.274 4.497 4.497 0 0 1-.448.332c-.702.083-1.325.118-2.03.108h-.02l-.597.016c-.192 0-.312 0-.432-.007-.196-.01-.39-.038-.886-.112-.222-.26-.32-.42-.373-.577-.052-.149-.073-.327-.068-.635.543-.345 1.054-.357 1.9-.351ZM19.415 4.242h.002l1.036-.045c.302-.009.512-.015.674-.012.163.002.243.013.291.025.066.017.1.035.354.272.217.276.247.328.263.378.016.054.02.126.009.42-.123.166-.175.23-.242.29-.078.071-.18.142-.44.313-.705.083-1.33.118-2.037.108h-.02l-.597.016c-.192 0-.312 0-.433-.007-.195-.01-.389-.037-.885-.111-.222-.26-.32-.421-.374-.577-.051-.15-.072-.33-.067-.644.56-.37 1.195-.388 2.033-.412.138-.004.283-.008.433-.014ZM20.65 38.53v.004c-.01 1.24.004 2.472.065 3.715l-.279.15c-.293-.603-.318-1.209-.354-2.064l-.005-.13v-.003l-.047-.979c-.017-.896-.02-1.756.048-2.624a2.025 2.025 0 0 1 .282-.19c.313.604.304 1.167.29 2.065v.057ZM19.07 1.11v-.003l-.002-.675.004-.235.44-.266c.271.788.327 1.525.348 2.447l-.366.198c-.214-.248-.302-.381-.35-.51-.066-.172-.077-.376-.074-.955ZM25.694 17.78c.157-.176.358-.335.681-.556 1.165-.146 2.24-.117 3.364.142.38.463.568.869.667 1.294.106.46.114.966.1 1.65-.152.375-.308.615-.496.816-.197.21-.444.396-.815.651-1.376.244-2.44.274-3.515-.373-.453-.94-.506-1.764-.41-2.886.14-.352.269-.564.424-.738ZM28.982 7.55v-.001c.316.222.53.394.696.589.198.231.35.521.483 1.035l.05.91v.025l.005.024.075.495c-.165.54-.473.897-.975 1.326-.905.475-1.862.458-2.985.286-.431-.2-.58-.276-.698-.373-.112-.092-.204-.211-.448-.553C25.03 10.28 25 9.576 25.18 9.01c.172-.536.56-1.02 1.436-1.54.415-.065.607-.094.782-.106a4.87 4.87 0 0 1 .546.005l.001.001.002.002v.001l.002.001.001.002.001.001h.001v.002h.002v.001l.001.001.001.002h.001v.001h.002v.002l.002.001v.001h.001v.002h.002v.001l.002.002.001.001v.001h.001l.001.002.002.001.001.002.001.001.001.001.002.002.001.001.001.002h.001v.001l.002.001v.002h.002v.001h.001v.002h.002v.002h.002v.002h.001v.001h.002v.002l.002.001v.001h.001v.002h.001l.001.001.002.002.001.001v.001h.001l.001.002.002.001.001.002.001.001.001.001.002.002.001.001.001.002h.001v.001l.002.001v.002h.002v.001l.001.001.002.002v.001h.002v.002h.001v.001l.002.001v.002h.002v.001h.001v.002h.002v.002h.002v.002h.001v.001h.002v.002l.002.001v.001h.001v.002h.002v.002h.002v.002h.001v.001h.002v.002l.002.001v.001h.001v.002h.002v.001l.002.002.001.001v.001h.002v.002l.002.001v.001h.001v.002h.002v.001l.002.002.001.001v.001h.002V7.5l.002.001.001.002.002.001v.001h.001v.002h.001l.001.001v.001h.002v.002h.001v.001h.001l.001.002.002.001v.001h.001v.002h.001l.001.001v.001h.002v.002h.001v.001h.002v.002l.002.001v.001h.001v.002h.002v.002h.002v.002h.001v.001l.002.001.001.002.001.001h.001v.002h.002v.001l.001.001.001.002h.001v.001l.002.001.001.002.002.001v.002h.002v.001l.001.001.002.002.001.001v.001h.001l.001.002.002.001v.001h.001v.002h.002v.002h.002v.002h.001v.001h.002v.002h.001v.001l.001.001h.001v.002h.002v.001l.001.001.002.002v.001l.002.001.001.002.002.001v.001h.001v.002h.001l.001.001.002.002.001.001v.001h.002v.002l.002.001v.001h.001v.002h.002v.001l.001.001.001.002h.001v.001l.002.001.001.002.002.001v.001h.001v.002h.001l.001.001v.001h.002v.002h.001v.001h.002l.337.37.369-.337.001-.001.001-.001h.001v-.001l.002-.001.001-.002.002-.001.001-.001v-.001h.002v-.001l.001-.001h.001v-.002h.002v-.001h.001V7.63l.002-.001.001-.002h.001v-.001h.002v-.001l.001-.001.002-.001v-.001h.001V7.62h.002V7.62h.001l.001-.001v-.001h.002v-.002h.001l.002-.002.001-.001h.001v-.001l.002-.001.001-.002.002-.001.001-.001v-.001h.002v-.002h.002v-.002h.002V7.6h.001V7.6l.002-.001.001-.002h.001v-.001h.002v-.001l.001-.001.002-.002h.001V7.59h.002v-.001h.001l.001-.001v-.001h.002v-.002h.001v-.001h.002v-.001l.001-.001h.001V7.58h.002l.001-.002.002-.001.001-.001.001-.001.002-.002.001-.001.002-.001V7.57h.001v-.002h.002l.001-.002h.001v-.001h.002v-.001l.001-.001.002-.002.001-.001h.001v-.001l.002-.001.001-.002.002-.001.001-.001v-.001h.002v-.001l.001-.001h.001v-.002ZM25.662 30.322c-.24-1.253-.254-2.143.31-3.147 1.17-.56 2.272-.606 3.632-.407.375.232.5.317.594.42.097.107.171.243.38.661.24 1.253.254 2.143-.31 3.147-1.17.56-2.272.606-3.631.407-.375-.232-.5-.317-.595-.42-.097-.107-.17-.243-.38-.661ZM28.384 32.922l.007-.001.962-.078c.446.048.581.068.692.114.105.043.201.115.512.371.196.299.242.38.263.457.018.064.022.137.014.364-.757.554-1.502.594-2.65.652h-.006l-.988.06c-.432-.02-.66-.035-.855-.095-.146-.045-.292-.123-.495-.308a6.98 6.98 0 0 1-.076-.504 4.06 4.06 0 0 1-.016-.336c.806-.525 1.516-.623 2.636-.697ZM28.049 23.357h.006l.974-.066c.457.032.714.077.925.166.186.078.37.205.633.458.038.191.045.251.043.306a1.295 1.295 0 0 1-.067.292c-.801.581-1.547.66-2.706.736h-.008l-.962.078c-.446-.048-.58-.068-.692-.113-.104-.044-.201-.115-.512-.371-.196-.3-.241-.38-.262-.457-.018-.064-.023-.137-.015-.364.756-.551 1.502-.601 2.643-.665ZM27.179 13.914h.002c.858.003 1.7-.024 2.56-.107.343.511.503.756.582.915a.384.384 0 0 1 .047.144c-.116.15-.17.212-.238.275a4.48 4.48 0 0 1-.448.331c-.702.083-1.325.118-2.03.108h-.02l-.597.016c-.192 0-.312 0-.432-.007-.196-.01-.39-.037-.886-.112-.222-.26-.32-.42-.373-.576-.052-.15-.073-.327-.068-.636.543-.345 1.054-.357 1.9-.35ZM27.415 4.242h.002l1.036-.044c.302-.01.512-.016.674-.013.163.002.243.013.291.026.066.017.1.034.354.27.217.278.247.33.263.38.016.053.02.126.009.419-.123.166-.175.23-.242.29-.078.072-.18.142-.44.313-.705.083-1.33.118-2.037.109h-.02l-.597.016c-.192-.001-.312-.001-.433-.007-.195-.01-.389-.038-.885-.112-.222-.26-.32-.421-.374-.577-.051-.15-.072-.33-.067-.644.56-.37 1.195-.388 2.033-.412.138-.004.283-.008.433-.014ZM28.65 38.53v.004c-.01 1.24.004 2.472.065 3.715l-.279.15c-.293-.603-.318-1.209-.354-2.064l-.005-.13v-.003l-.047-.979c-.017-.896-.02-1.756.048-2.624a2.025 2.025 0 0 1 .282-.19c.313.604.304 1.167.29 2.065v.057ZM27.07 1.11v-.003l-.002-.675.004-.235.44-.266c.271.788.327 1.525.348 2.447l-.366.198c-.214-.248-.302-.381-.35-.51-.066-.172-.077-.376-.074-.955Z"/></svg>