<svg xmlns="http://www.w3.org/2000/svg" width="40" height="40" fill="none"><path d="M20.144 27.505c.589-.365 1.26-.587 1.863-.618.95.35 1.322 1.116 1.84 2.183l.199.406c.045.429.064.697.028.938-.033.22-.116.443-.335.749-.512.39-.913.665-1.332.848-.407.178-.852.276-1.451.273-.417-.118-.569-.164-.678-.22-.085-.043-.146-.092-.342-.273-.537-1.02-.782-1.492-.912-1.857-.112-.317-.135-.544-.168-1.076.244-.515.706-.992 1.288-1.353ZM18.682 12.43c.23-.024.481-.006.862.048.943.667 1.705 1.4 2.35 2.334-.031.587-.163 1.006-.373 1.38-.228.405-.558.777-1.021 1.265-.36.172-.631.242-.901.264-.282.022-.584-.007-1.023-.068-1.163-.736-1.954-1.42-2.306-2.601.294-.983.802-1.616 1.616-2.369.334-.162.569-.23.796-.253ZM27.87 7.167c.081.369.122.633.113.883-.01.299-.09.61-.335 1.071l-.568.696-.016.019-.013.02-.273.41c-.477.28-.937.336-1.586.314-.971-.254-1.655-.9-2.358-1.771-.18-.433-.239-.586-.26-.734-.02-.14-.008-.287.041-.696.575-.854 1.019-1.386 1.526-1.677.479-.275 1.081-.37 2.062-.166.345.227.504.334.639.442.113.09.21.183.391.363V7.167H27.87ZM11.094 35.207l-.004-.007-.457-.724c-.177-.475-.25-.808-.253-1.124-.003-.299.054-.615.187-1.06.565-.452 1.066-.745 1.588-.922.522-.176 1.094-.245 1.81-.212.872.622 1.167 1.358 1.54 2.535.032.477.04.657.017.82-.022.15-.072.295-.214.668-.806.742-1.592 1.082-2.703 1.277-.391-.075-.515-.105-.615-.155-.097-.049-.183-.122-.465-.387l-.431-.71ZM10.329 21.536c.657-1.07 1.236-1.725 2.31-2.08 1.22.369 2.052 1.066 2.908 2.113.119.417.153.561.153.698 0 .14-.036.287-.162.73-.657 1.07-1.237 1.726-2.31 2.08-1.221-.369-2.053-1.066-2.909-2.113-.118-.417-.152-.56-.152-.697 0-.14.036-.288.162-.731ZM31.465 27.578l-.01.006-.446.298c-.69.233-1.254.244-2.03.167-.877-.634-1.254-1.6-1.55-2.796-.033-.418-.04-.553-.02-.675.02-.11.062-.22.2-.533.607-.49 1.158-.821 1.723-.983.564-.162 1.175-.166 1.918.06.668.46.931 1.206 1.266 2.154.02.06.042.12.064.18.064.408.087.569.087.715a3 3 0 0 1-.065.52 5.85 5.85 0 0 1-.464.435c-.141.113-.298.213-.673.452ZM34.966 22.816l.003.008.004.007.26.497c.349.709.52 1.172.5 1.864-.1.242-.12.27-.144.295-.042.042-.117.088-.456.262l-.333.094c-.58-.568-.93-1.212-1.355-2.038l-.002-.005-.422-.802c-.152-.413-.214-.658-.22-.88-.005-.194.032-.404.145-.726.321-.213.448-.292.543-.332.053-.021.087-.03.243-.035.538.317.772.814 1.11 1.53l.124.26ZM26.356 26.813l.003.006.268.502c.451.88.734 1.472.645 2.252-.285.188-.4.258-.496.294-.076.028-.14.037-.396.043-.674-.308-.903-.802-1.293-1.643l-.067-.145-.004-.009-.005-.008-.255-.497c-.346-.713-.51-1.173-.48-1.868a.911.911 0 0 1 .201-.31.508.508 0 0 1 .243-.123 1.89 1.89 0 0 1 .454-.033c.097.002.2.006.315.012h.023l.048.003c.267.506.532 1.014.796 1.524ZM9.282 35.216l.002.004.269.548c.39.82.576 1.309.608 2.1-.253.168-.361.232-.452.266-.076.028-.14.037-.396.043-.674-.308-.902-.802-1.293-1.644a94.137 94.137 0 0 0-.067-.144l-.004-.009-.004-.009-.256-.497c-.346-.712-.51-1.172-.48-1.867a.91.91 0 0 1 .202-.31.506.506 0 0 1 .242-.123c.114-.027.257-.036.454-.033.097.002.2.006.315.011l.023.001.037.002c.268.553.535 1.106.8 1.661ZM10.571 25.24l.006.005.751.583c.293.33.377.434.427.54.047.1.07.215.126.608-.056.347-.077.434-.112.503-.029.057-.073.113-.228.271-.915-.1-1.482-.564-2.356-1.286l-.004-.003-.759-.614c-.301-.3-.457-.463-.558-.635-.075-.128-.13-.28-.154-.548.135-.211.206-.318.277-.414.057-.075.114-.144.21-.252.93.154 1.511.553 2.374 1.242ZM16.684 18.054l.004.004.753.6c.312.326.468.528.562.732.083.18.132.392.156.75-.1.163-.133.21-.17.248-.038.037-.084.07-.24.165-.966-.109-1.56-.546-2.453-1.26l-.006-.005-.752-.583c-.292-.33-.376-.434-.426-.54-.047-.1-.07-.215-.126-.607.056-.348.076-.435.111-.504.03-.057.074-.112.228-.27.913.101 1.488.559 2.359 1.27ZM22.327 10.6l.001.002a25.442 25.442 0 0 0 1.933 1.621c-.09.598-.136.88-.183 1.048a.369.369 0 0 1-.06.132 1.962 1.962 0 0 1-.35.041c-.111 0-.24-.015-.545-.056a14.66 14.66 0 0 1-1.547-1.27l-.008-.006-.008-.007-.445-.385c-.139-.128-.226-.208-.31-.292-.134-.137-.257-.285-.568-.668.011-.334.047-.515.11-.663.062-.14.163-.283.37-.502.62.11.998.439 1.61 1.005ZM28.928 3.716h.001l.784.657c.226.194.383.329.499.438.117.11.168.171.194.211.035.054.049.088.076.43-.026.345-.038.4-.06.446-.023.05-.067.104-.27.308-.197.04-.277.05-.364.05-.104 0-.225-.016-.526-.064a14.677 14.677 0 0 1-1.553-1.273l-.008-.007-.007-.007-.445-.385c-.14-.128-.227-.208-.31-.292-.135-.137-.258-.285-.569-.668.011-.334.047-.515.111-.663.062-.142.165-.285.375-.508.65.103 1.122.51 1.747 1.049.103.089.211.182.325.277ZM17.885 31.087l.003.007.003.006.263.497c.366.732.535 1.165.49 1.868-.091.25-.123.331-.153.384a.355.355 0 0 1-.06.078 3.12 3.12 0 0 1-.406.035 3.88 3.88 0 0 1-.44-.036c-.557-.667-.931-1.413-1.332-2.27l-.002-.005-.35-.73c-.117-.355-.16-.546-.16-.713 0-.139.03-.294.13-.546.315-.215.439-.27.545-.287.104-.015.24.001.588.11.323.529.605 1.043.88 1.602ZM2.71 39.02l-.007.003-.006.003-.538.29c-.365.165-.67.208-1.065.206l.012-.06c.024-.12.058-.248.13-.502.157-.122.234-.18.319-.23.109-.066.234-.126.553-.275h.002l.67-.317.707-.315.012-.005.698-.334a36.92 36.92 0 0 1 1.15-.517c.288-.12.463-.174.59-.195.167-.029.265-.01.592.13l.06.178-3.88 1.94ZM7.036 29.49l-.003.003a64.05 64.05 0 0 0-2.419 2.745l-.291-.073c.188-.629.57-1.084 1.111-1.729l.083-.098.001-.002.616-.744c.584-.663 1.152-1.29 1.777-1.875a1.953 1.953 0 0 1 .32.045c-.173.643-.552 1.045-1.158 1.689l-.037.04ZM37.82 22.098h-.002l-.788.377-.47.18-.057-.03c.002-.093.008-.15.02-.21.021-.104.061-.223.162-.5.46-.333.853-.568 1.246-.69.318-.099.65-.128 1.036-.047V21.552c-.381.184-.764.365-1.147.546ZM30.767 1.206l.003-.003.447-.493.157-.165.484.097c-.325.747-.771 1.317-1.366 1.999l-.387-.097c.009-.319.033-.472.082-.596.067-.167.193-.322.58-.742Z"/></svg>