<svg xmlns="http://www.w3.org/2000/svg" width="40" height="40" fill="#fff"><path d="M18.48.32c1.33.776 1.978 2.61 2.48 4l.06.167c.372 1.043.585 2.104.777 3.193.038.215.078.43.118.644.114.61.206 1.216.245 1.836h.24c.132-.128.132-.128.254-.301l.146-.191.15-.203c.305-.407.602-.792.97-1.145l.312-.348c.39-.438.786-.859 1.288-1.172h.16v-.16c.459-.394.992-.673 1.535-.932.188-.09.368-.187.55-.288.426-.212.954-.378 1.416-.228.179.088.179.088.259.168.046.388.066.78.09 1.17l.011.177c.055.893.066 1.779.034 2.673l-.011.317c-.018.403-.035.788-.124 1.183.22-.03.306-.065.46-.231l.135-.19a6.84 6.84 0 0 1 .685-.78c.076-.102.151-.205.225-.31.218-.299.466-.525.75-.762.18-.158.32-.336.465-.527.17-.185.17-.185.32-.32h.16l.067-.144c.205-.39.517-.696.853-.976.656-.558 1.237-1.226 1.79-1.885.563-.651 1.235-1.011 2.09-1.1.56.01 1.17.193 1.605.54l.155.205.17.19c.446.625.53 1.28.415 2.03-.105.61-.506 1.007-.93 1.425l-.132.134c-.263.262-.535.48-.84.69-.155.115-.27.244-.388.396-.114.146-.114.146-.215.255h-.16l-.08.24c-.137.135-.137.135-.305.275a7.225 7.225 0 0 0-.525.48c-.13.125-.13.125-.29.125l-.08.24c-.116.098-.233.195-.352.29-.16.137-.283.297-.414.46-.278.317-.59.635-.994.77l-.064.136c-.142.272-.365.452-.591.654l-.142.13c-.237.214-.476.423-.723.625a2.244 2.244 0 0 0-.445.505c-.252.372-.544.55-.973.683-.405.15-.655.413-.947.722l-.159.163c-.382.398-.756.802-1.1 1.232-.234.29-.491.512-.776.75l-.195.235c-.2.24-.407.426-.649.621-.127.1-.127.1-.196.264h-.16l-.067.135c-.064.128-.13.254-.199.38l-.109.205-.111.205c-.086.188-.086.188-.066.37.094.19.198.23.392.305l.053-.13c.305-.715.662-1.48 1.307-1.95.275-.075.275-.075.48-.08.385.45.415.945.48 1.52.266-.045.484-.11.725-.23.705-.316 1.371-.431 2.14-.435l.194-.001c.393.004.724.062 1.101.186l.193.048c.755.2 1.63.538 2.047 1.232v.32c-.366.133-.72.244-1.105.305-.905.173-1.631.73-2.335 1.295l-.182.142c-.267.21-.267.21-.448.492-.027.174-.027.174.093.317l.152.154c.267.286.445.547.625.895l.082.152c.41.78.516 1.444.508 2.328l.003.296c-.005 1.432-.72 2.63-1.633 3.704-.235.205-.235.205-.4.32.03.19.068.37.139.55.253.648.292 1.338.061 2a2.84 2.84 0 0 0 .12 2.17c.137.707.103 1.324-.273 1.947-.523.723-1.235 1.325-2.127 1.493-1.19.121-2.154-.044-3.139-.753l-.141-.127v-.16a349.959 349.959 0 0 0-1.372-.006c-1.165-.027-1.165-.027-2.263.316-1.279.615-2.59.826-4 .82h-.233c-.75 0-1.487-.045-2.217-.22l-.171-.04c-.63-.158-1.229-.397-1.828-.646-.052-.02-.103-.042-.156-.064l-.184-.086c-.407-.14-.84-.113-1.266-.117-.168-.002-.337-.008-.505-.014-.518-.01-.92-.004-1.34.328l-.156.15c-.66.614-1.651.663-2.502.644-.822-.041-1.556-.3-2.127-.905a13.59 13.59 0 0 1-.8-1.12l-.141-.208c-.176-.342-.142-.697-.099-1.072.057-.16.057-.16.125-.295.217-.5.03-.953-.144-1.44a6.471 6.471 0 0 1-.187-.757c-.03-.154-.03-.154-.114-.308-.117-1.353.474-2.43 1.295-3.45.16-.18.283-.266.495-.4l.21-.15c.042-.258.02-.37-.123-.591l-.157-.184c-.28-.33-.28-.33-.28-.505h-.16l-.16-.24c-.207-.02-.207-.02-.4 0l-.08.24c-.154.14-.154.14-.345.285l-.19.145c-.507.355-1.012.378-1.625.37a3.565 3.565 0 0 1-.72-.24v-.16l-.143-.055C.89 28.408.61 27.558.4 26.96l-.095-.255c-.434-1.503-.24-3.301.475-4.682.684-1.23 1.656-1.982 2.98-2.423-.037-.45-.212-.73-.455-1.095l-.22-.343-.108-.168A13.608 13.608 0 0 1 2.4 16.96l-.076-.146c-.858-1.667-1.822-3.715-1.292-5.637.223-.474.517-.8.995-1.025.698-.235 1.452-.038 2.133.168l.195.058c.693.22 1.335.543 1.981.873.205.1.412.185.624.269l-.034-.298a28.164 28.164 0 0 1-.151-3.11c0-.255-.002-.51-.004-.766v-.495l-.002-.227c.003-.445.013-1.086.351-1.424.602-.074 1.062.063 1.6.32l.164.073c.4.185.75.43 1.108.688.162.12.162.12.328.199v.16h.24c.11.102.216.21.32.32l.285.245c.61.53 1.182 1.083 1.635 1.755l.16.08v.24h.16v.16h.16c.11.161.2.33.295.5l.105.14h.24l.024-.259c.067-.689.16-1.367.296-2.046l.04-.204c.052-.252.102-.487.199-.726.082-.207.133-.405.18-.623.422-1.906 1.088-4.548 2.736-5.802.379-.222.674-.263 1.085-.1Zm-.92 1.06-.192.101a.733.733 0 0 0-.328.439c-.02.17-.02.17-.01.34l.01.3h.16v.24l-.175.02c-.274.073-.42.186-.625.38-.077.23-.088.376-.085.615l.002.196.003.149.24.08v.24l-.265.05c-.308.082-.308.082-.445.335-.142.403-.183.763-.185 1.19l-.003.276c-.006.24-.006.24.178.389l-.185.065c-.208.092-.314.16-.455.335-.093.278-.096.507-.1.8l-.006.3c.005.254.005.254.127.415.157.113.157.113.459.085v.16l-.22.015c-.333.083-.4.176-.58.465a3.703 3.703 0 0 0-.045.64l-.006.17c.001.322.039.455.249.705l.202.165.08.08-.19.1c-.223.149-.299.204-.37.46.01.52.244.91.48 1.36a7.7 7.7 0 0 1 .492 1.29c.067.226.142.447.22.67.163.473.299.937.371 1.435.035.216.035.216.116.464.11.406.139.81.17 1.228.04.464.04.464.311.833h.16l.055.16c.087.199.177.36.295.54.217.337.377.69.53 1.06.11.01.22.019.33.025l.186.014c.301-.058.502-.198.684-.44.075-.234.085-.464.095-.71l.03-.427.016-.227c.033-.408.086-.814.139-1.22l.029-.233a7.01 7.01 0 0 1 .251-1.182c.027-.131.052-.263.075-.395.058-.297.139-.568.252-.85.08-.213.144-.43.208-.648a9.437 9.437 0 0 1 .745-1.787c.175-.349.3-.643.24-1.04-.146-.234-.238-.37-.5-.465l-.14-.015.145-.04c.273-.188.35-.448.415-.76a2.315 2.315 0 0 0-.32-1.28c-.244-.122-.244-.122-.48-.16v-.16l.15-.025c.2-.045.2-.045.33-.295.055-.437.073-.891-.135-1.29-.189-.235-.296-.318-.585-.39l.12-.09c.216-.271.12-.581.087-.91-.077-.462-.187-.98-.527-1.32-.048-.259-.076-.518-.107-.78-.056-.272-.118-.443-.293-.66h-.32l-.021-.21c-.087-.747-.087-.747-.539-1.31-.423-.25-.574-.29-1-.06Zm18.279 3.866c-.195.238-.401.463-.609.689l-.11.12c-.175.191-.352.377-.534.559-.195.19-.195.19-.386.426-.19.227-.39.43-.6.64a22.78 22.78 0 0 0-.35.412c-.169.192-.349.369-.53.548-.891.835-.891.835-1.68 1.76v.16l-.24.08c-.148.14-.148.14-.29.31l-.148.17c-.137.162-.137.162-.202.4l-.24.08c-.24.245-.388.475-.435.815.067.43.25.614.59.88l.212.168c.335.238.673.27 1.073.217a3.944 3.944 0 0 0 1.04-.72v-.16l.24-.08c.129-.13.129-.13.255-.29a6.66 6.66 0 0 1 .798-.783 6.53 6.53 0 0 0 .352-.332c.205-.205.421-.386.646-.569l.109-.106v-.16l.141-.06c.21-.118.325-.25.479-.435.249-.288.505-.54.794-.785a33.743 33.743 0 0 0 2.026-1.92l.21-.209c.31-.312.493-.538.55-.981A1.709 1.709 0 0 0 38.529 5c-.45-.396-.854-.57-1.448-.547-.562.076-.893.365-1.242.793ZM7.92 6.16l.08.32h.16l.16.32h.16l.063.14c.103.19.218.334.362.495l.152.17c.11.118.223.233.338.345 1.842 1.887 3.019 4.441 3.38 7.03l.032.227c.141 1.067.141 1.067-.002 1.588-.036.235-.012.313.111.522.165.212.335.413.524.603.16.013.32.02.48.025l.295.01.31.01.311.01.764.025c-.024-.651-.074-1.262-.235-1.895l-.041-.163a3.74 3.74 0 0 0-.284-.742 6.267 6.267 0 0 1-.065-.36c-.24-1.251-.971-2.55-1.615-3.64h-.16l-.028-.143a1.256 1.256 0 0 0-.238-.451l-.114-.153-.12-.158-.231-.31-.115-.152a16.144 16.144 0 0 1-.333-.472l-.181-.241h-.16l-.063-.141a1.962 1.962 0 0 0-.377-.48l-.148-.148c-.124-.128-.124-.128-.292-.111L10.72 8h-.16l-.055-.14c-.133-.228-.29-.35-.505-.5h-.16V7.2c-.88-.706-.88-.706-1.92-1.04Zm18.24 1.2-.143.116A6.398 6.398 0 0 0 25.44 8c-.193.194-.386.387-.586.575-.514.49-.914 1.016-1.313 1.6-.101.145-.205.289-.31.432-.853 1.167-1.427 2.348-1.895 3.71l-.15.43a14.7 14.7 0 0 0-.41 1.43c-.056.223-.056.223-.14.454-.087.284-.11.543-.126.839l-.018.302-.012.228h-.16l-.08 1.28.48-.16v-.16l.175-.03c.221-.05.412-.118.62-.205.504-.206.982-.35 1.519-.44l.166-.045c.108-.216.05-.326 0-.56-.174-2.584.448-5.134 1.92-7.28l.23-.355.1-.155c.083-.129.083-.129.07-.29h.16c.128-.168.247-.336.365-.51.351-.506.734-.96 1.155-1.41l.3-.345a6.4 6.4 0 0 1 .885-.87l.175-.145v-.16c-.915 0-1.728.64-2.4 1.2Zm-18.32.32c-.093.498-.079.975-.055 1.48l.012.264c.013.272.028.544.043.816l.015.265c.014.25.032.5.05.75l.014.23c.05.616.257.98.731 1.385l.166.144c.136.122.136.122.304.106v.16c.109.07.218.14.327.208.42.307.783.712 1.108 1.117l.165.195h.16l.08.24c.19.217.19.217.4.4h.16l.16.32h.24a9.172 9.172 0 0 0-1.277-4.337c-.083-.143-.083-.143-.188-.408-.51-1.23-1.605-2.398-2.535-3.335h-.08Zm20.436.186c-.224.228-.443.457-.646.704a9.009 9.009 0 0 1-.59.63c-.192.213-.192.213-.24.48h-.16c-.425.505-.739 1.096-1.04 1.68l-.075.143c-.939 1.786-1.552 3.653-1.445 5.697l.08.24h.16l.32-.48.4-.4c.149-.167.292-.338.435-.51l.231-.276.111-.133c.13-.154.264-.305.398-.456.202-.197.202-.197.185-.385l.24-.08c.132-.127.132-.127.26-.285l.148-.174.152-.181a78.867 78.867 0 0 1 .426-.491c.134-.15.134-.15.3-.298 1.076-1.196.652-4.037.634-5.531-.167-.017-.167-.017-.284.106ZM1.92 11.2c-.258.383-.283.673-.24 1.12.13.287.215.383.48.56l-.12.085c-.188.242-.155.416-.12.715.188.462.377.631.831.83l.129.05-.12.165c-.156.305-.17.454-.12.795.183.379.395.765.72 1.04h.16v.16l.64-.08v.16l-.15.015c-.185.052-.185.052-.285.235-.085.436.177.782.41 1.135.261.34.488.397.905.455l-.08.135c-.091.21-.098.357-.08.585.129.129.279.107.457.123 2.935.3 2.935.3 3.751 1.127.105.129.105.129.272.11l.065.175c.088.225.088.225.215.415.246.43.317.823.25 1.308-.072.262-.202.463-.358.684-.107.147-.107.147-.172.378-.165.095-.165.095-.32.16V24l-.15.07c-.18.085-.18.085-.33.25.018.319.214.491.425.715.295.316.578.631.82.99l.115.135h.24c.146-.16.146-.16.29-.365.35-.456.753-.89 1.31-1.075-.016-.156-.016-.156-.08-.32a14.24 14.24 0 0 0-.32-.16c-.078-.139-.078-.139-.16-.32l-.095-.201c-.07-.152-.138-.304-.206-.457a7.814 7.814 0 0 0-.178-.377c-.289-.617-.264-1.518-.066-2.16.148-.366.345-.706.545-1.045l.105-.215c.178-.243.396-.39.643-.558l.132-.107v-.16l.4-.16v-.32h-.16V18l-.15-.022c-.17-.058-.17-.058-.26-.186l-.07-.162-.08-.174-.08-.176c-.188-.414-.188-.414-.56-.64l-.08-.24c-.236-.19-.236-.19-.56-.16l-.045-.24c-.148-.523-.623-.998-1.075-1.28l-.28-.01c-.28-.07-.28-.07-.393-.238-.1-.209-.194-.42-.287-.632-.241-.382-.539-.572-.96-.72-.267-.027-.267-.027-.48 0l-.045-.17c-.231-.463-.681-.762-1.155-.95l-.28-.025c-.294-.058-.325-.077-.51-.285-.272-.304-.576-.406-.97-.49h-.205c-.207 0-.312-.041-.5-.12-.48-.19-.96-.236-1.375.12Zm26.69 2.415a9.92 9.92 0 0 0-.53.625c-.144.162-.288.323-.433.483-.133.151-.133.151-.209.332-.078.145-.078.145-.318.225-.243.244-.243.244-.32.56l-.24.08c-.169.18-.169.18-.34.4l-.193.24c-.162.207-.32.416-.477.625-.21.273-.432.487-.7.702a2.83 2.83 0 0 0-.355.378c-.175.215-.175.215-.335.295v.16a6.716 6.716 0 0 1-.97.315l-.16.043c-.235.062-.469.122-.705.176-.638.154-1.19.44-1.765.746v.16l-.135.015c-.264.093-.402.257-.585.465v.16h-.16l-.025.155-.055.165-.24.08c-.128.14-.128.14-.245.31l-.123.17c-.22.285-.22.285-.257.63.067.258.167.424.305.65.055.186.108.373.16.56l.16.24.146-.164.194-.216.191-.214c.471-.515.471-.515.754-.601.235-.005.235-.005.39.085.085.15.085.15.075.345-.073.214-.17.349-.31.525v.16l-.32.16V24l-.145.065a1.281 1.281 0 0 0-.415.335v.16l-.14.055c-.228.133-.344.293-.5.505l-.14.17c-.122.153-.122.153-.1.39h.16v.16c.242.053.472.088.72.08a1.93 1.93 0 0 0 .4-.4c.117-.121.235-.241.355-.36l.188-.189c.143-.138.287-.267.442-.391.213-.178.376-.353.535-.58v-.16h.8c.062.622.062.622-.098.874a5.649 5.649 0 0 1-.422.4c-.176.16-.349.322-.52.486v.16h-.16c-.148.15-.28.312-.414.474-.146.166-.146.166-.391.35-.177.2-.177.2-.15.43.065.457.065.457.315.826.152-.016.152-.016.32-.08l.185-.045c.334-.179.535-.468.775-.755.26-.274.537-.52.825-.763.188-.163.361-.339.535-.517l.147-.145c.555-.542.555-.542 1.053-1.135v-.16h.16l.19-.375.107-.211c.264-.55.351-1.027.357-1.638a209.193 209.193 0 0 0 .012-.797c.008-.982.17-1.68.799-2.44l.118-.145c.234-.286.475-.538.768-.766.21-.176.38-.387.557-.596.117-.135.238-.259.367-.382.184-.15.184-.15.165-.33l.24-.08c.243-.245.243-.245.32-.56h.16c.091-.086.182-.173.268-.264.104-.107.212-.21.321-.312l.201-.19.194-.18c.156-.16.156-.16.127-.351-.094-.19-.204-.215-.391-.303l-.08-.24h-.16l-.015-.14c-.092-.254-.246-.35-.465-.5-.184-.018-.184-.018-.35.175Zm-16.105 5.85-.185.215-.12.122c-.551.585-.737 1.227-.734 2.023.036.741.388 1.395.879 1.945.483.43 1.102.595 1.735.63.132-.132.093-.29.097-.47l.007-.244.01-.507c.015-.476.047-.842.286-1.26.282-.156.423-.17.74-.11.257.13.26.183.38.43.1.124.204.244.31.36l.164.183c.159.17.32.335.486.498l.235-.345.132-.194c.33-.53.262-1.334.15-1.932-.266-.772-.872-1.374-1.587-1.74-.992-.452-2.139-.332-2.985.396ZM3.92 20.4l-.16.053c-.36.124-.65.282-.96.507l-.14.09c-.368.241-.587.496-.82.87v.16h-.16c-.488.942-.654 1.697-.655 2.75l-.003.24c-.002.887.183 1.846.658 2.61.294.292.55.54.97.59.625-.06 1.01-.47 1.43-.906.301-.309.632-.586.965-.86l.155-.13.14-.113c.119-.096.119-.096.1-.261l.14-.055c.19-.097.19-.097.32-.28.241-.302.527-.534.82-.785.48-.418.942-.853 1.395-1.3l.146-.143c.375-.374.688-.723.699-1.277-.182-.6-.59-.96-1.125-1.255-.458-.177-.955-.251-1.435-.345-.076.229-.09.392-.1.63-.028.317-.045.392-.26.645l-.2.165-.08.24c-.178.006-.357.011-.535.015l-.3.008c-.305-.025-.448-.075-.685-.263-.146-.282-.24-.481-.24-.8l.64-.16.08.24c.182.12.182.12.4.16.198-.1.292-.175.38-.38.028-.249.03-.49.02-.74-.141-.141-.339-.094-.53-.095-.386.004-.704.041-1.07.175Zm24-.48a1.178 1.178 0 0 0-.23.565 5.386 5.386 0 0 1-.334 1.01c-.09.218-.165.44-.236.665-.38-.06-.38-.06-.56-.24h-.24v.8c1.174.664 2.302.882 3.611.564.526-.193.895-.567 1.289-.95.681-.646 1.364-1.139 2.22-1.534-.051-.244-.051-.244-.215-.315-.488-.16-.933-.206-1.445-.2h-.233a4.39 4.39 0 0 0-1.707.355v.16l-.205.02c-.333.072-.547.201-.835.38v.16l-.15.055c-.19.093-.19.093-.25.31l-.08.195c-.17.065-.17.065-.32.08v.24l-.08-.32h.16c.301-.948.301-.948.24-1.92l-.4-.08Zm-10.08 2.72-.07.15c-.172.354-.341.67-.585.98-.345.49-.344 1.09-.385 1.67l-.057-.136c-.284-.626-.688-1.13-1.12-1.659-.143-.174-.283-.35-.423-.525l-.24.08c-.247.74-.038 1.46.24 2.16h.16l.06.144c.115.203.232.3.42.436l.17.126c.143.108.143.108.31.094l-.08.4-.121-.078c-.271-.112-.53-.113-.819-.112h-.173c-.59.013-.958.165-1.367.59l-.175.165c-.163.139-.163.139-.145.315.68.08 1.205.114 1.84-.16v-.16l.185-.035c.222-.042.222-.042.455-.125l-.085.131-.11.174-.11.171c-.173.297-.19.547-.195.884l-.006.255c.006.227.006.227.147.375l.119.09c.159-.06.317-.123.475-.185l.267-.104c.243-.092.243-.092.298-.351l-.04-.165c-.08-.47.012-.974.12-1.435l.24-.08.32-.48c.182-.164.34-.25.565-.35.265-.147.344-.262.475-.53l.08-.16c.043-.712.036-1.334-.24-2a6.64 6.64 0 0 1-.08-.4H18v-.16h-.16Zm8.24 1.12-.097.2A6.204 6.204 0 0 1 24.8 25.6c.102.136.21.27.32.4h.16l.08.24.18.18c.43.43.7.906.95 1.455l.08.173c.435.936.435.936.515 1.427l.035.205c.207.103.39.109.62.135.886.133 1.603.465 2.26 1.065.309.034.309.034.457-.115.878-1.057 1.469-2.058 1.483-3.45l.002-.172c-.006-.963-.377-1.77-.982-2.503l-.104-.152c-.118-.154-.202-.242-.376-.328-.33.005-.64.088-.96.16-1.099.171-2.098-.018-3.1-.481-.172-.09-.172-.09-.34-.08Zm-13.955 1.7-.136.096c-.27.192-.54.386-.789.604v.16l-.32.16v.16h-.16c-.378.462-.625.983-.88 1.52l-.096.197c-.278.59-.39 1.175-.444 1.823-.02.14-.02.14-.1.22a4.43 4.43 0 0 0-.01.32v.605a1815.946 1815.946 0 0 0 0 .375c-.005.142-.005.142.09.22.024.17.045.34.065.51.189 1.34.864 2.651 1.775 3.65l.123.137c.114.123.114.123.277.263h.16l.047.134c.161.266.39.426.638.606l.16.116c2.008 1.415 4.595 1.798 6.987 1.413.78-.137 1.542-.303 2.248-.67.077-.035.154-.072.234-.11.5-.238.942-.494 1.366-.85l.156-.129c.685-.583 1.276-1.191 1.764-1.95l.127-.192c.96-1.51 1.12-3.396.765-5.133a5.503 5.503 0 0 0-.342-.98l-.073-.166c-.312-.681-.672-1.31-1.277-1.77a22.185 22.185 0 0 1-.4-.4c-.304.258-.604.514-.88.8l.24.16c.16.132.23.202.28.404.005.172.005.172-.04.477-.288.192-.507.188-.841.193l-.176.005-.558.012-.378.01-.927.02-.08.16.08.24c.007.12.01.24.01.36v.187c-.01.173-.01.173-.09.413-.299.199-.447.203-.8.16a1.376 1.376 0 0 1-.4-.64l-.39.07-.22.04c-.203.036-.203.036-.35.21a5.15 5.15 0 0 0-.065.355c-.055.265-.073.344-.275.535-.277.088-.425.085-.7-.01-.329-.34-.297-.832-.32-1.28-.134-.07-.134-.07-.32-.08a4.98 4.98 0 0 0-.515.305c-.768.506-.768.506-1.135.48-.19-.065-.19-.065-.43-.305l-.08-1.2L12 28.4c0-.72 0-.72.14-.907l.18-.128c.108-.08.215-.16.32-.245v-.16l.136-.059c.221-.122.38-.272.564-.446.252-.233.493-.432.79-.605l.27-.17v-.24l-.7-.16-.2-.046-.194-.044-.177-.04c-.447-.078-.66.059-1.004.31ZM7.6 25.2l-.08.24-.24.08c-.177.15-.177.15-.32.32V26l-.141.065a2.557 2.557 0 0 0-.479.335l-.149.125c-.13.107-.13.107-.111.275l-.15.06c-.2.118-.237.213-.33.42.153.232.307.463.462.693.113.168.223.338.331.509l.142.218.126.199c.13.16.13.16.336.172.2-.02.2-.02.356-.108.226-.112.431-.11.682-.128.372-.047.372-.047.668-.255.105-.189.18-.378.257-.58l.117-.232c.23-.387.23-.387.233-.808-.137-.2-.28-.39-.43-.58l-.17-.216L8.56 26H8.4l-.06-.175a1.983 1.983 0 0 0-.42-.625H7.6Zm10.08 1.6c-.273.3-.372.542-.352.952.057.297.198.55.352.808h.16v.16c.383.224.768.221 1.2.16.337-.164.58-.457.72-.8.058-.384.04-.645-.145-.99l-.175-.21-.105-.14c-.548-.406-1.131-.286-1.655.06ZM7.52 29.68v.16l-.56.08v.16l-.134.023c-.233.071-.4.184-.601.322l-.213.144c-.182.16-.225.235-.252.47H5.6c-.346.42-.542.85-.72 1.36l-.064.158c-.178.514-.04 1.025.144 1.523.144.223.287.375.48.56.247-.119.477-.255.71-.4.29-.176.56-.313.89-.4.201.19.376.359.515.6.219.35.544.604.925.76.189.02.189.02.38.01l.194-.005.146-.005a2.694 2.694 0 0 0-.265-.8 7.147 7.147 0 0 1-.64-2.46l-.021-.235c-.033-.42-.03-.813.026-1.23.024-.188.028-.371.025-.56L8.32 29.6a3.063 3.063 0 0 0-.8.08Zm19.84 1.12-.002.141c-.026 1.279-.123 2.461-.718 3.619l-.086.177c-.12.247-.241.474-.394.703l.08.24c.476-.21.833-.472 1.04-.96.025-.131.046-.263.065-.395.054-.281.1-.412.265-.655.299-.195.529-.207.87-.15.439.107.83.284 1.222.506.154.077.154.077.378-.026.237-.36.317-.697.24-1.12-.274-.832-.85-1.317-1.61-1.71-.456-.214-.84-.37-1.35-.37Zm.88 3.52-.056.245c-.286 1.202-.286 1.202-.872 1.563a4.272 4.272 0 0 1-1.632.512c.027.479.066.86.32 1.28h.16l.05.18c.166.331.398.471.745.595.884.233 1.732.137 2.569-.201.199-.12.31-.26.451-.444l.146-.187c.244-.376.24-.787.199-1.223-.32-.979-.95-1.805-1.84-2.32h-.24ZM6.16 35.34l-.205.169c-.269.234-.269.234-.515.49v.24h-.16c-.161.447-.205.818-.08 1.28.11.232.23.448.4.64h.16l.08.24c.618.516 1.648.443 2.4.4.528-.054.88-.209 1.28-.56.057-.166.057-.166.08-.32h.16c.134-.348.18-.636.175-1.01l-.002-.267a2.25 2.25 0 0 0-.093-.562l-.188.026c-.714.08-1.28-.003-1.972-.186v-.16l-.22-.145c-.26-.175-.26-.175-.43-.395l-.15-.18c-.377 0-.44.065-.72.3Z"/><path d="M3.6 23.2c.24.16.304.275.4.545 0 .34-.084.567-.32.815-.27.1-.27.1-.56.08-.345-.188-.345-.188-.48-.4-.08-.346-.06-.618.12-.925.283-.163.521-.18.84-.115Z"/></svg>