<svg xmlns="http://www.w3.org/2000/svg" width="40" height="40" fill="#fff"><path d="M35.078 0c.202.073.374.145.563.243l.153.076.315.16a134.588 134.588 0 0 1 .936.47c.306.16.511.317.69.614.06.39-.07.67-.247 1.009l-.077.154-.253.492-.174.342c-.324.636-.652 1.268-.988 1.898-.48.905-.93 1.827-1.387 2.745l.196.005.879.024.308.008.296.009.273.007c.23.025.361.048.548.182.164.257.176.463.176.765l.002.282-.001.31v.329c.002.301.002.603.001.905l.001.976a1017.185 1017.185 0 0 1 .002 3.47v4.894c0 1.287 0 2.573.002 3.859a2907.738 2907.738 0 0 1 .003 6.186V33.276c.002.296.001.591 0 .886 0 .157 0 .313.002.469-.01 1.531-.46 2.807-1.474 3.946-.556.544-1.198.906-1.917 1.19-.078.03-.078.03-.158.063-.796.264-1.639.204-2.467.203l-.537.001c-.485.002-.97.002-1.456.001h-1.217c-1.012.002-2.025.002-3.037 0-.877 0-1.754 0-2.63.003-.904.002-1.806.002-2.71.002l-1.517.001h-1.95c-1.691.008-3.048-.282-4.32-1.489-1.093-1.13-1.453-2.542-1.448-4.066v-1.454l.002-1.402v-1.466a4031.582 4031.582 0 0 1 .003-4.99v-.158a5354337.59 5354337.59 0 0 0 .005-7.28l-.211-.016-.277-.02-.274-.02c-2.079-.184-4.057-1.454-5.396-3.009-1.57-1.998-2.305-4.378-2.006-6.922.217-1.55.808-3.112 1.836-4.31.225-.113.374-.108.625-.079.224.166.224.166.39.391.051.402-.055.604-.278.933C3.79 6.362 3.32 8.338 3.682 10.327c.416 1.94 1.477 3.74 3.166 4.835 1.133.707 2.309 1.104 3.62 1.322l-.077-1.093-.528-.093a6.278 6.278 0 0 1-1.582-.532l-.213-.1a6.227 6.227 0 0 1-3.035-3.438c-.56-1.715-.538-3.524.26-5.159.792-1.532 1.993-2.652 3.613-3.256l.24-.093c1.586-.52 3.375-.334 4.858.385 1.56.8 2.725 2.055 3.273 3.732.144.48.261.944.301 1.444h1.094c-.376-2.175-1.197-4.039-2.993-5.403-1.788-1.221-3.863-1.779-6.016-1.384-1.22.267-2.225.787-3.257 1.475-.253.027-.417.024-.65-.083-.196-.226-.204-.403-.21-.698.16-.353.398-.534.719-.733l.146-.091C8.42.14 10.913-.276 13.208.274c2.296.587 4.29 2.012 5.531 4.045.718 1.221 1.183 2.54 1.183 3.962h10.234l.157-.468c.066-.14.136-.279.208-.416l.13-.249.145-.273c.63-1.2 1.234-2.414 1.837-3.628.353-.71.71-1.419 1.079-2.12l.097-.185c.538-1.018.538-1.018 1.27-.942ZM35 1.484a90.51 90.51 0 0 0-1.172 2.266c-.247.498-.5.993-.762 1.484a91.45 91.45 0 0 0-1.006 1.963l-.075.15-.21.422-.124.248c-.094.164-.094.164-.088.264h1.562A401.563 401.563 0 0 0 36.25 2.11a4.239 4.239 0 0 0-.713-.444 580.6 580.6 0 0 1-.206-.103c-.167-.088-.167-.088-.331-.078ZM11.719 3.75v3.672a17.2 17.2 0 0 0 1.044-.959l.135-.135.417-.42a552.852 552.852 0 0 1 .982-.986c-.132-.394-.51-.53-.867-.713-.525-.241-1.134-.459-1.711-.459Zm-3.672.938c-.03.295-.03.295.088.439l.126.124.141.142.155.15.157.157.33.325c.17.166.338.333.507.5l.32.317.153.152c.194.237.194.237.445.35V3.75c-.896 0-1.688.478-2.422.938ZM6.953 5.78c-.586.724-.885 1.59-1.016 2.5h3.594a18.223 18.223 0 0 0-.936-1.027l-.128-.13L8.2 6.86a122.792 122.792 0 0 1-.666-.67l-.122-.124c-.193-.218-.193-.218-.46-.284Zm8.093.092-.13.13-.147.146-.158.16-.162.162-.34.34a180.263 180.263 0 0 1-.85.855l-.16.159-.145.147-.129.13c-.1.088-.1.088-.09.18h3.515c-.093-.935-.366-1.743-.938-2.5-.16-.017-.16-.017-.266.09ZM5.937 9.53a6.583 6.583 0 0 0 1.016 2.578c.226-.102.388-.212.563-.387l.142-.142.15-.152a591.082 591.082 0 0 0 1.3-1.304l.152-.152c.236-.191.236-.191.35-.44H5.936Zm25 0a39.77 39.77 0 0 0-1.273 2.37l-.288.576-.184.368-.087.174c-.148.274-.148.274-.199.575l.591-.147.167-.04.165-.042.15-.037.177-.047.267-.036c.42-.18.52-.48.71-.882l.113-.23c.119-.24.235-.484.35-.727l.242-.49c.146-.3.291-.598.435-.898l.087-.182c.072-.146.072-.146.062-.305h-1.484ZM10.16 10.767l-.147.145-.159.16-.162.16-.341.341-.524.521-.33.33-.16.158-.146.147-.13.129c-.108.107-.108.107-.091.267.78.482 1.556.938 2.5.938v-3.516c-.14 0-.215.126-.31.22Zm11.563 2.47-.194.193a97.057 97.057 0 0 1-1.022 1.022l-.395.395-.186.184c-.402.41-.743.8-.815 1.39l.011.22.009.224.01.166c2.558-.224 5.016-1.412 7.344-2.422-.18-.43-.544-.729-.868-1.053a43.224 43.224 0 0 1-.348-.355c-.46-.466-.86-.864-1.528-.977l-.224.003-.225-.003c-.678.115-1.103.541-1.569 1.012ZM11.72 9.53l-.012 9.056-.001 1.832v.232l-.005 3.705c-.003 1.268-.004 2.535-.004 3.803 0 .782-.002 1.564-.004 2.346v1.61l-.002.928a120.9 120.9 0 0 0 0 .852l-.003.45c.006 1.152.233 2.384 1.05 3.255 1.05.93 2.139 1.241 3.518 1.239h.882l.487.001a829.212 829.212 0 0 0 2.145.002h2.884l2.682.003a1613.452 1613.452 0 0 0 3.684.002 399.354 399.354 0 0 0 1.768 0c1.531.005 2.98-.047 4.134-1.19.874-1.025 1.119-2.009 1.112-3.333v-2.152l-.002-1.645-.002-2.378c0-1.287-.001-2.573-.003-3.86l-.003-3.748v-1.394l-.008-9.616h-2.11a44.47 44.47 0 0 0-1.255 2.334l-.138.275-.128.257-.115.231c-.093.175-.093.175-.083.34l.137.017c1.83.227 1.83.227 2.364.53.178.268.176.366.177.68l.002.276v.3l.001.306v.643l.003.823c.002.262.001.524.001.786l.002.298-.001.277v.244c-.034.242-.093.35-.264.524-.194.03-.194.03-.405.02l-.213-.01a77.152 77.152 0 0 0-.163-.01 1.843 1.843 0 0 1-.094-.627l-.005-.242-.004-.26-.005-.267-.014-.845-.01-.573a940.29 940.29 0 0 1-.024-1.405c-1.612-.659-3.452-.008-5 .547l.085.181c.357.823.465 1.61.169 2.48-.259.65-.705 1.098-1.19 1.587l-.207.211-.436.44c-.148.148-.296.297-.442.447-.213.218-.428.434-.643.65l-.196.202c-.646.641-1.349.994-2.262 1.014-1.605-.012-2.62-1.267-3.671-2.323a208.879 208.879 0 0 0-.733-.733l-.134-.133a4.187 4.187 0 0 1-.47-.536l-.105-.128a3.584 3.584 0 0 0-.58-.01c-.511.014-1.01.001-1.52-.048l-.171-.015c-.47-.048-.928-.144-1.389-.243a342.577 342.577 0 0 0-.714-.152c-.006 2.229-.01 4.457-.013 6.686 0 1.035-.003 2.07-.005 3.105-.003.902-.004 1.804-.005 2.706 0 .478 0 .955-.002 1.433a319.312 319.312 0 0 0-.004 1.843v.677l-.002.197c.004.511.089 1.01.402 1.426l.15.125.148.129c.47.273.987.29 1.517.287h.205a795.124 795.124 0 0 1 1.167.001c.441.002.883.002 1.324.002h1.106c.87.002 1.74.002 2.61.001.896 0 1.793 0 2.69.002a1113.614 1113.614 0 0 0 3.691.003 280.671 280.671 0 0 0 1.773 0c1.234.048 1.234.048 2.344-.407l.122-.155.127-.153c.25-.404.287-.8.285-1.264v-.185c.002-.205.001-.409.001-.613l.002-.44.002-.947c0-.498.002-.997.004-1.495l.01-3.445.009-3.158.003-1.488a406.566 406.566 0 0 1 .003-1.353 94.967 94.967 0 0 1 .002-.758c.002-.287.013-.407.177-.653.284-.088.417-.102.689.024.17.132.17.132.249.288.008.195.011.387.011.582l.001.184.002.613.001.439c.002.48.002.962.003 1.443l.001.497.004 2.338c0 .898.002 1.797.006 2.695l.003 2.085c0 .415.001.83.003 1.244.002.39.002.782.002 1.172l.001.429c.008 1.106-.044 2.081-.863 2.913-.45.385-.923.641-1.522.643H32.1l-.22.002-.734.001-.525.002-1.726.003H28.3l-2.472.004h-.802l-2.58.005c-.884.003-1.767.004-2.651.005-.496 0-.992 0-1.488.003-.466.001-.933.002-1.4 0l-.513.002c-.234.002-.468.001-.702 0l-.204.003c-.754-.008-1.356-.29-1.897-.806-.63-.7-.726-1.531-.721-2.44l-.001-.227V24.68a2293.18 2293.18 0 0 1 0-5.82v-.523c-.005-2.7-.005-2.7.821-3.835 1.051-1.003 2.475-1.149 3.863-1.166.265.008.504.06.761.125.497.108.953.197 1.45.055.523-.35.925-.813 1.331-1.288l.109-.126.106-.125c.455-.51 1.115-.856 1.799-.905 1.009-.031 1.717.096 2.495.788.166.159.327.321.489.484l.337.334c.306.303.61.609.913.916.22-.194.335-.404.469-.664l.135-.262.143-.28.146-.286c.146-.283.29-.568.435-.852l.127-.25.332-.653.1-.197c.163-.295.163-.295.222-.619H11.72Zm2.84 5.839a1.887 1.887 0 0 0-.418 1.27c.81.229 1.607.42 2.446.499l.204.02c.383.031.723.02 1.1-.05l.006-.209c.04-.87.238-1.553.697-2.29-1.287-.181-3.06-.269-4.035.76Zm12.49.284-.178.076-.194.087-.418.18-.221.096c-1.923.833-3.893 1.638-5.96 2.032 0 .3.115.379.318.584l.139.138.142.143.301.3c.153.151.304.304.455.456a269 269 0 0 0 .293.293l.135.136c.463.455.96.845 1.63.865l.192.009c.683-.102 1.12-.572 1.585-1.04l.205-.206.428-.428c.217-.22.435-.436.654-.653l.417-.418.197-.195c.429-.436.755-.823.756-1.464-.012-.383-.109-.715-.347-1.02-.262-.088-.29-.077-.528.028Z"/><path d="m20.01 22.666.24.01c.776.152 1.462.56 2.133.962l.243.144.492.293c.23.137.462.273.694.407l.416.245.192.11c.29.172.52.328.74.585.214.231.214.231.506.213.117-.025.234-.055.35-.088l.238-.067c.372-.109.743-.223 1.113-.34.977-.294 1.85-.341 2.79.094.982.575 1.376 1.477 1.692 2.527l.078.256.16.535c.08.268.163.537.246.805.711 2.354.711 2.354.177 3.456-.611 1.083-1.427 1.5-2.594 1.837l-.241.071-.754.22-.51.151-.488.144-.23.067-.215.063-.188.054c-.881.236-1.773.213-2.602-.186-.843-.512-1.223-1.206-1.563-2.109l-.154.097c-.802.494-1.555.728-2.497.525-1.196-.374-2.298-1.157-3.365-1.794l-.176-.105c-.912-.546-1.608-1.06-1.928-2.126-.408-1.784.877-3.364 1.742-4.82l.235-.397c.522-.888 1.07-1.472 2.08-1.77.324-.068.618-.088.948-.069Zm-1.494 1.787c-.158.215-.158.215-.297.458l-.08.134a45.99 45.99 0 0 0-.33.562c-.188.324-.373.65-.558.975l-.162.284-.31.545a79.519 79.519 0 0 1-.367.644l-.09.158a1.644 1.644 0 0 0-.105 1.175c.341.9 1.167 1.289 1.967 1.716.302.163.597.334.89.512l.25.15c.16.096.32.194.48.293.555.332 1.119.608 1.778.47.504-.185.862-.44 1.152-.888-.033-.554-.225-1.085-.384-1.613-.245-.856-.241-1.661.16-2.473a3.415 3.415 0 0 1 1.552-1.383 4.983 4.983 0 0 0-.814-.558l-.246-.135-.258-.142a38.495 38.495 0 0 1-1.956-1.144c-.812-.44-1.586-.348-2.272.26ZM27.51 26.4a188.376 188.376 0 0 0-1.497.45l-.486.146-.227.068c-.746.229-1.325.484-1.784 1.14-.298.633-.12 1.224.069 1.861l.07.244.15.51c.076.258.15.516.225.775l.146.497.066.231c.28.99.28.99.963 1.706l.179.108c.665.338 1.376.137 2.053-.065l.244-.07.508-.15.774-.225.496-.145.231-.067c.685-.206 1.22-.479 1.638-1.07.33-.7.143-1.424-.07-2.133l-.07-.244-.15-.506c-.076-.257-.15-.514-.224-.771l-.146-.495-.066-.23c-.206-.68-.478-1.226-1.07-1.637-.674-.314-1.345-.136-2.023.072ZM32.031 19.14c.533.444.74.962.816 1.636a2.19 2.19 0 0 1-.606 1.407c-.524.467-.973.518-1.665.5-.524-.053-.826-.253-1.186-.627-.328-.402-.458-.803-.513-1.314.07-.66.293-1.17.81-1.601.755-.45 1.59-.45 2.344 0Zm-1.797 1.329c-.09.19-.09.19-.078.39.109.222.217.373.39.547.242.032.395.05.626 0 .253-.188.253-.188.39-.468.012-.34-.021-.485-.248-.738-.48-.266-.753-.151-1.08.269ZM17.948 19.633c.362.271.582.645.724 1.07.046.495.037.978-.235 1.406-.352.397-.708.716-1.25.782-.59.012-1.027-.088-1.484-.47-.359-.348-.53-.793-.557-1.29.032-.597.267-1.035.708-1.434.664-.46 1.396-.447 2.094-.064Zm-1.42 1.158c-.15.22-.15.22-.078.474.1.238.1.238.347.376a.937.937 0 0 0 .532-.176c.13-.192.132-.3.093-.527-.156-.213-.25-.299-.508-.357-.211.031-.211.031-.386.21Z"/></svg>