<svg width="20" height="20" viewBox="0 0 20 20" fill="none" xmlns="http://www.w3.org/2000/svg">
<path d="M10 1C14.9625 1 19 5.0375 19 10C19 14.9625 14.9625 19 10 19C5.0375 19 1 14.9625 1 10C1 5.0375 5.0375 1 10 1ZM10 0C4.4775 0 0 4.477 0 10C0 15.5235 4.4775 20 10 20C15.5235 20 20 15.5235 20 10C20 4.477 15.5235 0 10 0Z" fill="#A63D40"/>
<path fill-rule="evenodd" clip-rule="evenodd" d="M7.1855 4.89646C7.789 4.78246 8.1845 5.46296 8.4855 5.93246C8.7785 6.38846 9.139 6.92346 8.9935 7.51696C8.9125 7.84996 8.6115 8.03146 8.384 8.22796C8.1595 8.42196 7.8175 8.59996 7.7345 8.89796C7.599 9.38146 7.8955 9.88896 8.079 10.178C8.496 10.831 9 11.4195 9.6435 11.945C9.955 12.2 10.3875 12.5405 10.821 12.453C11.4685 12.322 11.6395 11.5235 12.3445 11.417C13.0155 11.3155 13.4695 11.802 13.8485 12.128C14.2135 12.4435 14.8025 12.8475 14.7625 13.388C14.739 13.6985 14.49 13.891 14.274 14.0785C14.0545 14.27 13.862 14.485 13.645 14.6265C13.1195 14.9695 12.475 15.1375 11.735 15.1145C11.0095 15.092 10.4315 14.8455 9.907 14.566C8.8815 14.019 8.071 13.2495 7.3075 12.392C6.5565 11.549 5.863 10.551 5.4795 9.44746C5.001 8.06946 5.254 6.65396 6.0285 5.77096C6.1595 5.62096 6.3665 5.46446 6.556 5.30346C6.745 5.14196 6.92 4.94646 7.1855 4.89646Z" fill="#A63D40"/>
</svg>
