<svg xmlns="http://www.w3.org/2000/svg" width="40" height="40" fill="none"><path d="M9.196.159c.637.434.84 1.046 1.096 1.737l.111.288c.268.704.268.704.268 1.044a408.366 408.366 0 0 1 1.238-.432c1.908-.663 1.908-.663 2.815-.259.801.38 1.092 1.166 1.37 1.945l.1.273.204.568c.103.289.21.577.315.864l.2.555.096.258c.243.691.3 1.284.116 2.005l.177.069c.676.39.877 1.173 1.135 1.856l.226.593c.141.366.28.732.417 1.1l.138.36c.29.785.492 1.492.227 2.31l-.1.187c.27.223.27.223.605.398.33-.075.523-.212.806-.398l-.1-.187c-.323-.996.062-1.892.416-2.826l.145-.398c.143-.392.294-.782.447-1.171l.077-.197c.076-.19.153-.379.231-.567l.136-.332c.18-.333.377-.551.666-.797h.201l-.05-.199c-.13-.77-.006-1.339.26-2.06l.097-.273c.067-.189.136-.378.206-.566.105-.287.207-.574.308-.862l.201-.553.091-.257c.24-.645.56-1.257 1.134-1.67l.212-.084.21-.09c.783-.181 1.4.017 2.135.277l.28.096c.177.06.354.121.53.183.28.097.56.19.841.281l.03-.19c.099-.429.247-.835.399-1.248l.088-.252c.216-.59.457-1.089 1.015-1.435.568-.125 1.15-.171 1.683.093.44.339.651.634.767 1.162.075.912-.345 1.751-.69 2.576-.08.204-.08.204-.064.49l.19.061c.29.096.58.195.869.293l.3.098c.804.278 1.42.64 1.868 1.371.222.81.102 1.51-.19 2.283l-.092.251c-.063.174-.128.348-.193.52a524.39 524.39 0 0 1-.564 1.537c-.243.643-.524 1.248-1.066 1.691-.24.233-.24.233-.203.471l.044.245c.07.566-.045.973-.245 1.5l-.096.267c-.068.19-.138.378-.208.566a380.357 380.357 0 0 1-.578 1.589l-.11.306c-.258.686-.506 1.177-1.138 1.593h-.303l.1.23c.324 1.178-.096 2.155-.517 3.252a267.42 267.42 0 0 1-.514 1.372l-.092.25c-.256.66-.57 1.28-1.196 1.67l.101.298c.068.656-.06 1.194-.291 1.806l-.091.252-.194.522a444.89 444.89 0 0 1-.478 1.305l-.086.237c-.302.8-.67 1.45-1.381 1.954-.944.31-1.856.039-2.749-.299l-.319-.115a61.01 61.01 0 0 1-.765-.283c-.015.077-.03.153-.044.233-.08.373-.235.71-.385 1.06-.173.691.089 1.336.34 1.975l.095.246c.098.256.197.513.297.769.13.338.261.676.39 1.015l.091.23c.264.691.443 1.349.14 2.052-.266.43-.646.729-1.126.886-.552.042-.926-.032-1.412-.298-.421-.407-.582-.742-.706-1.295h-.201l-.042.175c-.17.61-.41.988-.967 1.319-.489.154-.943.162-1.425-.019-.49-.305-.794-.566-.951-1.127-.132-.915.345-1.818.666-2.663l.081-.213c.111-.29.222-.579.335-.868.083-.214.165-.429.246-.644l.078-.194c.246-.66.107-1.184-.146-1.817-.12-.304-.195-.494-.195-.822l-.194.073c-.296.11-.593.218-.89.325l-.305.115c-.752.269-1.568.467-2.355.215-.723-.368-1.061-.986-1.324-1.706l-.087-.23a71.351 71.351 0 0 0-.539-1.425l-.25-.66-.123-.316c-.23-.615-.336-1.117-.287-1.77v-.399l-.22-.161c-.768-.64-1.051-1.868-1.387-2.78a71.66 71.66 0 0 0-.272-.717c-.38-1.014-.7-1.962-.24-3.015l-.17-.025c-.37-.119-.636-.306-.839-.642-.24-.482-.442-.97-.624-1.476l-.086-.235-.176-.487a219.38 219.38 0 0 0-.444-1.22l-.082-.225c-.257-.713-.41-1.313-.2-2.065l-.322-.224c-.317-.27-.468-.508-.621-.891l-.13-.322c-.045-.117-.09-.235-.138-.356l-.075-.191a78.353 78.353 0 0 1-.48-1.249c-.055-.145-.11-.29-.166-.433-.738-1.905-.738-1.905-.332-2.834.482-.82 1.228-1.117 2.106-1.407l.31-.107a71.8 71.8 0 0 1 .755-.254 4.237 4.237 0 0 0-.325-1.16c-.324-.775-.584-1.5-.313-2.334.185-.38.454-.636.834-.823.53-.167 1.038-.127 1.557.053ZM27.11 6.017a157.142 157.142 0 0 0-.393.914c-.123.262-.123.262-.11.48 1.268.475 2.538.944 3.813 1.401l.328.12.304.108.269.097c.236.082.236.082.53.068l.202-.53.113-.297c.104-.27.104-.27.088-.568a1868.01 1868.01 0 0 0-3.841-1.4l-.325-.12-.3-.108-.264-.097c-.207-.078-.207-.078-.414-.068Zm-14.744.143-.264.095-.286.104-.294.106a409.42 409.42 0 0 0-1.56.562l-.598.216-.285.102c-.413.15-.825.3-1.232.465.063.503.215.926.403 1.395.656-.131 1.267-.312 1.894-.542l.273-.1.853-.31.58-.212 1.055-.384.213-.078c.182-.067.182-.067.377-.167a80.478 80.478 0 0 0-.139-.53l-.078-.297c-.078-.287-.078-.287-.288-.568-.24 0-.398.062-.624.143Zm2.309 6.375-.265.095-.284.104-.294.105-.93.337-.624.226c-1.061.378-1.061.378-2.112.783l.139.473.078.266c.078.234.174.438.288.655 1.1-.25 2.143-.669 3.196-1.064l.567-.212 1.38-.517a126.14 126.14 0 0 0-.093-.429l-.053-.241a4.005 4.005 0 0 0-.257-.724c-.299 0-.46.043-.736.143Zm10.015-.143-.202.53-.113.297c-.104.269-.104.269-.089.568.526.19 1.051.382 1.577.573l.535.195.261.095.259.094.507.184c.352.128.704.257 1.055.39l.299.114.247.095c.22.077.22.077.505-.047.126-.248.126-.248.22-.542l.106-.298c.087-.243.087-.243.078-.455a1220.973 1220.973 0 0 0-2.808-1.027l-1.024-.374-.323-.119-.3-.108-.264-.097c-.233-.083-.233-.083-.526-.068Zm-2.42 6.674a89.746 89.746 0 0 0-.405.992c-.136.29-.136.29 0 .502.213.1.213.1.475.187a23758.26 23758.26 0 0 0 .639.225l.339.12 1.076.377.727.256c.596.21 1.192.42 1.788.628.16-.238.267-.43.372-.691l.083-.202c.06-.248.046-.365-.052-.601-.203-.127-.203-.127-.463-.21l-.3-.109-.324-.112-.332-.12c-.35-.125-.7-.248-1.052-.37l-.71-.254c-.432-.154-.864-.308-1.297-.46l-.265-.093c-.18-.07-.18-.07-.3-.065Zm-5.003.158-.299.105-1.35.48c-.239.086-.477.17-.716.254-.342.12-.684.242-1.026.365l-.325.112-.299.109-.264.094c-.215.099-.215.099-.284.31-.024.294.07.505.18.777l.115.297.092.226c.92-.254 1.81-.58 2.706-.906a268.96 268.96 0 0 1 1.303-.473l.24-.087c.325-.12.605-.236.895-.427a3.974 3.974 0 0 0-.404-1.394c-.194 0-.383.094-.564.158Zm2.683 6.217a630.25 630.25 0 0 0-.404.905c-.134.291-.134.291 0 .589.195.109.195.109.44.19l.284.102.309.107.315.113c.22.079.442.156.663.234a698.168 698.168 0 0 0 1.964.697l.286.1.252.088c.253.08.253.08.63.062.071-.176.14-.352.209-.529l.117-.298c.108-.275.108-.275-.023-.567-.205-.113-.205-.113-.463-.199l-.299-.109-.325-.114-.331-.12c-.35-.125-.702-.25-1.053-.373l-.71-.256c-.432-.154-.864-.31-1.297-.462l-.264-.094c-.18-.072-.18-.072-.3-.066Zm-4.942 1.892c.045.158.092.316.138.473l.078.267c.078.232.17.44.288.655l.403-.2-.05-.186c-.07-.436-.058-.867-.05-1.308-.311 0-.536.16-.807.3Z"/></svg>