<svg width="106" height="150" viewBox="0 0 106 150" fill="none" xmlns="http://www.w3.org/2000/svg">
<g clip-path="url(#clip0_1_481)">
<path d="M31.3413 102.827C33.6213 101.412 36.2304 100.554 38.5845 100.446C42.3532 101.808 43.8218 104.838 45.7693 108.856C46.0158 109.365 46.27 109.889 46.5375 110.428C46.7132 112.07 46.7949 113.137 46.6499 114.108C46.5144 115.015 46.1642 115.917 45.2931 117.126C43.347 118.605 41.8034 119.673 40.1763 120.385C38.5838 121.081 36.8525 121.458 34.53 121.44C32.9454 120.991 32.3253 120.805 31.8727 120.576C31.4942 120.384 31.2267 120.161 30.4579 119.449C28.4311 115.598 27.4867 113.786 26.9874 112.38C26.5393 111.118 26.4571 110.207 26.3314 108.144C27.2711 106.097 29.0836 104.228 31.3413 102.827Z" stroke="black" stroke-opacity="0.2" stroke-width="3"/>
<path d="M26.0194 46.2386C26.9465 46.1429 27.9474 46.2218 29.4324 46.4332C33.0696 48.9941 36.003 51.8207 38.4843 55.4364C38.3767 57.7559 37.8631 59.4192 37.0296 60.9018C36.1419 62.4809 34.8602 63.9183 33.0982 65.7718C31.6858 66.4534 30.6074 66.7405 29.5252 66.8261C28.4081 66.9145 27.2187 66.7961 25.527 66.5595C21.0736 63.748 17.9702 61.0958 16.62 56.4424C17.7524 52.5904 19.7284 50.1391 22.8574 47.2494C24.1653 46.6116 25.0981 46.3336 26.0194 46.2386Z" stroke="black" stroke-opacity="0.2" stroke-width="3"/>
<path d="M60.8096 26.5H60.8114C61.1625 28.0463 61.3473 29.1506 61.3133 30.2015C61.2744 31.4016 60.9413 32.6312 59.9962 34.4136L57.8391 37.0501L57.7926 37.1069L57.7519 37.1679L56.6818 38.7732C54.7686 39.9238 52.9388 40.137 50.4166 40.0498C46.6168 39.0667 43.9728 36.5402 41.3023 33.2261C40.6152 31.5803 40.3699 30.9514 40.2818 30.3347C40.1974 29.7441 40.2521 29.1289 40.4456 27.5365C42.6256 24.288 44.3428 22.2055 46.3408 21.0586C48.2558 19.9593 50.6347 19.6146 54.409 20.4071C55.7395 21.2851 56.3629 21.7019 56.8911 22.1244C57.3546 22.4952 57.7503 22.8749 58.5 23.6219V23.6232V23.6271V23.631V23.6349V23.6387V23.6426V23.6465V23.6504V23.6543V23.6581V23.662V23.6659V23.6698V23.6737V23.6775V23.6814V23.6853V23.6892V23.6931V23.697V23.7008V23.7047V23.7086V23.7125V23.7164V23.7202V23.7241V23.728V23.7319V23.7358V23.7397V23.7435V23.7474V23.7513V23.7552V23.7591V23.763V23.7668V23.7707V23.7746V23.7785V23.7824V23.7863V23.7902V23.794V23.7979V23.8018V23.8057V23.8096V23.8135V23.8174V23.8213V23.8251V23.829V23.8329V23.8368V23.8407V23.8446V23.8485V23.8524V23.8562V23.8601V23.864V23.8679V23.8718V23.8757V23.8796V23.8835V23.8874V23.8913V23.8951V23.899V23.9029V23.9068V23.9107V23.9146V23.9185V23.9224V23.9263V23.9302V23.9341V23.938V23.9419V23.9457V23.9496V23.9535V23.9574V23.9613V23.9652V23.9691V23.973V23.9769V23.9808V23.9847V23.9886V23.9925V23.9964V24.0003V24.0042V24.0081V24.012V24.0159V24.0198V24.0237V24.0276V24.0315V24.0354V24.0393V24.0432V24.0471V24.051V24.0549V24.0588V24.0627V24.0666V24.0705V24.0744V24.0783V24.0822V24.0861V24.09V24.0939V24.0978V24.1017V24.1056V24.1095V24.1134V24.1173V24.1212V24.1251V24.129V24.1329V24.1368V24.1407V24.1446V24.1485V24.1524V24.1564V24.1603V24.1642V24.1681V24.172V24.1759V24.1798V24.1837V24.1876V24.1915V24.1954V24.1993V24.2033V24.2072V24.2111V24.215V24.2189V24.2228V24.2267V24.2306V24.2345V24.2385V24.2424V24.2463V24.2502V24.2541V24.258V24.2619V24.2659V24.2698V24.2737V24.2776V24.2815V24.2854V24.2893V24.2933V24.2972V24.3011V24.305V24.3089V24.3129V24.3168V24.3207V24.3246V24.3285V24.3324V24.3364V24.3403V24.3442V24.3481V24.352V24.356V24.3599V24.3638V24.3677V24.3717V24.3756V24.3795V24.3834V24.3874V24.3913V24.3952V24.3991V24.4031V24.407V24.4109V24.4148V24.4188V24.4227V24.4266V24.4305V24.4345V24.4384V24.4423V24.4463V24.4502V24.4541V24.458V24.462V24.4659V24.4698V24.4738V24.4777V24.4816V24.4856V24.4895V24.4934V24.4974V24.5013V24.5052V24.5092V24.5131V24.517V24.521V24.5249V24.5288V24.5328V24.5367V24.5406V24.5446V24.5485V24.5525V24.5564V24.5603V24.5643V24.5682V24.5722V24.5761V24.58V24.584V24.5879V24.5919V24.5958V24.5997V24.6037V24.6076V24.6116V24.6155V24.6195V24.6234V24.6274V24.6313V24.6352V24.6392V24.6431V24.6471V24.651V24.655V24.6589V24.6629V24.6668V24.6708V24.6747V24.6787V24.6826V24.6866V24.6905V24.6945V24.6984V24.7024V24.7063V24.7103V24.7142V24.7182V24.7222V24.7261V24.7301V24.734V24.738V24.7419V24.7459V24.7498V24.7538V24.7578V24.7617V24.7657V24.7696V24.7736V24.7776V24.7815V24.7855V24.7894V24.7934V24.7974V24.8013V24.8053V24.8092V24.8132V24.8172V24.8211V24.8251V24.8291V24.833V24.837V24.841V24.8449V24.8489V24.8529V24.8568V24.8608V24.8648V24.8687V24.8727V24.8767V24.8807V24.8846V24.8886V24.8926V24.8965V24.9005V24.9045V24.9085V24.9124V24.9164V24.9204V24.9244V24.9283V24.9323V24.9363V24.9403V24.9443V24.9482V24.9522V24.9562V24.9602V24.9641V24.9681V24.9721V24.9761V24.9801V24.9841V24.988V24.992V24.996V25V26.5H60H60.0039H60.0077H60.0116H60.0155H60.0193H60.0232H60.0271H60.0309H60.0348H60.0387H60.0425H60.0464H60.0503H60.0541H60.058H60.0619H60.0657H60.0696H60.0735H60.0773H60.0812H60.0851H60.0889H60.0928H60.0967H60.1005H60.1044H60.1083H60.1121H60.116H60.1199H60.1237H60.1276H60.1315H60.1354H60.1392H60.1431H60.147H60.1508H60.1547H60.1586H60.1624H60.1663H60.1702H60.174H60.1779H60.1818H60.1856H60.1895H60.1934H60.1972H60.2011H60.205H60.2088H60.2127H60.2166H60.2204H60.2243H60.2282H60.2321H60.2359H60.2398H60.2437H60.2475H60.2514H60.2553H60.2591H60.263H60.2669H60.2707H60.2746H60.2785H60.2824H60.2862H60.2901H60.294H60.2978H60.3017H60.3056H60.3094H60.3133H60.3172H60.3211H60.3249H60.3288H60.3327H60.3365H60.3404H60.3443H60.3481H60.352H60.3559H60.3598H60.3636H60.3675H60.3714H60.3752H60.3791H60.383H60.3869H60.3907H60.3946H60.3985H60.4023H60.4062H60.4101H60.414H60.4178H60.4217H60.4256H60.4295H60.4333H60.4372H60.4411H60.4449H60.4488H60.4527H60.4566H60.4604H60.4643H60.4682H60.4721H60.4759H60.4798H60.4837H60.4876H60.4914H60.4953H60.4992H60.5031H60.5069H60.5108H60.5147H60.5186H60.5224H60.5263H60.5302H60.5341H60.5379H60.5418H60.5457H60.5496H60.5534H60.5573H60.5612H60.5651H60.5689H60.5728H60.5767H60.5806H60.5844H60.5883H60.5922H60.5961H60.6H60.6038H60.6077H60.6116H60.6155H60.6194H60.6232H60.6271H60.631H60.6349H60.6387H60.6426H60.6465H60.6504H60.6543H60.6581H60.662H60.6659H60.6698H60.6737H60.6775H60.6814H60.6853H60.6892H60.6931H60.697H60.7008H60.7047H60.7086H60.7125H60.7164H60.7202H60.7241H60.728H60.7319H60.7358H60.7397H60.7435H60.7474H60.7513H60.7552H60.7591H60.763H60.7669H60.7707H60.7746H60.7785H60.7824H60.7863H60.7902H60.7941H60.7979H60.8018H60.8057H60.8096Z" stroke="black" stroke-opacity="0.2" stroke-width="3"/>
<path d="M-2.71869 132.22L-2.72481 132.21L-2.7311 132.2L-4.46266 129.453C-5.14632 127.628 -5.4346 126.328 -5.44902 125.074C-5.46281 123.875 -5.22743 122.618 -4.70049 120.876C-2.52261 119.12 -0.579111 117.972 1.45944 117.284C3.50112 116.594 5.72536 116.336 8.49823 116.474C11.9551 118.904 13.0942 121.789 14.5153 126.28C14.6353 128.088 14.6721 128.814 14.5776 129.475C14.4883 130.101 14.2777 130.695 13.7225 132.143C10.6018 135.042 7.55573 136.355 3.26668 137.101C1.7601 136.809 1.22974 136.688 0.795834 136.471C0.370479 136.258 4.05312e-05 135.935 -1.07367 134.923L-2.71869 132.22Z" stroke="black" stroke-opacity="0.2" stroke-width="3"/>
<path d="M-5.61355 80.6077C-3.0958 76.4999 -0.844333 73.9337 3.39167 72.5649C8.15044 73.9772 11.3605 76.6823 14.6416 80.7063C15.0995 82.3156 15.25 82.9184 15.25 83.5C15.25 84.0934 15.0934 84.7087 14.6136 86.3923C12.0958 90.5001 9.84434 93.0663 5.60833 94.4351C0.849565 93.0228 -2.36049 90.3177 -5.64162 86.2937C-6.09953 84.6844 -6.25 84.0816 -6.25 83.5C-6.25 82.9066 -6.0934 82.2913 -5.61355 80.6077Z" stroke="black" stroke-opacity="0.2" stroke-width="3"/>
<path d="M74.1947 103.735L74.1812 103.743L74.168 103.752L72.4521 104.896C69.7434 105.821 67.5407 105.851 64.5351 105.548C61.0645 103.083 59.6113 99.3061 58.4858 94.7604C58.3628 93.1844 58.3316 92.6194 58.4171 92.106C58.4969 91.6275 58.6835 91.1615 59.2264 89.9347C61.5523 88.0479 63.6853 86.7552 65.8904 86.1216C68.0964 85.4878 70.4816 85.4831 73.3501 86.3681C75.9986 88.1587 77.0302 91.087 78.2775 94.628C78.3637 94.8727 78.4509 95.1202 78.5398 95.3706C78.7814 96.9129 78.875 97.5528 78.875 98.1407C78.875 98.6621 78.8014 99.1586 78.6054 100.273C77.6899 101.187 77.2399 101.625 76.7505 102.016C76.2033 102.454 75.5962 102.843 74.1947 103.735Z" stroke="black" stroke-opacity="0.2" stroke-width="3"/>
<path d="M87.4596 85.3977L87.4707 85.421L87.4827 85.4439L88.457 87.3112C89.7895 90.0178 90.4614 91.8279 90.3714 94.5488C89.9825 95.5024 89.8786 95.6843 89.7234 95.8403C89.5133 96.0517 89.1641 96.2536 87.8863 96.9094L86.3952 97.33C84.078 95.1166 82.7141 92.6123 81.0843 89.4396L81.0809 89.433L81.0774 89.4264L79.483 86.3971C78.9078 84.827 78.6542 83.8543 78.6301 82.9496C78.6086 82.1392 78.7697 81.2753 79.2362 79.979C80.5084 79.133 81.0365 78.798 81.4419 78.6303C81.7149 78.5174 81.9041 78.4856 82.59 78.4635C84.7803 79.7151 85.717 81.7036 86.9921 84.4108C87.1424 84.7298 87.2973 85.0588 87.4596 85.3977Z" stroke="black" stroke-opacity="0.2" stroke-width="3"/>
<path d="M55.1678 100.377L55.1721 100.385L55.1765 100.393L56.1826 102.279C57.9073 105.641 59.0323 107.976 58.6227 111.115C57.4515 111.891 56.9597 112.195 56.5415 112.352C56.1838 112.486 55.8761 112.517 54.8468 112.54C52.1307 111.327 51.2144 109.349 49.7524 106.193C49.6653 106.005 49.5763 105.813 49.4848 105.617L49.4723 105.59L49.4588 105.564L48.4981 103.697C47.1778 100.974 46.5348 99.1759 46.6637 96.4412C46.9537 95.7579 47.2563 95.3465 47.5355 95.0868C47.8307 94.8123 48.1701 94.6416 48.6137 94.5367C49.0843 94.4255 49.6584 94.3915 50.4086 94.4042C50.7792 94.4104 51.1704 94.4273 51.6002 94.4465C51.6282 94.4478 51.6563 94.4491 51.6846 94.4503C51.8134 94.4561 51.9454 94.4621 52.0799 94.4678C53.1182 96.432 54.1456 98.4015 55.1678 100.377Z" stroke="black" stroke-opacity="0.2" stroke-width="3"/>
<path d="M-4.12397 94.3593L-4.11537 94.3661L-4.10668 94.3729L-1.2607 96.5797C-0.157293 97.8274 0.204439 98.2623 0.420073 98.7206C0.62664 99.1597 0.718288 99.6608 0.932312 101.163C0.7187 102.494 0.633854 102.893 0.468653 103.218C0.325285 103.5 0.103527 103.763 -0.579735 104.456C-4.24551 104.105 -6.46954 102.277 -9.79496 99.5308L-9.8008 99.526L-9.8067 99.5212L-12.6675 97.2073C-13.7977 96.0785 -14.4233 95.4338 -14.8327 94.7366C-15.1619 94.1761 -15.383 93.5173 -15.473 92.3963C-14.9209 91.5336 -14.6372 91.0997 -14.3469 90.7125C-14.1022 90.3863 -13.8499 90.0894 -13.408 89.5906C-9.6965 90.1576 -7.43666 91.7118 -4.12397 94.3593Z" stroke="black" stroke-opacity="0.2" stroke-width="3"/>
<path d="M18.8015 67.4121L18.8084 67.4176L18.8153 67.4231L21.6588 69.6888C22.8451 70.9284 23.4703 71.7282 23.8519 72.5563C24.198 73.3072 24.39 74.1847 24.4781 75.6194C24.0608 76.3082 23.9037 76.5375 23.7206 76.7206C23.5398 76.9014 23.314 77.0568 22.6452 77.4625C18.831 77.0633 16.517 75.3524 13.124 72.6407L13.1154 72.6339L13.1067 72.6271L10.2607 70.4203C9.15729 69.1726 8.79556 68.7377 8.57993 68.2794C8.37336 67.8403 8.28171 67.3392 8.06769 65.8374C8.2813 64.5063 8.36615 64.1075 8.53135 63.7821C8.67465 63.4998 8.89626 63.2376 9.57877 62.5453C13.2328 62.9 15.4828 64.7033 18.8015 67.4121Z" stroke="black" stroke-opacity="0.2" stroke-width="3"/>
<path d="M39.981 39.4757L39.981 39.4757L39.9856 39.48C42.3688 41.6677 44.7782 43.7272 47.3832 45.6717C47.0265 48.0557 46.8442 49.1946 46.6515 49.8692C46.5579 50.1965 46.4843 50.3262 46.428 50.408C46.3877 50.4667 46.3406 50.5244 46.264 50.6071C45.491 50.7425 45.1448 50.79 44.752 50.79C44.2977 50.79 43.7699 50.7264 42.5687 50.5635C40.4039 49.0141 38.5859 47.5343 36.6515 45.7188L36.6293 45.6979L36.6062 45.678L34.9322 44.2301C34.3999 43.7406 34.0638 43.4332 33.745 43.1088C33.2197 42.5745 32.7411 41.9944 31.5092 40.4788C31.5464 39.118 31.6838 38.3521 31.9609 37.7158C32.2296 37.0988 32.6759 36.4949 33.5547 35.5769C36.1206 35.9764 37.6231 37.2929 39.981 39.4757Z" stroke="black" stroke-opacity="0.2" stroke-width="3"/>
<path d="M64.7202 13.6464L64.7202 13.6464L64.7247 13.6502L67.6664 16.1127C68.5108 16.8384 69.1073 17.3517 69.5507 17.7681C69.9967 18.1869 70.2131 18.4401 70.3363 18.6298C70.5284 18.9256 70.5824 19.1538 70.6832 20.4405C70.5869 21.7393 70.5399 22.0328 70.4209 22.2812C70.2998 22.5337 70.0774 22.7936 69.2588 23.6187C68.4326 23.7826 68.0867 23.8369 67.7051 23.8369C67.2703 23.8369 66.7725 23.7662 65.5848 23.575C63.4129 22.0214 61.5907 20.5388 59.6515 18.7188L59.6293 18.6979L59.6062 18.678L57.9322 17.2301C57.3999 16.7406 57.0638 16.4332 56.745 16.1088C56.2197 15.5745 55.7411 14.9944 54.5092 13.4788C54.5464 12.118 54.6838 11.3521 54.9609 10.7158C55.2314 10.0947 55.6819 9.48689 56.5723 8.55845C59.2307 8.91486 61.1189 10.5453 63.5122 12.6116C63.8998 12.9463 64.3006 13.2924 64.7202 13.6464Z" stroke="black" stroke-opacity="0.2" stroke-width="3"/>
<path d="M23.404 116.412L23.4138 116.432L23.4241 116.451L24.4121 118.319C25.8027 121.101 26.4735 122.803 26.2852 125.573C25.9331 126.541 25.7998 126.886 25.6663 127.121C25.5928 127.25 25.5239 127.342 25.2948 127.579C24.4351 127.691 24.022 127.734 23.5937 127.734C23.1589 127.734 22.6974 127.689 21.7523 127.579C19.5753 125.006 18.1341 122.13 16.6091 118.865L16.6091 118.865L16.6033 118.853L15.2839 116.093C14.8352 114.746 14.6524 113.976 14.6514 113.28C14.6506 112.675 14.7891 112.02 15.212 110.985C16.4577 110.13 17.0049 109.861 17.5068 109.787C17.9979 109.715 18.6056 109.807 20.0128 110.255C21.2609 112.289 22.3461 114.261 23.404 116.412Z" stroke="black" stroke-opacity="0.2" stroke-width="3"/>
<path d="M97.985 83.2058L97.985 83.2058L97.9795 83.2084L95.0097 84.6243L93.0803 85.363L92.5046 85.0752C92.5128 84.5659 92.5352 84.285 92.5959 83.9816C92.6826 83.5479 92.8502 83.0562 93.254 81.9414C95.0312 80.6544 96.5707 79.7187 98.1286 79.2348C99.4648 78.8197 100.864 78.7226 102.5 79.1193V79.1223V79.1301V79.1378V79.1456V79.1534V79.1611V79.1689V79.1766V79.1844V79.1921V79.1999V79.2076V79.2154V79.2231V79.2309V79.2387V79.2464V79.2542V79.2619V79.2697V79.2775V79.2852V79.293V79.3007V79.3085V79.3163V79.324V79.3318V79.3395V79.3473V79.3551V79.3628V79.3706V79.3783V79.3861V79.3939V79.4016V79.4094V79.4172V79.4249V79.4327V79.4405V79.4482V79.456V79.4638V79.4715V79.4793V79.4871V79.4948V79.5026V79.5104V79.5181V79.5259V79.5337V79.5414V79.5492V79.557V79.5647V79.5725V79.5803V79.5881V79.5958V79.6036V79.6114V79.6191V79.6269V79.6347V79.6425V79.6502V79.658V79.6658V79.6736V79.6813V79.6891V79.6969V79.7047V79.7125V79.7202V79.728V79.7358V79.7436V79.7514V79.7591V79.7669V79.7747V79.7825V79.7903V79.798V79.8058V79.8136V79.8214V79.8292V79.837V79.8447V79.8525V79.8603V79.8681V79.8759V79.8837V79.8915V79.8992V79.907V79.9148V79.9226V79.9304V79.9382V79.946V79.9538V79.9616V79.9694V79.9772V79.9849V79.9927V80.0005V80.0083V80.0161V80.0239V80.0317V80.0395V80.0473V80.0551V80.0629V80.0707V80.0785V80.0863V80.0941V80.1019V80.1097V80.1175V80.1253V80.1331V80.1409V80.1487V80.1565V80.1643V80.1721V80.1799V80.1877V80.1955V80.2033V80.2111V80.2189V80.2268V80.2346V80.2424V80.2502V80.258V80.2658V80.2736V80.2814V80.2892V80.297V80.3049V80.3127V80.3205V80.3283V80.3361V80.3439V80.3517V80.3596V80.3674V80.3752V80.383V80.3908V80.3987V80.4065V80.4143V80.4221V80.4299V80.4378V80.4456V80.4534V80.4612V80.4691V80.4769V80.4847V80.4925V80.5004V80.5082V80.516V80.5238V80.5317V80.5395V80.5473V80.5552V80.563V80.5708V80.5787V80.5865V80.5943V80.6022V80.61V80.6178V80.6257V80.6335V80.6413V80.6492V80.657V80.6649V80.6727V80.6805V80.6884V80.6962V80.7041V80.7119V80.7198V80.7276V80.7354V80.7433V80.7511V80.759V80.7668V80.7747V80.7825V80.7904V80.7982V80.8061V80.8139V80.8218V80.8296V80.8375V80.8453V80.8532V80.861V80.8689V80.8768V80.8846V80.8925V80.9003V80.9082V80.916V80.9239V80.9318V80.9396V80.9475V80.9554V80.9632V80.9711V80.979V80.9868V80.9947V81.0026V81.0104V81.0183V81.0262V81.034V81.0419V81.0498V81.0576V81.0578C100.999 81.7795 99.4937 82.4942 97.985 83.2058Z" stroke="black" stroke-opacity="0.2" stroke-width="3"/>
<path d="M71.1022 4.26742L71.1022 4.26746L71.1108 4.25808L72.7884 2.40955L73.5206 1.63382L75.9929 2.12828C74.7111 5.26262 72.901 7.5538 70.4774 10.3232L68.5096 9.83123C68.5372 8.41895 68.6298 7.73279 68.8545 7.16686C69.1346 6.46141 69.6625 5.82713 71.1022 4.26742Z" stroke="black" stroke-opacity="0.2" stroke-width="3"/>
</g>
<defs>
<clipPath id="clip0_1_481">
<rect width="150" height="150" fill="white" transform="translate(-44)"/>
</clipPath>
</defs>
</svg>
