<svg width="114" height="192" viewBox="0 0 114 192" fill="none" xmlns="http://www.w3.org/2000/svg">
<g clip-path="url(#clip0_69_455)">
<path d="M26.7656 121.562C24.0379 120.964 21.1637 121.031 18.7964 121.769C15.4574 124.454 15.0588 128.04 14.5634 132.497C14.4979 133.085 14.4308 133.689 14.355 134.308C14.745 135.956 15.0377 137.074 15.5404 138.021C16.0232 138.931 16.7297 139.732 18.0433 140.634C20.4083 141.394 22.2874 141.913 24.1404 142.047C25.9684 142.18 27.8143 141.941 30.0861 141.11C31.4541 140.142 32.0352 139.723 32.4311 139.308C32.7872 138.936 32.9979 138.563 33.5109 137.587C34.1449 133.24 34.4436 131.156 34.4459 129.609C34.4482 128.165 34.1931 127.207 33.6001 125.139C31.9455 123.384 29.4766 122.156 26.7656 121.562Z" stroke="black" stroke-opacity="0.2" stroke-width="2"/>
<path d="M12.7101 66.4353C11.7174 66.6748 10.7293 67.1234 9.33627 67.8542C6.66081 71.6 4.77167 75.3697 3.61212 79.7781C4.52486 82.0814 5.62483 83.5864 7.00077 84.7909C8.43227 86.0441 10.1964 87.0054 12.5131 88.1837C14.1678 88.3749 15.3672 88.2884 16.5082 87.9841C17.6711 87.674 18.8193 87.1272 20.3862 86.3121C23.7403 82.0747 25.9191 78.3711 25.5789 73.2372C23.1206 69.7829 20.3147 68.0639 16.2757 66.3331C14.7522 66.1529 13.6999 66.1965 12.7101 66.4353Z" stroke="black" stroke-opacity="0.2" stroke-width="2"/>
<path d="M69.0539 138.523L69.0555 138.515L69.0573 138.507L69.7863 135.291C69.8275 133.284 69.6654 131.884 69.2321 130.612C68.8109 129.374 68.1109 128.189 66.966 126.643C64.2275 125.665 61.9105 125.197 59.6429 125.229C57.3726 125.26 55.0883 125.793 52.4206 126.902C49.7751 130.551 49.6772 133.828 49.8384 138.636C50.334 140.405 50.5566 141.17 50.8987 141.825C51.2288 142.457 51.6792 143.003 52.7309 144.236C56.8175 146.03 60.2677 146.257 64.7208 145.493C66.085 144.694 66.6262 144.361 67.0265 143.946C67.4227 143.535 67.7013 143.023 68.3892 141.685L69.0539 138.523Z" stroke="black" stroke-opacity="0.2" stroke-width="2"/>
<path d="M54.4705 88.4456C50.6212 85.317 47.4948 83.5425 42.7639 83.7119C38.5293 86.7431 36.3289 90.5176 34.5313 95.5591C34.6381 97.2844 34.697 97.9963 34.9222 98.6339C35.1504 99.2799 35.5593 99.8779 36.589 101.328C40.4383 104.456 43.5647 106.231 48.2956 106.061C52.5303 103.03 54.7306 99.2556 56.5282 94.2142C56.4215 92.4888 56.3626 91.7769 56.1373 91.1393C55.9091 90.4933 55.5002 89.8953 54.4705 88.4456Z" stroke="black" stroke-opacity="0.2" stroke-width="2"/>
<path d="M-13.5577 137.668L-13.5473 137.67L-13.537 137.673L-11.4755 138.196C-8.43635 138.175 -6.24503 137.416 -3.40167 136.069C-0.756983 132.398 -0.664813 128.141 -1.12893 123.397C-1.53981 121.862 -1.71457 121.243 -2.00426 120.719C-2.28135 120.217 -2.67496 119.781 -3.6469 118.753C-6.54706 117.711 -9.09599 117.164 -11.5117 117.308C-13.9295 117.453 -16.2898 118.295 -18.7906 120.167C-20.8393 122.89 -20.8342 126.182 -20.8285 129.918C-20.8281 130.205 -20.8276 130.495 -20.8281 130.787C-20.5388 132.341 -20.4064 133.027 -20.1929 133.632C-19.9949 134.192 -19.7233 134.693 -19.1146 135.769C-17.8551 136.371 -17.2368 136.659 -16.5917 136.884C-15.8986 137.125 -15.166 137.296 -13.5577 137.668Z" stroke="black" stroke-opacity="0.2" stroke-width="2"/>
<path d="M2.88181 127.608L2.88189 127.608L2.88001 127.621L2.55898 129.738C2.04156 133.563 1.72558 136.323 3.35637 139.383C4.86148 139.763 5.52512 139.915 6.06058 139.926C6.55224 139.935 6.9423 139.826 7.99273 139.48C10.3668 137.275 10.5889 134.913 10.9145 131.449C10.9352 131.228 10.9564 131.003 10.9786 130.773L10.9805 130.753L10.9832 130.734L11.2678 128.647C11.6141 125.569 11.6265 123.553 10.514 120.863C9.95274 120.235 9.45543 119.881 9.01048 119.688C8.54873 119.488 8.08269 119.434 7.55791 119.49C7.01473 119.549 6.41583 119.725 5.70051 119.992C5.3457 120.124 4.97626 120.273 4.57804 120.434C4.55231 120.444 4.52646 120.455 4.5005 120.465C4.29619 120.548 4.08493 120.633 3.86775 120.72C3.5277 123.014 3.20099 125.309 2.88181 127.608Z" stroke="black" stroke-opacity="0.2" stroke-width="2"/>
<path d="M73.7439 136.019L73.7439 136.019L73.7429 136.028L73.4779 138.308C73.0972 141.941 73.0538 144.059 74.1338 147.321C75.5641 147.681 76.2088 147.827 76.7315 147.837C77.2231 147.847 77.6132 147.738 78.6636 147.391C81.0377 145.187 81.2598 142.824 81.5854 139.361C81.6061 139.14 81.6273 138.914 81.6495 138.684L81.6514 138.665L81.6541 138.645L81.9387 136.559C82.285 133.481 82.2974 131.465 81.1849 128.774C80.6236 128.146 80.1263 127.793 79.6814 127.6C79.2196 127.399 78.7536 127.345 78.2288 127.402C77.6856 127.46 77.0867 127.637 76.3714 127.903C76.0166 128.035 75.6472 128.184 75.2489 128.345C75.2232 128.356 75.1974 128.366 75.1714 128.377C74.9738 128.456 74.7697 128.539 74.56 128.623C74.2793 131.087 74.0087 133.552 73.7439 136.019Z" stroke="black" stroke-opacity="0.2" stroke-width="2"/>
<path d="M56.8539 101.989L56.85 101.995L56.846 102.001L54.8723 105.07C54.2437 106.622 54.0089 107.234 53.949 107.829C53.8907 108.409 53.9955 109.004 54.3016 110.525C54.9618 111.739 55.217 112.177 55.5538 112.498C55.8633 112.793 56.2637 113.01 57.2925 113.506C60.936 111.891 62.5096 109.271 64.7624 105.522L64.7767 105.498L64.7766 105.498L64.7819 105.489L66.7223 102.332C67.4114 100.893 67.8229 100.01 67.9921 99.137C68.1404 98.3716 68.1085 97.5597 67.7639 96.3299C66.8714 95.6338 66.4214 95.2875 65.9799 94.9934C65.5795 94.7266 65.1826 94.5004 64.4498 94.0964C60.8554 95.952 59.1614 98.2834 56.8539 101.989Z" stroke="black" stroke-opacity="0.2" stroke-width="2"/>
<path d="M26.2586 84.2214L26.2587 84.2214L26.2525 84.2314L24.3083 87.3433C23.5888 88.9343 23.2321 89.967 23.1395 90.968C23.0524 91.9095 23.1924 92.9043 23.63 94.3988C24.3362 94.9803 24.6232 95.2 24.9327 95.3479C25.24 95.4948 25.5885 95.5799 26.4707 95.7615C30.1833 94.0444 31.8737 91.5286 34.2052 87.7845L34.2091 87.7783L34.213 87.7721L36.1868 84.7039C36.8153 83.1518 37.0502 82.5395 37.11 81.9443C37.1683 81.3644 37.0635 80.7696 36.7574 79.2485C36.0973 78.0343 35.8421 77.5967 35.5053 77.2757C35.1959 76.9808 34.7956 76.7632 33.7675 76.2679C30.1331 77.8855 28.5269 80.4939 26.2586 84.2214Z" stroke="black" stroke-opacity="0.2" stroke-width="2"/>
<path d="M-3.03198 64.9624L-3.03395 64.9661C-4.59348 67.9001 -6.22136 70.7096 -8.08727 73.4727C-6.86833 75.7705 -6.26995 76.88 -5.82457 77.5066C-5.60525 77.8152 -5.45629 77.9565 -5.32097 78.055C-5.20893 78.1365 -5.08491 78.2055 -4.88578 78.304C-3.99889 78.157 -3.59285 78.0795 -3.1527 77.924C-2.67275 77.7544 -2.14464 77.4895 -0.997569 76.9C0.57236 74.6616 1.82438 72.6164 3.07344 70.2024L3.08278 70.1844L3.09284 70.1667L4.19281 68.2373C4.54156 67.5796 4.76242 67.1649 4.96071 66.7397C5.29339 66.0263 5.56252 65.2833 6.26542 63.3136C5.73854 61.9123 5.31264 61.1247 4.75208 60.5233C4.20121 59.9324 3.46046 59.4559 2.16621 58.817C-0.435458 60.1342 -1.48802 62.0278 -3.03198 64.9624Z" stroke="black" stroke-opacity="0.2" stroke-width="2"/>
<path d="M38.1715 132.158L38.1698 132.172L38.1676 132.187L37.8572 134.282C37.4654 137.428 37.3886 139.369 38.5721 142.077C39.249 142.9 39.5272 143.23 39.7742 143.444C39.9536 143.6 40.1139 143.694 40.5395 143.901C41.501 143.696 41.9637 143.59 42.4271 143.427C42.895 143.261 43.3715 143.034 44.3413 142.557C45.6187 139.277 46.0326 135.972 46.3897 132.314L46.3897 132.314L46.3906 132.306L46.7186 129.233C46.6935 127.79 46.6105 126.925 46.3491 126.181C46.109 125.499 45.6909 124.845 44.8574 123.926C43.302 123.502 42.5658 123.389 41.9257 123.514C41.2942 123.638 40.6422 124.017 39.365 124.996C38.8422 127.41 38.4617 129.7 38.1715 132.158Z" stroke="black" stroke-opacity="0.2" stroke-width="2"/>
<path d="M102.496 142.22L102.511 142.222L102.526 142.224L104.818 142.579C106.84 142.758 108.278 142.335 110.167 141.577C109.937 141.104 109.773 140.788 109.582 140.467C109.306 140.003 108.97 139.522 108.289 138.562C107.402 138.263 106.969 138.123 106.503 138.027C105.98 137.918 105.407 137.861 104.111 137.734L104.111 137.734L104.107 137.734L101.331 137.452L98.4325 137.221L98.4191 137.22L98.4057 137.218L95.5133 136.91C93.4539 136.72 91.9371 136.58 90.7619 136.517C89.5798 136.453 88.8129 136.471 88.2376 136.571C87.279 136.738 86.7798 137.125 85.5728 138.26L85.6059 140.114L85.6492 140.119L85.6976 140.125L85.7458 140.131L85.7938 140.137L85.8416 140.143L85.8892 140.149L85.9367 140.155L85.9839 140.161L86.031 140.167L86.0779 140.172L86.1247 140.178L86.1712 140.184L86.2175 140.19L86.2637 140.196L86.3097 140.201L86.3555 140.207L86.4012 140.213L86.4467 140.218L86.492 140.224L86.5371 140.23L86.582 140.235L86.6268 140.241L86.6714 140.246L86.7158 140.252L86.7601 140.257L86.8042 140.263L86.8481 140.268L86.8918 140.274L86.9354 140.279L86.9788 140.285L87.0221 140.29L87.0652 140.296L87.1081 140.301L87.1508 140.306L87.1934 140.312L87.2359 140.317L87.2782 140.322L87.3203 140.327L87.3622 140.333L87.404 140.338L87.4456 140.343L87.4871 140.348L87.5284 140.353L87.5696 140.358L87.6106 140.364L87.6515 140.369L87.6922 140.374L87.7327 140.379L87.7731 140.384L87.8134 140.389L87.8535 140.394L87.8934 140.399L87.9332 140.404L87.9729 140.409L88.0124 140.414L88.0518 140.419L88.091 140.423L88.1301 140.428L88.169 140.433L88.2078 140.438L88.2464 140.443L88.2849 140.448L88.3233 140.452L88.3615 140.457L88.3996 140.462L88.4375 140.467L88.4754 140.471L88.513 140.476L88.5506 140.481L88.588 140.485L88.6252 140.49L88.6624 140.495L88.6994 140.499L88.7362 140.504L88.773 140.508L88.8096 140.513L88.8461 140.518L88.8824 140.522L88.9186 140.527L88.9547 140.531L88.9907 140.536L89.0266 140.54L89.0623 140.545L89.0979 140.549L89.1333 140.553L89.1687 140.558L89.2039 140.562L89.239 140.567L89.274 140.571L89.3089 140.575L89.3436 140.58L89.3783 140.584L89.4128 140.588L89.4472 140.593L89.4815 140.597L89.5157 140.601L89.5497 140.605L89.5837 140.61L89.6175 140.614L89.6512 140.618L89.6848 140.622L89.7183 140.626L89.7517 140.631L89.785 140.635L89.8182 140.639L89.8513 140.643L89.8842 140.647L89.9171 140.651L89.9499 140.655L89.9825 140.659L90.0151 140.663L90.0475 140.667L90.0799 140.671L90.1121 140.675L90.1443 140.679L90.1763 140.683L90.2083 140.687L90.2402 140.691L90.2719 140.695L90.3036 140.699L90.3352 140.703L90.3666 140.707L90.398 140.711L90.4293 140.715L90.4605 140.719L90.4916 140.723L90.5227 140.727L90.5536 140.731L90.5845 140.734L90.6152 140.738L90.6459 140.742L90.6765 140.746L90.707 140.75L90.7374 140.753L90.7677 140.757L90.798 140.761L90.8282 140.765L90.8582 140.769L90.8883 140.772L90.9182 140.776L90.948 140.78L90.9778 140.783L91.0075 140.787L91.0371 140.791L91.0667 140.795L91.0961 140.798L91.1255 140.802L91.1549 140.806L91.1841 140.809L91.2133 140.813L91.2424 140.816L91.2715 140.82L91.3004 140.824L91.3293 140.827L91.3582 140.831L91.3869 140.834L91.4156 140.838L91.4443 140.842L91.4728 140.845L91.5014 140.849L91.5298 140.852L91.5582 140.856L91.5865 140.859L91.6148 140.863L91.643 140.866L91.6711 140.87L91.6992 140.873L91.7273 140.877L91.7552 140.88L91.7831 140.884L91.811 140.887L91.8388 140.891L91.8666 140.894L91.8943 140.898L91.9219 140.901L91.9495 140.905L91.9771 140.908L92.0046 140.911L92.032 140.915L92.0595 140.918L92.0868 140.922L92.1141 140.925L92.1414 140.929L92.1686 140.932L92.1958 140.935L92.2229 140.939L92.25 140.942L92.2771 140.945L92.3041 140.949L92.3311 140.952L92.358 140.956L92.3849 140.959L92.4118 140.962L92.4386 140.966L92.4654 140.969L92.4921 140.972L92.5189 140.976L92.5455 140.979L92.5722 140.982L92.5988 140.986L92.6254 140.989L92.652 140.992L92.6785 140.996L92.705 140.999L92.7315 141.002L92.7579 141.005L92.7844 141.009L92.8107 141.012L92.8371 141.015L92.8635 141.019L92.8898 141.022L92.9161 141.025L92.9424 141.028L92.9686 141.032L92.9949 141.035L93.0211 141.038L93.0473 141.042L93.0735 141.045L93.0997 141.048L93.1258 141.051L93.1519 141.055L93.1781 141.058L93.2042 141.061L93.2303 141.064L93.2564 141.068L93.2824 141.071L93.3085 141.074L93.3346 141.077L93.3606 141.081L93.3866 141.084L93.4127 141.087L93.4387 141.09L93.4647 141.094L93.4907 141.097L93.5167 141.1L93.5428 141.103L93.5688 141.107L93.5948 141.11L93.6208 141.113L93.6468 141.116L93.6728 141.12L93.6988 141.123L93.7248 141.126L93.7508 141.129L93.7768 141.132L93.8028 141.136L93.8289 141.139L93.8549 141.142L93.8809 141.145L93.907 141.149L93.933 141.152L93.9591 141.155L93.9852 141.158L94.0113 141.162L94.0373 141.165L94.0635 141.168L94.0896 141.171L94.1157 141.175L94.1419 141.178L94.168 141.181L94.1942 141.185L94.2204 141.188L94.2467 141.191L94.2729 141.194L94.2992 141.198L94.3254 141.201L94.3517 141.204L94.3781 141.207L94.4044 141.211L94.4308 141.214L94.4572 141.217L94.4836 141.221L94.51 141.224L94.5365 141.227L94.563 141.231L94.5896 141.234L94.6161 141.237L94.6427 141.24L94.6693 141.244L94.696 141.247L94.7227 141.25L94.7494 141.254L94.7761 141.257L94.8029 141.26L94.8298 141.264L94.8566 141.267L94.8835 141.27L94.9104 141.274L94.9374 141.277L94.9644 141.281L94.9915 141.284L95.0186 141.287L95.0457 141.291L95.0729 141.294L95.1001 141.297L95.1274 141.301L95.1547 141.304L95.1821 141.308L95.2095 141.311L95.2369 141.315L95.2644 141.318L95.292 141.321L95.3196 141.325L95.3473 141.328L95.375 141.332L95.4027 141.335L95.4305 141.339L95.4584 141.342L95.4863 141.346L95.5143 141.349L95.5423 141.353L95.5704 141.356L95.5985 141.36L95.6268 141.363L95.655 141.367L95.6833 141.37L95.7117 141.374L95.7402 141.377L95.7687 141.381L95.7973 141.384L95.8259 141.388L95.8546 141.392L95.8834 141.395L95.9122 141.399L95.9411 141.402L95.9701 141.406L95.9991 141.41L96.0282 141.413L96.0574 141.417L96.0867 141.421L96.116 141.424L96.1454 141.428L96.1749 141.432L96.2044 141.435L96.234 141.439L96.2637 141.443L96.2935 141.446L96.3233 141.45L96.3533 141.454L96.3833 141.458L96.4134 141.461L96.4435 141.465L96.4738 141.469L96.5041 141.473L96.5346 141.476L96.5651 141.48L96.5956 141.484L96.6263 141.488L96.6571 141.492L96.6879 141.495L96.7189 141.499L96.7499 141.503L96.781 141.507L96.8122 141.511L96.8435 141.515L96.8749 141.519L96.9064 141.523L96.9379 141.527L96.9696 141.531L97.0014 141.535L97.0332 141.539L97.0652 141.543L97.0972 141.547L97.1294 141.551L97.1616 141.555L97.194 141.559L97.2264 141.563L97.259 141.567L97.2917 141.571L97.3244 141.575L97.3573 141.579L97.3903 141.583L97.4233 141.587L97.4565 141.591L97.4898 141.595L97.5232 141.6L97.5567 141.604L97.5903 141.608L97.624 141.612L97.6579 141.616L97.6918 141.621L97.7259 141.625L97.76 141.629L97.7943 141.633L97.8287 141.638L97.8633 141.642L97.8979 141.646L97.9326 141.651L97.9675 141.655L98.0025 141.659L98.0376 141.664L98.0728 141.668L98.1082 141.673L98.1437 141.677L98.1793 141.681L98.215 141.686L98.2508 141.69L98.2868 141.695L98.3229 141.699L98.3591 141.704L98.3955 141.708L98.4319 141.713L98.4686 141.718L98.5053 141.722L98.5422 141.727L98.5792 141.731L98.6163 141.736L98.6536 141.741L98.691 141.745L98.7285 141.75L98.7662 141.755L98.804 141.759L98.8419 141.764L98.88 141.769L98.9182 141.774L98.9566 141.778L98.9951 141.783L99.0337 141.788L99.0725 141.793L99.1115 141.798L99.1505 141.803L99.1898 141.807L99.2291 141.812L99.2686 141.817L99.3083 141.822L99.3481 141.827L99.388 141.832L99.4281 141.837L99.4684 141.842L99.5088 141.847L99.5493 141.852L99.59 141.857L99.6309 141.862L99.6719 141.868L99.7131 141.873L99.7544 141.878L99.7959 141.883L99.8375 141.888L99.8793 141.893L99.9213 141.899L99.9634 141.904L100.006 141.909L100.048 141.915L100.091 141.92L100.133 141.925L100.176 141.931L100.219 141.936L100.263 141.941L100.306 141.947L100.35 141.952L100.393 141.958L100.437 141.963L100.481 141.969L100.526 141.974L100.57 141.98L100.615 141.985L100.66 141.991L100.704 141.996L100.75 142.002L100.795 142.008L100.84 142.013L100.886 142.019L100.932 142.025L100.978 142.03L101.024 142.036L101.07 142.042L101.117 142.048L101.164 142.054L101.211 142.059L101.258 142.065L101.305 142.071L101.352 142.077L101.4 142.083L101.448 142.089L101.496 142.095L101.544 142.101L101.592 142.107L101.641 142.113L101.69 142.119L101.739 142.125L101.788 142.131L101.837 142.138L101.887 142.144L101.936 142.15L101.986 142.156L102.036 142.162L102.087 142.169L102.137 142.175L102.188 142.181L102.239 142.188L102.29 142.194L102.341 142.2L102.393 142.207L102.444 142.213L102.496 142.22Z" stroke="black" stroke-opacity="0.2" stroke-width="2"/>
<path d="M75.0047 113.841L75.0047 113.841L75.011 113.844C79.2199 116.053 83.3464 118.326 87.4218 120.788L89.5546 119.377C87.9358 116.742 85.7321 115.442 82.7587 113.689C82.6016 113.597 82.4424 113.503 82.2809 113.407L82.2809 113.407L82.2765 113.405L79.1583 111.539C76.1442 109.854 73.2085 108.272 70.088 106.926C69.28 107.289 68.9109 107.466 68.6118 107.663C68.3874 107.812 68.1976 107.976 67.8794 108.286C69.4811 110.994 71.5778 112.074 74.7405 113.705C74.8278 113.75 74.9158 113.795 75.0047 113.841Z" stroke="black" stroke-opacity="0.2" stroke-width="2"/>
</g>
<defs>
<clipPath id="clip0_69_455">
<rect width="150" height="150" fill="white" transform="matrix(-0.942893 0.333097 0.333097 0.942893 63.4463 0)"/>
</clipPath>
</defs>
</svg>
