<svg width="40" height="40" viewBox="0 0 40 40" fill="none" xmlns="http://www.w3.org/2000/svg">
<path d="M21.9311 1.25571L26.4425 10.8145C26.7563 11.4794 27.3629 11.94 28.0646 12.0465L38.153 13.5794C39.9202 13.8481 40.6253 16.1183 39.347 17.4209L32.0471 24.8614C31.5397 25.3788 31.3078 26.1247 31.4279 26.855L33.1509 37.3613C33.453 39.2014 31.6057 40.6043 30.0254 39.7362L21.0024 34.7762C20.375 34.4316 19.6249 34.4316 18.9974 34.7762L9.97446 39.7362C8.39415 40.6052 6.54684 39.2014 6.84889 37.3613L8.57187 26.855C8.69202 26.1247 8.46007 25.3788 7.95277 24.8614L0.652808 17.4209C-0.625456 16.1174 0.0795916 13.8473 1.8468 13.5794L11.9352 12.0465C12.637 11.94 13.2435 11.4794 13.5573 10.8145L18.0687 1.25571C18.8581 -0.41857 21.1409 -0.41857 21.9311 1.25571Z" fill="#E9B872"/>
</svg>
